<svg xmlns="http://www.w3.org/2000/svg" width="100" height="100" viewBox="0 0 100 100">
  <path id="모양_2" data-name="모양 2" class="cls-1" d="M49.924,60.409a1.972,1.972,0,1,0,1.935,1.971A1.956,1.956,0,0,0,49.924,60.409ZM75.642,38.362H70.166V25.56a20.172,20.172,0,1,0-40.336,0v12.8H24.4A8.463,8.463,0,0,0,16.025,46.9V86.466A8.463,8.463,0,0,0,24.4,95H75.642a8.464,8.464,0,0,0,8.372-8.534V46.9A8.464,8.464,0,0,0,75.642,38.362ZM34.4,25.56a15.6,15.6,0,1,1,31.2,0v12.8H34.4V25.56Zm17.811,43v9.3a2.284,2.284,0,1,1-4.566,0v-9.3A6.5,6.5,0,1,1,52.207,68.565Z"/>
</svg>
