<svg xmlns="http://www.w3.org/2000/svg" width="100" height="100" viewBox="0 0 100 100">
  <path id="모양_3" data-name="모양 3" class="cls-1" d="M62.041,60.331a1.863,1.863,0,1,0,1.872,1.862A1.87,1.87,0,0,0,62.041,60.331Zm24.9-20.822H44.082V27.418a19.525,19.525,0,0,0-39.049,0V41.707a2.21,2.21,0,0,0,4.421,0V27.418a15.1,15.1,0,0,1,30.208,0V39.509H37.327a8.091,8.091,0,0,0-8.1,8.06V84.94a8.09,8.09,0,0,0,8.1,8.06h49.61a8.091,8.091,0,0,0,8.1-8.06V47.569A8.092,8.092,0,0,0,86.937,39.509ZM64.251,68.033v8.785a2.21,2.21,0,0,1-4.421,0V68.033A6.293,6.293,0,1,1,64.251,68.033Z"/>
</svg>
