<svg xmlns="http://www.w3.org/2000/svg" width="100" height="100" viewBox="0 0 100 100">
  <path id="모양_3" data-name="모양 3" class="cls-1" d="M35.851,5.046H14.331a9.388,9.388,0,0,0-9.358,9.4V36.057a9.389,9.389,0,0,0,9.358,9.4h21.52a9.389,9.389,0,0,0,9.358-9.4V14.444A9.388,9.388,0,0,0,35.851,5.046Zm48.805,0H63.137a9.388,9.388,0,0,0-9.358,9.4V36.057a9.389,9.389,0,0,0,9.358,9.4h21.52a9.389,9.389,0,0,0,9.358-9.4V14.444A9.388,9.388,0,0,0,84.657,5.046ZM35.851,54.605H14.331A9.389,9.389,0,0,0,4.974,64V85.618a9.389,9.389,0,0,0,9.358,9.4h21.52a9.389,9.389,0,0,0,9.358-9.4V64A9.389,9.389,0,0,0,35.851,54.605Zm48.805,0H63.137A9.389,9.389,0,0,0,53.779,64V85.618a9.389,9.389,0,0,0,9.358,9.4h21.52a9.389,9.389,0,0,0,9.358-9.4V64A9.389,9.389,0,0,0,84.657,54.605Z"/>
</svg>
