<svg xmlns="http://www.w3.org/2000/svg" width="100" height="100" viewBox="0 0 100 100">
  <path id="모양_3" data-name="모양 3" class="cls-1" d="M23,4.985H14.5A9.506,9.506,0,0,0,5,14.47v8.48A9.507,9.507,0,0,0,14.5,32.435H23a9.507,9.507,0,0,0,9.507-9.485V14.47A9.506,9.506,0,0,0,23,4.985Zm31.019,0h-8.5a9.506,9.506,0,0,0-9.507,9.485v8.48a9.507,9.507,0,0,0,9.507,9.485h8.5a9.507,9.507,0,0,0,9.507-9.485V14.47A9.506,9.506,0,0,0,54.019,4.985ZM23,36.275H14.5A9.507,9.507,0,0,0,5,45.76v8.478A9.507,9.507,0,0,0,14.5,63.723H23a9.507,9.507,0,0,0,9.507-9.485V45.76A9.507,9.507,0,0,0,23,36.275Zm31.019,0h-8.5a9.507,9.507,0,0,0-9.507,9.485v8.478a9.507,9.507,0,0,0,9.507,9.485h8.5a9.507,9.507,0,0,0,9.507-9.485V45.76A9.507,9.507,0,0,0,54.019,36.275ZM23,67.562H14.5A9.507,9.507,0,0,0,5,77.047v8.478A9.507,9.507,0,0,0,14.5,95.01H23a9.507,9.507,0,0,0,9.507-9.485V77.047A9.507,9.507,0,0,0,23,67.562Zm31.019,0h-8.5a9.507,9.507,0,0,0-9.507,9.485v8.478a9.507,9.507,0,0,0,9.507,9.485h8.5a9.507,9.507,0,0,0,9.507-9.485V77.047A9.507,9.507,0,0,0,54.019,67.562ZM85.5,4.985H77a9.506,9.506,0,0,0-9.507,9.485v8.48A9.507,9.507,0,0,0,77,32.435h8.5A9.507,9.507,0,0,0,95,22.95V14.47A9.506,9.506,0,0,0,85.5,4.985Zm0,31.289H77a9.507,9.507,0,0,0-9.507,9.485v8.478A9.507,9.507,0,0,0,77,63.723h8.5A9.507,9.507,0,0,0,95,54.238V45.76A9.507,9.507,0,0,0,85.5,36.275Zm0,31.288H77a9.507,9.507,0,0,0-9.507,9.485v8.478A9.507,9.507,0,0,0,77,95.01h8.5A9.507,9.507,0,0,0,95,85.525V77.047A9.507,9.507,0,0,0,85.5,67.562Z"/>
</svg>
