<svg xmlns="http://www.w3.org/2000/svg" width="100" height="100" viewBox="0 0 100 100">
  <path id="모양_3" data-name="모양 3" class="cls-1" d="M15.174,10.03a9.978,9.978,0,1,0,0,19.953A9.978,9.978,0,1,0,15.174,10.03ZM37.646,22.6h54.7a2.6,2.6,0,1,0,0-5.193h-54.7A2.6,2.6,0,1,0,37.646,22.6ZM15.174,39.527a9.978,9.978,0,1,0,0,19.953A9.978,9.978,0,1,0,15.174,39.527Zm77.168,7.38h-54.7a2.6,2.6,0,1,0,0,5.193h54.7A2.6,2.6,0,1,0,92.342,46.906ZM15.174,69.023a9.978,9.978,0,1,0,0,19.953A9.978,9.978,0,1,0,15.174,69.023ZM92.342,76.4h-54.7a2.6,2.6,0,1,0,0,5.193h54.7A2.6,2.6,0,1,0,92.342,76.4Z"/>
</svg>
