<svg xmlns="http://www.w3.org/2000/svg" width="100" height="100" viewBox="0 0 100 100">
  <defs>
    <style>
      .cls-1 {
        fill-rule: evenodd;
      }
    </style>
  </defs>
  <path id="모양_3" data-name="모양 3" class="cls-1" d="M92.962,50.044a7.74,7.74,0,0,0-2.4-5.988c-2.55-2.338-6.148-2.287-7.16-2.224-1.386-.076-10.413-0.56-15.959-0.56a2.15,2.15,0,0,1-1.445-.3,2.952,2.952,0,0,1,.143-1.858l0.109-.341c2.882-11.886-.37-22.9-9.16-31.023C54.331,5.2,51.861,4.408,49.748,5.383c-3.267,1.505-3.387,6.278-3.33,7.922,0.005,0.046.528,4.852-.013,16.83C46.063,37.718,33.711,45.424,26.1,49.216a5.906,5.906,0,0,0-5.779-4.835H11.9a5.92,5.92,0,0,0-5.89,5.935V89.033a5.919,5.919,0,0,0,5.89,5.935h8.414a5.92,5.92,0,0,0,5.89-5.935V86.64c2.924-.052,7.373.2,10.465,1.6,5.538,2.51,17.483,6.724,35.253,6.724a15.876,15.876,0,0,0,12.4-5.661c7.833-8.938,7.818-25.353,7.489-28-0.352-2.837.667-8.722,1.088-10.75ZM86.81,61.935c0.388,3.126-.194,17.076-6.265,24.005a10.9,10.9,0,0,1-8.62,3.941c-16.827,0-28.012-3.932-33.182-6.277-4.1-1.861-9.367-2.1-12.536-2.048V54.8c5.905-2.7,24.69-12.236,25.239-24.432,0.565-12.475.011-17.43,0-17.43a8.022,8.022,0,0,1,.411-2.769A7.245,7.245,0,0,1,53.672,11.5c5.2,4.8,10.737,13.187,7.7,25.926-0.306.868-1.2,3.951,0.439,6.4,0.779,1.159,2.386,2.54,5.625,2.54,5.752,0,15.747.555,15.847,0.562l0.2,0.01,0.194-.02a5.282,5.282,0,0,1,3.486.909,2.52,2.52,0,0,1,.75,1.972C87.586,51.4,86.329,58.052,86.81,61.935Z"/>
</svg>
