<svg xmlns="http://www.w3.org/2000/svg" width="100" height="100" viewBox="0 0 100 100">
  <defs>
    <style>
      .cls-1 {
        fill-rule: evenodd;
      }
    </style>
  </defs>
  <path id="모양_3" data-name="모양 3" class="cls-1" d="M85.97,33.35h-18.5c-2.389-.248-2.79-1.587-2.848-1.926a2.434,2.434,0,0,0-.125-0.58L58.513,13.18A9.03,9.03,0,0,0,42.2,11.448a2.373,2.373,0,0,0-.233.512L35.734,30.888c-1.092,2.483-2.555,2.475-2.7,2.49a2.675,2.675,0,0,0-.385-0.029H14.027A9.058,9.058,0,0,0,7.138,48.266a2.5,2.5,0,0,0,.378.363l15.567,12.2c2.029,1.774,1.654,3.128,1.6,3.293a2.6,2.6,0,0,0-.138.351L18.994,82.28A9.039,9.039,0,0,0,31.157,93.309a2.477,2.477,0,0,0,.455-0.252L48.9,81.1a1.97,1.97,0,0,1,2.251.044L68.384,93.059a2.531,2.531,0,0,0,.458.253A9.045,9.045,0,0,0,81.006,82.28L75.361,64.208c-0.1-.253-0.475-1.607,1.446-3.29l15.675-12.29a2.471,2.471,0,0,0,.378-0.363A9.057,9.057,0,0,0,85.97,33.35Z"/>
</svg>
