<svg xmlns="http://www.w3.org/2000/svg" width="100" height="100" viewBox="0 0 100 100">
  <defs>
    <style>
      .cls-1 {
        fill-rule: evenodd;
      }
    </style>
  </defs>
  <path id="모양_3" data-name="모양 3" class="cls-1" d="M69.655,10.015c-9.774,0-15.774,6.081-19.585,11.235-4.793-7.357-11.581-11.235-19.716-11.235A25.406,25.406,0,0,0,5.021,35.48l0.036,1.183C5.093,37.846,6.408,65.88,46.229,88.969a7.979,7.979,0,0,0,3.87,1,7.132,7.132,0,0,0,3.694-1.007C93.333,65.429,94.9,37.852,94.949,36.69c0-.01,0-0.018,0-0.026l0.036-1.26A25.389,25.389,0,0,0,69.655,10.015Z"/>
</svg>
