<svg xmlns="http://www.w3.org/2000/svg" width="100" height="100" viewBox="0 0 100 100">
  <defs>
    <style>
      .cls-1 {
        fill-rule: evenodd;
      }
    </style>
  </defs>
  <path id="모양_3" data-name="모양 3" class="cls-1" d="M85.651,26.662H73.3L66.439,15.577a7.539,7.539,0,0,0-6.479-3.563H40.067a7.525,7.525,0,0,0-6.43,3.473L26.726,26.662H14.376A9.361,9.361,0,0,0,5.014,36v42.67a9.361,9.361,0,0,0,9.362,9.341H85.651a9.361,9.361,0,0,0,9.362-9.341V36A9.361,9.361,0,0,0,85.651,26.662ZM50.013,71.454A18.257,18.257,0,1,1,68.311,53.2,18.3,18.3,0,0,1,50.013,71.454Z"/>
</svg>
