<svg xmlns="http://www.w3.org/2000/svg" width="100" height="100" viewBox="0 0 100 100">
  <defs>
    <style>
      .cls-1 {
        fill-rule: evenodd;
      }
    </style>
  </defs>
  <path id="모양_3" data-name="모양 3" class="cls-1" d="M91.02,52.08a4.751,4.751,0,0,0-.054-0.53c0.112-3.906,0-22.827-11.963-35.426C72.011,8.761,62.329,5.029,50.225,5.029S28.373,8.761,21.25,16.121C8.008,29.808,8.6,50.994,8.648,52.2V77.329a4.849,4.849,0,0,0,4.861,4.826h11.11a4.849,4.849,0,0,0,4.861-4.826V52.166a4.849,4.849,0,0,0-4.861-4.826H13.509a4.759,4.759,0,0,0-.524.053c0.541-6.806,2.716-19.58,11.288-28.424,6.3-6.5,15.035-9.8,25.951-9.8s19.558,3.289,25.729,9.778c8.382,8.814,10.323,21.548,10.74,28.365a4.81,4.81,0,0,0-.535-0.053H75.049a4.849,4.849,0,0,0-4.861,4.826V77.243a4.849,4.849,0,0,0,4.861,4.826h8.86c-5.383,6.679-16.231,8.469-25.028,8.7a4.27,4.27,0,0,0-.051-2.494A5.078,5.078,0,0,0,55.2,85.244c-3.715-.557-10.228-1.043-12.143,1.978a4.827,4.827,0,0,0,.883,6.521,2.1,2.1,0,0,0,.964.416,83.569,83.569,0,0,0,11.829.809c11.253,0,27.237-2.235,32.811-14.092a1.907,1.907,0,0,0,.055-0.225,4.793,4.793,0,0,0,1.423-3.408V52.08ZM54.286,90.766c-3.7-.106-6.628-0.422-7.96-0.588a0.964,0.964,0,0,1,.175-0.656c0.757-.617,4.606-0.7,7.836-0.237a1.591,1.591,0,0,1,.533.281A2.239,2.239,0,0,1,54.286,90.766Z"/>
</svg>
