<svg xmlns="http://www.w3.org/2000/svg" width="100" height="100" viewBox="0 0 100 100">
  <defs>
    <style>
      .cls-1 {
        fill-rule: evenodd;
      }
    </style>
  </defs>
  <path id="모양_3" data-name="모양 3" class="cls-1" d="M93.963,58.063c0.121-4.2,0-24.564-12.828-38.122C73.638,12.019,63.257,8,50.277,8S26.846,12.019,19.208,19.939C5.008,34.668,5.646,57.466,5.7,58.764V85.8A5.209,5.209,0,0,0,10.907,91H22.821A5.209,5.209,0,0,0,28.033,85.8V58.727a5.209,5.209,0,0,0-5.212-5.193H10.907a5.153,5.153,0,0,0-.561.056c0.58-7.324,2.912-21.069,12.1-30.586,6.759-7,16.122-10.55,27.827-10.55,11.689,0,20.972,3.54,27.589,10.522C86.853,32.46,88.935,46.163,89.383,53.5a5.073,5.073,0,0,0-.574-0.058H76.9a5.209,5.209,0,0,0-5.212,5.193V85.711A5.209,5.209,0,0,0,76.9,90.9H88.809a5.209,5.209,0,0,0,5.212-5.193V58.634A5.092,5.092,0,0,0,93.963,58.063Z"/>
</svg>
