<svg xmlns="http://www.w3.org/2000/svg" width="100" height="100" viewBox="0 0 100 100">
  <defs>
    <style>
      .cls-1 {
        fill-rule: evenodd;
      }
    </style>
  </defs>
  <path id="모양_3" data-name="모양 3" class="cls-1" d="M91.579,70L77.861,58.611a9.465,9.465,0,0,0-13.216,1.144l-4.382,5.169c-0.671.265-5.178,1.4-16.134-8.651-10.147-10.842-9.007-15.3-8.741-15.971l5.225-4.339a9.232,9.232,0,0,0,1.154-13.081L30.255,9.3A9.465,9.465,0,0,0,17.04,8.159L6.915,16.569l-0.375.386C5.5,18.282-2.65,30.994,32.626,67.751,57,90.663,70.888,95.012,77.925,95.012c3.659,0,5.466-1.177,5.924-1.532l8.886-10.393A9.232,9.232,0,0,0,91.579,70Z"/>
</svg>
