<svg xmlns="http://www.w3.org/2000/svg" width="100" height="100" viewBox="0 0 100 100">
  <defs>
    <style>
      .cls-1 {
        fill-rule: evenodd;
      }
    </style>
  </defs>
  <path id="모양_3" data-name="모양 3" class="cls-1" d="M91.647,69.283L77.919,58.016a9.554,9.554,0,0,0-13.228,1.131l-4.386,5.111c-0.675.263-5.181,1.383-16.148-8.554C34,44.983,35.143,40.575,35.409,39.911l5.229-4.291a9.054,9.054,0,0,0,1.155-12.935L30.272,9.258A9.551,9.551,0,0,0,17.046,8.126L6.912,16.443l-0.375.38c-1.045,1.314-9.2,13.884,26.108,50.232C57.035,89.711,70.938,94.012,77.981,94.01c3.662,0,5.471-1.162,5.929-1.513L92.8,82.22A9.063,9.063,0,0,0,91.647,69.283Zm-38.284-21.8a2.582,2.582,0,0,0,1.81-.734L79.663,22.8V35.343a2.561,2.561,0,0,0,5.121,0V16.756a2.43,2.43,0,0,0-.181-0.875,2.4,2.4,0,0,0-.115-0.236,2.477,2.477,0,0,0-.361-0.524,2.231,2.231,0,0,0-.859-0.64c-0.02-.009-0.036-0.025-0.057-0.034l-0.008,0a2.589,2.589,0,0,0-.884-0.172c-0.034,0-.062-0.019-0.1-0.019H63.218a2.5,2.5,0,1,0,0,5.008H76.042L51.552,43.211a2.464,2.464,0,0,0,0,3.541A2.582,2.582,0,0,0,53.363,47.486Z"/>
</svg>
