<svg xmlns="http://www.w3.org/2000/svg" width="100" height="100" viewBox="0 0 100 100">
  <defs>
    <style>
      .cls-1 {
        fill-rule: evenodd;
      }
    </style>
  </defs>
  <path id="모양_3" data-name="모양 3" class="cls-1" d="M91.577,69.286L77.86,58.018a9.539,9.539,0,0,0-13.216,1.133l-4.382,5.111c-0.68.261-5.181,1.374-16.132-8.553-10.148-10.72-9.007-15.128-8.741-15.791l5.221-4.289a9.059,9.059,0,0,0,1.158-12.935L30.256,9.266A9.54,9.54,0,0,0,17.04,8.135L6.915,16.451l-0.375.382C5.5,18.144-2.65,30.713,32.626,67.057c24.368,22.654,38.261,26.955,45.3,26.953,3.659,0,5.466-1.162,5.924-1.513l8.887-10.276A9.059,9.059,0,0,0,91.577,69.286Zm-41.2-19.5a2.458,2.458,0,0,0,.361.524c0.058,0.065.11,0.13,0.174,0.189a2.545,2.545,0,0,0,.684.451c0.021,0.009.037,0.025,0.057,0.034l0.008,0a2.593,2.593,0,0,0,.979.191H71.629a2.5,2.5,0,1,0,0-5.008H58.816L83.285,22.223a2.466,2.466,0,0,0,0-3.54,2.6,2.6,0,0,0-3.618,0L55.2,42.631V30.09a2.559,2.559,0,0,0-5.117,0V48.675a2.426,2.426,0,0,0,.18.875A2.4,2.4,0,0,0,50.377,49.786Z"/>
</svg>
