<svg xmlns="http://www.w3.org/2000/svg" width="100" height="100" viewBox="0 0 100 100">
  <defs>
    <style>
      .cls-1 {
        fill-rule: evenodd;
      }
    </style>
  </defs>
  <path id="모양_3" data-name="모양 3" class="cls-1" d="M8.171,31.184L48.1,53.62a2.308,2.308,0,0,0,2.206.03L92.786,31.214a2.259,2.259,0,0,0,.006-4L51.588,5.28a2.3,2.3,0,0,0-2.164,0L8.219,27.212A2.259,2.259,0,0,0,8.171,31.184Zm84.62,15.536L81.913,40.932a2.3,2.3,0,0,0-3.1.924,2.26,2.26,0,0,0,.936,3.073l7.109,3.783L49.266,68.567,14.037,48.772l7.183-3.823a2.26,2.26,0,0,0,.936-3.072,2.3,2.3,0,0,0-3.1-.925L8.219,46.721a2.258,2.258,0,0,0-.048,3.972L48.1,73.13a2.308,2.308,0,0,0,2.206.03L92.786,50.722A2.259,2.259,0,0,0,92.792,46.721Zm0,21.579-10.879-5.79a2.3,2.3,0,0,0-2.134-.016L49.173,78.207,21.266,62.554a2.3,2.3,0,0,0-2.209-.024L8.219,68.3a2.258,2.258,0,0,0-.048,3.972L48.1,94.707a2.308,2.308,0,0,0,2.206.03L92.786,72.3A2.259,2.259,0,0,0,92.792,68.3Z"/>
</svg>
