<svg xmlns="http://www.w3.org/2000/svg" width="100" height="100" viewBox="0 0 100 100">
  <defs>
    <style>
      .cls-1 {
        fill-rule: evenodd;
      }
    </style>
  </defs>
  <path id="모양_3" data-name="모양 3" class="cls-1" d="M93.638,17.431L65.249,5.583A2.124,2.124,0,0,0,64.817,5.5a2.16,2.16,0,0,0-.306-0.061,2.259,2.259,0,0,0-.936.132c-0.016.006-.033,0-0.048,0.007L35.273,17.065,8.129,5.227s-0.01,0-.014,0a2.3,2.3,0,0,0-.488-0.1,2.294,2.294,0,0,0-.375-0.075c-0.009,0-.016-0.005-0.025-0.005a2.138,2.138,0,0,0-.428.086,2.281,2.281,0,0,0-.4.079,2.2,2.2,0,0,0-.447.277,2.174,2.174,0,0,0-.28.188,2.221,2.221,0,0,0-.348.487,2.094,2.094,0,0,0-.15.21c0,0.005,0,.011,0,0.016a2.217,2.217,0,0,0-.09.408,2.265,2.265,0,0,0-.093.457c0,0.005,0,.009,0,0.014V80.574a2.063,2.063,0,0,0,.049.242,2.206,2.206,0,0,0,.12.592,2.145,2.145,0,0,0,.22.344,2.136,2.136,0,0,0,.25.367,2.241,2.241,0,0,0,.481.335,2.068,2.068,0,0,0,.22.153l0.027,0.012,0,0L34.341,94.827c0.032,0.014.066,0.008,0.1,0.021A2.016,2.016,0,0,0,36,94.866c0.03-.011.062-0.006,0.092-0.018l28.273-11.5L91.9,94.841a2.264,2.264,0,0,0,2.11-.2,2.22,2.22,0,0,0,1-1.851V19.479A2.221,2.221,0,0,0,93.638,17.431ZM9.469,10.665L33,20.929v68.46L9.469,79.125V10.665ZM90.527,89.448L66.255,79.316,66.6,10.97l23.924,9.984V89.448Z"/>
</svg>
