<svg xmlns="http://www.w3.org/2000/svg" width="100" height="100" viewBox="0 0 100 100">
  <defs>
    <style>
      .cls-1 {
        fill-rule: evenodd;
      }
    </style>
  </defs>
  <path id="모양_3" data-name="모양 3" class="cls-1" d="M70.082,38.749a3.094,3.094,0,1,0-3.138-3.094A3.12,3.12,0,0,0,70.082,38.749ZM86.66,13H13.381a8.319,8.319,0,0,0-8.368,8.25v58.5A8.319,8.319,0,0,0,13.381,88H86.66a8.319,8.319,0,0,0,8.368-8.25V21.25A8.319,8.319,0,0,0,86.66,13ZM70.082,28.062a7.595,7.595,0,1,1-7.7,7.594A7.658,7.658,0,0,1,70.082,28.062ZM90.464,79.75a3.781,3.781,0,0,1-3.8,3.75H13.381a3.781,3.781,0,0,1-3.8-3.75V65.381l22-21.238L56.607,68.113a2.306,2.306,0,0,0,3.153.026l10.76-9.957L90.464,77.565V79.75Z"/>
</svg>
