<svg xmlns="http://www.w3.org/2000/svg" width="100" height="100" viewBox="0 0 100 100">
  <defs>
    <style>
      .cls-1 {
        fill-rule: evenodd;
      }
    </style>
  </defs>
  <path id="모양_3" data-name="모양 3" class="cls-1" d="M86.72,6.02H13.278a8.292,8.292,0,0,0-8.271,8.295V84.693a8.291,8.291,0,0,0,8.271,8.295H86.72a8.291,8.291,0,0,0,8.272-8.294V14.315A8.292,8.292,0,0,0,86.72,6.02ZM26.385,77.085a3.1,3.1,0,0,1-3.1,3.1H19.632a3.1,3.1,0,0,1-3.093-3.1V75a3.1,3.1,0,0,1,3.093-3.1h3.657a3.1,3.1,0,0,1,3.1,3.1v2.087Zm0-17.71a3.1,3.1,0,0,1-3.1,3.1H19.632a3.1,3.1,0,0,1-3.093-3.1V57.288a3.1,3.1,0,0,1,3.093-3.1h3.657a3.1,3.1,0,0,1,3.1,3.1v2.087Zm0-17.71a3.1,3.1,0,0,1-3.1,3.1H19.632a3.1,3.1,0,0,1-3.093-3.1V39.578a3.1,3.1,0,0,1,3.093-3.1h3.657a3.1,3.1,0,0,1,3.1,3.1v2.087Zm0-17.71a3.1,3.1,0,0,1-3.1,3.1H19.632a3.1,3.1,0,0,1-3.093-3.1V21.868a3.1,3.1,0,0,1,3.093-3.1h3.657a3.1,3.1,0,0,1,3.1,3.1v2.087Zm57.2,53.129a3.1,3.1,0,0,1-3.093,3.1H76.836a3.1,3.1,0,0,1-3.1-3.1V75a3.1,3.1,0,0,1,3.1-3.1h3.657A3.1,3.1,0,0,1,83.586,75v2.087Zm0-17.71a3.1,3.1,0,0,1-3.093,3.1H76.836a3.1,3.1,0,0,1-3.1-3.1V57.288a3.1,3.1,0,0,1,3.1-3.1h3.657a3.1,3.1,0,0,1,3.093,3.1v2.087Zm0-17.71a3.1,3.1,0,0,1-3.093,3.1H76.836a3.1,3.1,0,0,1-3.1-3.1V39.578a3.1,3.1,0,0,1,3.1-3.1h3.657a3.1,3.1,0,0,1,3.093,3.1v2.087Zm0-17.71a3.1,3.1,0,0,1-3.093,3.1H76.836a3.1,3.1,0,0,1-3.1-3.1V21.868a3.1,3.1,0,0,1,3.1-3.1h3.657a3.1,3.1,0,0,1,3.093,3.1v2.087Z"/>
</svg>
