<svg xmlns="http://www.w3.org/2000/svg" width="100" height="100" viewBox="0 0 100 100">
  <defs>
    <style>
      .cls-1 {
        fill-rule: evenodd;
      }
    </style>
  </defs>
  <path id="모양_3" data-name="모양 3" class="cls-1" d="M84.564,29.411H14.435a8.373,8.373,0,0,0-8.4,8.322v48.94A8.373,8.373,0,0,0,14.435,95H84.564a8.371,8.371,0,0,0,8.4-8.322V37.733A8.371,8.371,0,0,0,84.564,29.411Zm-69.245-7.7H83.742a2.253,2.253,0,1,0,0-4.506H15.319A2.253,2.253,0,1,0,15.319,21.713Zm5.876-12.2H77.866a2.253,2.253,0,1,0,0-4.506H21.194A2.253,2.253,0,1,0,21.194,9.51Z"/>
</svg>
