<svg xmlns="http://www.w3.org/2000/svg" width="100" height="100" viewBox="0 0 100 100">
  <defs>
    <style>
      .cls-1 {
        fill-rule: evenodd;
      }
    </style>
  </defs>
  <path id="모양_3" data-name="모양 3" class="cls-1" d="M63.049,39.541a2.229,2.229,0,0,0-.493-0.724L40.711,17.494a2.287,2.287,0,0,0-.742-0.481,2.326,2.326,0,0,0-.872-0.172H13.384a8.281,8.281,0,0,0-8.37,8.17V86.845a8.281,8.281,0,0,0,8.37,8.17H54.855a8.281,8.281,0,0,0,8.37-8.17V40.393A2.182,2.182,0,0,0,63.049,39.541ZM47.011,38.165a5.572,5.572,0,0,1-5.631-5.5v-8.22L55.431,38.165H47.011ZM70.9,83.131,38.7,7.962m56.147,19.7a2.225,2.225,0,0,0-.493-0.724L72.511,5.61a2.287,2.287,0,0,0-.742-0.481A2.329,2.329,0,0,0,70.9,4.957H45.184A8.437,8.437,0,0,0,38.7,7.962,2.2,2.2,0,0,0,38.909,11L68.614,38.247V80.9A2.256,2.256,0,0,0,70.9,83.131H86.655a8.281,8.281,0,0,0,8.37-8.17V28.509A2.178,2.178,0,0,0,94.85,27.657ZM78.811,26.281a5.572,5.572,0,0,1-5.631-5.5V12.565L87.232,26.281H78.811Z"/>
</svg>
