<svg xmlns="http://www.w3.org/2000/svg" width="100" height="100" viewBox="0 0 100 100">
  <defs>
    <style>
      .cls-1 {
        fill-rule: evenodd;
      }
    </style>
  </defs>
  <path id="모양_3" data-name="모양 3" class="cls-1" d="M81.827,31.174a2.564,2.564,0,0,0-.55-0.833L56.87,5.8a2.583,2.583,0,0,0-1.8-.752H26.336a9.387,9.387,0,0,0-9.352,9.4V85.614a9.387,9.387,0,0,0,9.352,9.4H72.672a9.387,9.387,0,0,0,9.352-9.4V32.154A2.57,2.57,0,0,0,81.827,31.174ZM63.908,29.59a6.315,6.315,0,0,1-6.29-6.326V13.8l15.7,15.786H63.908Z"/>
</svg>
