<svg xmlns="http://www.w3.org/2000/svg" width="100" height="100" viewBox="0 0 100 100">
  <defs>
    <style>
      .cls-1 {
        fill-rule: evenodd;
      }
    </style>
  </defs>
  <path id="모양_3" data-name="모양 3" class="cls-1" d="M89.587,11.15L83.958,5.4a5.031,5.031,0,0,0-7.012,0l-5.777,5.9a7.835,7.835,0,0,0-1.968-.279H19.007A8.058,8.058,0,0,0,11,19.114v67.8a8.058,8.058,0,0,0,8.007,8.092H69.2a8.058,8.058,0,0,0,8.007-8.092v-56.2L89.587,18.075A4.977,4.977,0,0,0,89.587,11.15Zm-2.644,4.46L57.593,45.575l-10.749,3.4,3.383-11.133L79.589,7.869a1.219,1.219,0,0,1,1.724,0l5.629,5.748A1.452,1.452,0,0,1,86.943,15.61Z"/>
</svg>
