<svg xmlns="http://www.w3.org/2000/svg" width="100" height="100" viewBox="0 0 100 100">
  <defs>
    <style>
      .cls-1 {
        fill-rule: evenodd;
      }
    </style>
  </defs>
  <path id="모양_3" data-name="모양 3" class="cls-1" d="M92.632,18.973L80.981,7.336c-4.524-3.919-9.227-2.026-11.224.135L59.1,18.237,17.2,60.587a2.548,2.548,0,0,0-.542.81L5.228,88.525a2.558,2.558,0,0,0-.182.686,5.584,5.584,0,0,0,1.367,4.362,4.994,4.994,0,0,0,3.748,1.479c0.189,0,.385-0.007.589-0.023a2.589,2.589,0,0,0,.792-0.192L38.68,83.413a2.556,2.556,0,0,0,.81-0.542L81.851,40.978,92.558,30.39C94.786,28.332,96.677,23.631,92.632,18.973Zm-56.4,59.894L10.274,89.792,21.2,63.848,60.995,23.634c1.6,1.7,4.023,4.131,7.658,7.765L76.4,39.141Z"/>
</svg>
