<svg xmlns="http://www.w3.org/2000/svg" width="100" height="100" viewBox="0 0 100 100">
  <defs>
    <style>
      .cls-1 {
        fill-rule: evenodd;
      }
    </style>
  </defs>
  <path id="모양_3" data-name="모양 3" class="cls-1" d="M85.785,21.4H80.392V14.541a2.555,2.555,0,1,0-5.11,0V21.4H61.845V14.541a2.555,2.555,0,1,0-5.11,0V21.4H43.3V14.541a2.555,2.555,0,1,0-5.11,0V21.4H24.751V14.541a2.555,2.555,0,1,0-5.11,0V21.4h-5.4A9.269,9.269,0,0,0,5.02,30.694V78.724a9.269,9.269,0,0,0,9.225,9.292h71.54a9.27,9.27,0,0,0,9.229-9.292V30.694A9.269,9.269,0,0,0,85.785,21.4ZM65.891,49.794L49.144,66.948a2.557,2.557,0,0,1-1.823.769c-0.043,0-.09,0-0.133,0a2.55,2.55,0,0,1-1.866-.968L37.087,56.31a2.587,2.587,0,0,1,.409-3.617,2.544,2.544,0,0,1,3.59.414l6.438,8.158,14.721-15.08a2.541,2.541,0,0,1,3.613-.03A2.585,2.585,0,0,1,65.891,49.794Z"/>
</svg>
