<svg xmlns="http://www.w3.org/2000/svg" width="100" height="100" viewBox="0 0 100 100">
  <defs>
    <style>
      .cls-1 {
        fill-rule: evenodd;
      }
    </style>
  </defs>
  <path id="모양_3" data-name="모양 3" class="cls-1" d="M91.711,36.749a2.3,2.3,0,0,1-2.335-2.271V21.608a3.843,3.843,0,0,0-3.893-3.785H77.677a2.272,2.272,0,1,1,0-4.542h7.806a8.457,8.457,0,0,1,8.564,8.328v12.87A2.3,2.3,0,0,1,91.711,36.749ZM35.463,79.4H47.628V72.205H35.463V79.4Zm0-11.734H47.628V59.524H35.463v8.138Zm-14.986,0H30.792V59.524H20.477v8.138Zm0-18.548v5.867H30.792V46.844h-7.98A2.307,2.307,0,0,0,20.477,49.115Zm14.986,5.867H47.628V46.844H35.463v8.138ZM20.477,77.126A2.307,2.307,0,0,0,22.813,79.4h7.98V72.205H20.477v4.921ZM52.3,54.982H64.463V46.844H52.3v8.138Zm26.372-8.138H69.134v8.138H81.007V49.115A2.307,2.307,0,0,0,78.671,46.844ZM52.3,79.4H64.463V72.205H52.3V79.4ZM69.134,67.663H81.007V59.524H69.134v8.138ZM91.711,32.207H9.705v-10.6A3.844,3.844,0,0,1,13.6,17.823h7.871V17.95a6.491,6.491,0,0,0,12.976,0V17.823H67.039V17.95a6.489,6.489,0,0,0,12.973,0V11.262a6.489,6.489,0,0,0-12.973,0V13.28H34.445V11.262a6.491,6.491,0,0,0-12.976,0V13.28H13.6a8.457,8.457,0,0,0-8.564,8.328v64.1A8.458,8.458,0,0,0,13.6,94.034H85.483a8.458,8.458,0,0,0,8.564-8.328V34.478A2.3,2.3,0,0,0,91.711,32.207Zm-20-20.945a1.816,1.816,0,0,1,3.631,0V17.95a1.816,1.816,0,0,1-3.631,0V11.262Zm-45.571,0a1.818,1.818,0,0,1,3.634,0V17.95a1.818,1.818,0,0,1-3.634,0V11.262ZM85.678,77.126a6.921,6.921,0,0,1-7.007,6.814H22.813a6.921,6.921,0,0,1-7.007-6.814V49.115A6.921,6.921,0,0,1,22.813,42.3H78.671a6.921,6.921,0,0,1,7.007,6.814V77.126ZM69.134,79.4h9.537a2.307,2.307,0,0,0,2.335-2.271V72.205H69.134V79.4ZM52.3,67.663H64.463V59.524H52.3v8.138Z"/>
</svg>
