<svg xmlns="http://www.w3.org/2000/svg" width="100" height="100" viewBox="0 0 100 100">
  <defs>
    <style>
      .cls-1 {
        fill-rule: evenodd;
      }
    </style>
  </defs>
  <path id="모양_3" data-name="모양 3" class="cls-1" d="M52.417,88.989A60.3,60.3,0,0,0,63.92,73.5a46.892,46.892,0,0,0-11.5-1.778v17.27Zm0-79.07V28.182a39.9,39.9,0,0,0,12.416-2.731A38.958,38.958,0,0,0,52.417,9.919Zm14.2,20.012a44.788,44.788,0,0,1-14.2,3.038v14.6H69.643A60.073,60.073,0,0,0,66.619,29.932ZM78.492,16.437c0.048-.056.115-0.079,0.166-0.129a43.841,43.841,0,0,0-23.5-10.291,43.739,43.739,0,0,1,14.02,17.412A36.238,36.238,0,0,0,78.492,16.437ZM74.373,52.353a55.811,55.811,0,0,1-3.949,18.5c7.4,3.413,10.744,7.971,11.68,9.448a44.106,44.106,0,0,0,11.94-27.952H74.373Zm-48.7-4.785A65.244,65.244,0,0,1,28.834,28.7c-6.86-3.368-9.982-7.656-10.879-9.078A44.1,44.1,0,0,0,6.016,47.568H25.673Zm4.259,24A55.831,55.831,0,0,1,25.69,52.353H6.016a44.107,44.107,0,0,0,11.965,27.98A40.839,40.839,0,0,1,29.932,71.567Zm39.7-19.214H52.417V66.939a50.969,50.969,0,0,1,13.522,2.188A50.751,50.751,0,0,0,69.629,52.353ZM31.954,75.929a36.739,36.739,0,0,0-10.383,7.552c-0.048.057-.117,0.081-0.169,0.132A43.835,43.835,0,0,0,46.02,94.024,63.641,63.641,0,0,1,31.954,75.929Zm46.24,7.123c-0.154-.281-2.662-4.617-9.713-7.861A63.557,63.557,0,0,1,54.041,94.023,43.834,43.834,0,0,0,78.7,83.577,2.248,2.248,0,0,1,78.194,83.052ZM21.866,16.87c0.147,0.266,2.437,4.177,8.691,7.348a44.04,44.04,0,0,1,14.375-18.2A43.843,43.843,0,0,0,21.4,16.308,2.344,2.344,0,0,1,21.866,16.87ZM70.993,27.924a64.958,64.958,0,0,1,3.4,19.644H94.045A44.107,44.107,0,0,0,82.08,19.589,40.178,40.178,0,0,1,70.993,27.924ZM47.646,52.353H30.464a50.837,50.837,0,0,0,3.894,17.3,44.771,44.771,0,0,1,13.288-2.7v-14.6Zm0,36.638V71.739a39.9,39.9,0,0,0-11.238,2.283A59.853,59.853,0,0,0,47.646,88.991Zm0-79.063a38.945,38.945,0,0,0-12.7,16.11,45.537,45.537,0,0,0,12.7,2.164V9.928Zm0,23.055A50,50,0,0,1,33.261,30.5a60.673,60.673,0,0,0-2.819,17.071h17.2V32.982Z"/>
</svg>
