<svg xmlns="http://www.w3.org/2000/svg" width="100" height="100" viewBox="0 0 100 100">
  <defs>
    <style>
      .cls-1 {
        fill-rule: evenodd;
      }
    </style>
  </defs>
  <path id="모양_3" data-name="모양 3" class="cls-1" d="M50,4.978A45.025,45.025,0,1,0,95.027,50,45.075,45.075,0,0,0,50,4.978ZM49.918,54.024a3.913,3.913,0,0,1-.82-0.166L36.534,65.666A2.309,2.309,0,1,1,33.371,62.3L45.929,50.5a3.834,3.834,0,0,1-.118-0.581,4.034,4.034,0,0,1,1.8-3.3V21.782a2.309,2.309,0,1,1,4.618,0V46.617a4.034,4.034,0,0,1,1.795,3.3A4.109,4.109,0,0,1,49.918,54.024Z"/>
</svg>
