<svg xmlns="http://www.w3.org/2000/svg" width="100" height="100" viewBox="0 0 100 100">
  <defs>
    <style>
      .cls-1 {
        fill-rule: evenodd;
      }
    </style>
  </defs>
  <path id="모양_3" data-name="모양 3" class="cls-1" d="M24.6,9.136a2.148,2.148,0,0,0,.993-2.913,2.233,2.233,0,0,0-2.973-.973A37.238,37.238,0,0,0,5.269,22.818,2.151,2.151,0,0,0,6.36,25.7a2.248,2.248,0,0,0,.924.2A2.217,2.217,0,0,0,9.3,24.628,32.844,32.844,0,0,1,24.6,9.136ZM22.04,82.369l-9.13,8.944a2.14,2.14,0,0,0,0,3.071,2.249,2.249,0,0,0,3.135,0l9.13-8.944a2.14,2.14,0,0,0,0-3.071A2.249,2.249,0,0,0,22.04,82.369Zm72.685-59.55A37.238,37.238,0,0,0,77.376,5.251a2.241,2.241,0,0,0-2.973.973A2.148,2.148,0,0,0,75.4,9.136a32.843,32.843,0,0,1,15.3,15.492,2.217,2.217,0,0,0,2.015,1.267,2.248,2.248,0,0,0,.924-0.2A2.151,2.151,0,0,0,94.724,22.818ZM77.953,82.369a2.249,2.249,0,0,0-3.135,0,2.14,2.14,0,0,0,0,3.071l9.13,8.944a2.249,2.249,0,0,0,3.135,0,2.14,2.14,0,0,0,0-3.071ZM49.878,10.585c-20.659,0-37.465,16.464-37.465,36.7s16.806,36.7,37.465,36.7,37.466-16.464,37.466-36.7S70.538,10.585,49.878,10.585ZM65.928,51.152H49.878a2.2,2.2,0,0,1-2.217-2.172V24.7a2.217,2.217,0,0,1,4.434,0V46.809H65.928A2.172,2.172,0,1,1,65.928,51.152Z"/>
</svg>
