<svg xmlns="http://www.w3.org/2000/svg" width="100" height="100" viewBox="0 0 100 100">
  <defs>
    <style>
      .cls-1 {
        fill-rule: evenodd;
      }
    </style>
  </defs>
  <path id="모양_3" data-name="모양 3" class="cls-1" d="M93.759,78.145L86.25,73.326a9.714,9.714,0,0,0,3.777-7.673V26.762a9.677,9.677,0,0,0-9.608-9.723H19.572a9.677,9.677,0,0,0-9.607,9.723V65.653a9.714,9.714,0,0,0,3.777,7.673L6.233,78.145A2.664,2.664,0,0,0,5.12,81.122a2.623,2.623,0,0,0,2.516,1.913h84.72a2.624,2.624,0,0,0,2.516-1.913A2.663,2.663,0,0,0,93.759,78.145Zm-77.1-.413,3.672-2.356H79.66l3.671,2.356H16.661Z"/>
</svg>
