<svg xmlns="http://www.w3.org/2000/svg" width="100" height="100" viewBox="0 0 100 100">
  <defs>
    <style>
      .cls-1 {
        fill-rule: evenodd;
      }
    </style>
  </defs>
  <path id="모양_3" data-name="모양 3" class="cls-1" d="M75.311,4.981H25.682a9.589,9.589,0,0,0-9.676,9.477V85.535a9.589,9.589,0,0,0,9.676,9.477H75.311a9.589,9.589,0,0,0,9.676-9.477V14.458A9.589,9.589,0,0,0,75.311,4.981ZM60.5,83.524H40.49a2.585,2.585,0,1,1,0-5.169H60.5A2.585,2.585,0,1,1,60.5,83.524ZM67.54,18.909H33.453a2.585,2.585,0,1,1,0-5.169H67.54A2.585,2.585,0,1,1,67.54,18.909Z"/>
</svg>
