<svg xmlns="http://www.w3.org/2000/svg" width="100" height="100" viewBox="0 0 100 100">
  <defs>
    <style>
      .cls-1 {
        fill-rule: evenodd;
      }
    </style>
  </defs>
  <path id="모양_3" data-name="모양 3" class="cls-1" d="M5.2,27.2l44.794,35.66L94.38,27.606a2.044,2.044,0,0,1,.633-0.323V26.766a7.726,7.726,0,0,0-7.678-7.757H12.65a7.726,7.726,0,0,0-7.678,7.757v0.316A1.96,1.96,0,0,1,5.2,27.2ZM51.286,67.215a2.076,2.076,0,0,1-2.59,0L4.972,32.4V72.251a7.726,7.726,0,0,0,7.678,7.757H87.335a7.726,7.726,0,0,0,7.678-7.757V32.486Z"/>
</svg>
