<svg xmlns="http://www.w3.org/2000/svg" width="100" height="100" viewBox="0 0 100 100">
  <defs>
    <style>
      .cls-1 {
        fill-rule: evenodd;
      }
    </style>
  </defs>
  <path id="모양_3" data-name="모양 3" class="cls-1" d="M87.991,37.709l1.032,0.831m-63.4,18.553V29.619H25.618V21.13H75.449V57.159L93.9,42.224a7.712,7.712,0,0,0-3.347-5.676L80.4,28.372V18.6a2.5,2.5,0,0,0-2.477-2.526H65.136L52.067,5.549a2.435,2.435,0,0,0-3.071,0L35.938,16.077H23.14A2.5,2.5,0,0,0,20.663,18.6V28.4c-2.447,1.973-8.9,7.175-9.855,7.943a7.981,7.981,0,0,0-3.631,5.771ZM52.07,82.528a2.437,2.437,0,0,1-3.081,0L7.043,48.461V87.008a7.9,7.9,0,0,0,7.813,7.967H86.2a7.9,7.9,0,0,0,7.813-7.967V48.58Z"/>
</svg>
