<svg xmlns="http://www.w3.org/2000/svg" width="100" height="100" viewBox="0 0 100 100">
  <defs>
    <style>
      .cls-1 {
        fill-rule: evenodd;
      }
    </style>
  </defs>
  <path id="모양_3" data-name="모양 3" class="cls-1" d="M49.993,35.291a14.7,14.7,0,1,0,14.654,14.7A14.69,14.69,0,0,0,49.993,35.291Zm37.593,7.657a8.182,8.182,0,0,1-6.925-5.484,8.26,8.26,0,0,1,1.122-8.454,7.505,7.505,0,0,0,0-10.6,7.719,7.719,0,0,0-10.434-.121,9.208,9.208,0,0,1-9.4,1.262,9.439,9.439,0,0,1-5.386-7.467,7.472,7.472,0,0,0-14.933.44,7.656,7.656,0,0,1-4.2,6.658c-6.1,2.854-9.4-.232-9.537-0.358a7.639,7.639,0,0,0-10.564,0,7.46,7.46,0,0,0-2.19,5.3,7.311,7.311,0,0,0,2.06,5.158,9.476,9.476,0,0,1,1.758,8.442c-1.159,3.7-6.079,3.41-6.474,3.386a7.493,7.493,0,0,0,0,14.987,2.591,2.591,0,0,0,.49-0.046,2.625,2.625,0,0,0,.367.044,6.459,6.459,0,0,1,5.641,4.585,9.267,9.267,0,0,1-2.1,9.641A7.482,7.482,0,0,0,27.162,81.187c1.057-.578,6.086-3.078,10.064-1.137a11.607,11.607,0,0,1,6.531,7.668A7.472,7.472,0,0,0,58.7,87.483c0-.212.122-5.211,4.291-7.352,5.046-2.6,8.313.428,8.68,0.79a7.481,7.481,0,1,0,10.52-10.64,7.827,7.827,0,0,1-1.415-8.657c1.952-4.367,5.484-3.888,6.147-3.756a2.582,2.582,0,0,0,.585.066A7.493,7.493,0,0,0,87.586,42.949ZM49.993,69.92A19.934,19.934,0,1,1,69.869,49.988,19.925,19.925,0,0,1,49.993,69.92Z"/>
</svg>
