<svg xmlns="http://www.w3.org/2000/svg" width="100" height="100" viewBox="0 0 100 100">
  <defs>
    <style>
      .cls-1 {
        fill-rule: evenodd;
      }
    </style>
  </defs>
  <path id="모양_3" data-name="모양 3" class="cls-1" d="M80.984,67.186a13.934,13.934,0,0,0-10.876,5.272L32.443,53.476a12.38,12.38,0,0,0,.016-7.192L70.075,27.5A13.811,13.811,0,1,0,67,18.905a13.676,13.676,0,0,0,.526,3.572L29.91,41.259a13.908,13.908,0,1,0-.033,17.228L67.541,77.471A13.67,13.67,0,0,0,67,81.093,13.987,13.987,0,1,0,80.984,67.186Z"/>
</svg>
