<svg xmlns="http://www.w3.org/2000/svg" width="100" height="100" viewBox="0 0 100 100">
  <defs>
    <style>
      .cls-1 {
        fill-rule: evenodd;
      }
    </style>
  </defs>
  <path id="모양_3" data-name="모양 3" class="cls-1" d="M94.656,9.157A6.909,6.909,0,0,0,90.59,5.185a2.63,2.63,0,0,0-.852-0.142H11.261a2.63,2.63,0,0,0-.852.142A6.908,6.908,0,0,0,6.343,9.157c-0.771,2.157-.318,4.583,1.345,7.21C11.1,21.76,35.753,49.816,40.174,54.834v37.62a2.559,2.559,0,0,0,1.487,2.317,2.624,2.624,0,0,0,2.758-.339l14.892-12.1a2.554,2.554,0,0,0,.946-1.979V54.986c4.509-5.043,29.636-33.219,33.053-38.618C94.974,13.74,95.427,11.314,94.656,9.157Z"/>
</svg>
