<svg xmlns="http://www.w3.org/2000/svg" width="100" height="100" viewBox="0 0 100 100">
  <defs>
    <style>
      .cls-1 {
        fill-rule: evenodd;
      }
    </style>
  </defs>
  <path id="모양_3" data-name="모양 3" class="cls-1" d="M86.65,11.012H13.386a8.255,8.255,0,0,0-8.373,8.113V63.2a8.255,8.255,0,0,0,8.373,8.113h7.992V86.8a2.214,2.214,0,0,0,1.4,2.041,2.344,2.344,0,0,0,2.485-.464L43.151,71.309h43.5A8.255,8.255,0,0,0,95.023,63.2V19.125A8.255,8.255,0,0,0,86.65,11.012ZM59.5,53.914H22.837a2.214,2.214,0,1,1,0-4.425H59.5A2.214,2.214,0,1,1,59.5,53.914ZM78.023,42.85H22.837a2.214,2.214,0,1,1,0-4.425H78.023A2.214,2.214,0,1,1,78.023,42.85Zm0-11.064H22.837a2.214,2.214,0,1,1,0-4.425H78.023A2.214,2.214,0,1,1,78.023,31.787Z"/>
</svg>
