<svg xmlns="http://www.w3.org/2000/svg" width="100" height="100" viewBox="0 0 100 100">
  <defs>
    <style>
      .cls-1 {
        fill-rule: evenodd;
      }
    </style>
  </defs>
  <path id="모양_3" data-name="모양 3" class="cls-1" d="M77.921,36.509c0-15.7-16.357-28.478-36.461-28.478S5,20.806,5,36.509c0,9.259,5.658,17.822,15.218,23.165a18.427,18.427,0,0,1-6.9,12.043,2.225,2.225,0,0,0-.934,2.368,2.263,2.263,0,0,0,1.913,1.7,5.893,5.893,0,0,0,.711.035c2.318,0,9.971-.889,19.507-11.351a46.9,46.9,0,0,0,6.952.516C61.565,64.989,77.921,52.213,77.921,36.509Zm16.89,23.853c1.14-8.941-4.5-16.942-8.856-17.972a3.477,3.477,0,0,0-4.268,2.17C72.9,68.593,46.411,68.118,45.292,68.1A2.262,2.262,0,0,0,43.2,69.328a2.215,2.215,0,0,0,.244,2.393c5.118,6.392,13.929,10.209,23.567,10.209a35.657,35.657,0,0,0,4.975-.347c7.091,7.686,12.746,8.451,14.718,8.451A5.89,5.89,0,0,0,87.386,90a2.262,2.262,0,0,0,1.913-1.7,2.225,2.225,0,0,0-.934-2.368,13.17,13.17,0,0,1-4.852-8.244A22.916,22.916,0,0,0,94.811,60.362Z"/>
</svg>
