<svg xmlns="http://www.w3.org/2000/svg" width="100" height="100" viewBox="0 0 100 100">
  <defs>
    <style>
      .cls-1 {
        fill-rule: evenodd;
      }
    </style>
  </defs>
  <path id="모양_3" data-name="모양 3" class="cls-1" d="M85.875,77.9a2.547,2.547,0,0,0-.517-1.04c-0.246-.294-6.028-7.234-7.915-9.152a13.705,13.705,0,0,1-2.306-4.34V39.414A25.426,25.426,0,0,0,59.93,16.128c0.034-.341.089-0.678,0.089-1.024a9.924,9.924,0,1,0-19.845,0c0,0.3.047,0.588,0.072,0.882a25.492,25.492,0,0,0-15.4,23.483V63.422a13.729,13.729,0,0,1-2.3,4.342c-1.887,1.918-7.669,8.86-7.915,9.154a2.546,2.546,0,0,0-.517,1.04A6.732,6.732,0,0,0,15.192,83.3c0.837,1.076,2.494,2.359,5.638,2.359l17.677-.016a11.6,11.6,0,0,0,22.764-.021l17.879-.017c3.144,0,4.8-1.284,5.638-2.36A6.73,6.73,0,0,0,85.875,77.9ZM49.885,89.965a6.71,6.71,0,0,1-6.221-4.306h6.221c0.046,0,.085-0.024.131-0.027l6.1-.006A6.71,6.71,0,0,1,49.885,89.965Z"/>
</svg>
