<svg xmlns="http://www.w3.org/2000/svg" width="100" height="100" viewBox="0 0 100 100">
  <defs>
    <style>
      .cls-1 {
        fill-rule: evenodd;
      }
    </style>
  </defs>
  <path id="모양_3" data-name="모양 3" class="cls-1" d="M94.346,40.768l-35.16-35.1a2.209,2.209,0,0,0-3.767,1.423C55.33,8.553,54.6,20.613,55.092,25.8L41.148,39.723c-3.827-1.085-15.157-3.74-25.912-.732a2.2,2.2,0,0,0-.966,3.682L34.245,62.619,5.617,91.2A2.206,2.206,0,0,0,8.74,94.323L37.368,65.737,57.343,85.682a2.208,2.208,0,0,0,3.77-1.565c2.772-10.575.187-21.578-.88-25.336L74.177,44.858c5.2,0.478,17.276-.24,18.746-0.33A2.2,2.2,0,0,0,94.346,40.768Z"/>
</svg>
