<svg xmlns="http://www.w3.org/2000/svg" width="100" height="100" viewBox="0 0 100 100">
  <defs>
    <style>
      .cls-1 {
        fill-rule: evenodd;
      }
    </style>
  </defs>
  <path id="모양_3" data-name="모양 3" class="cls-1" d="M49.741,24.274A13.659,13.659,0,1,0,63.531,37.933,13.738,13.738,0,0,0,49.741,24.274ZM49.5,5a33.372,33.372,0,0,0-33.49,33.176c0,20.057,23.855,51.454,25,52.941A12.469,12.469,0,0,0,49.321,95c0.092,0,.184,0,0.272,0a11.691,11.691,0,0,0,8.3-3.8,2.21,2.21,0,0,0,.226-0.257c1.014-1.326,24.869-32.723,24.869-52.78A33.372,33.372,0,0,0,49.5,5Zm0.243,51.586A18.651,18.651,0,1,1,68.57,37.933,18.762,18.762,0,0,1,49.741,56.583Z"/>
</svg>
