<svg xmlns="http://www.w3.org/2000/svg" width="100" height="100" viewBox="0 0 100 100">
  <defs>
    <style>
      .cls-1 {
        fill-rule: evenodd;
      }
    </style>
  </defs>
  <path id="모양_3" data-name="모양 3" class="cls-1" d="M84.038,46.677c-12.449-12.6-31.483-13.031-38.276-12.742V14.346a2.28,2.28,0,0,0-1.336-2.078,2.254,2.254,0,0,0-2.431.372L5.734,44.915a2.285,2.285,0,0,0,0,3.412L41.994,80.6a2.256,2.256,0,0,0,2.432.372A2.28,2.28,0,0,0,45.762,78.9V58.784c30.432-5.134,43.8,26.44,44.364,27.815a2.268,2.268,0,0,0,2.095,1.409,2.169,2.169,0,0,0,.31-0.021A2.274,2.274,0,0,0,94.473,86C96.45,68.914,92.941,55.687,84.038,46.677Z"/>
</svg>
