<svg xmlns="http://www.w3.org/2000/svg" width="100" height="100" viewBox="0 0 100 100">
  <defs>
    <style>
      .cls-1 {
        fill-rule: evenodd;
      }
    </style>
  </defs>
  <path id="모양_3" data-name="모양 3" class="cls-1" d="M94.245,43.861L58.023,11.545a2.248,2.248,0,0,0-2.429-.373,2.283,2.283,0,0,0-1.335,2.081V32.869c-6.786-.287-25.8.143-38.235,12.757C7.13,54.646,3.625,67.89,5.6,84.993a2.274,2.274,0,0,0,1.94,1.994,2.163,2.163,0,0,0,.31.021A2.266,2.266,0,0,0,9.942,85.6c0.564-1.375,13.911-32.992,44.317-27.85V77.885a2.283,2.283,0,0,0,1.335,2.08,2.249,2.249,0,0,0,2.429-.373L94.245,47.277A2.292,2.292,0,0,0,94.245,43.861Z"/>
</svg>
