<svg xmlns="http://www.w3.org/2000/svg" width="100" height="100" viewBox="0 0 100 100">
  <defs>
    <style>
      .cls-1 {
        fill-rule: evenodd;
      }
    </style>
  </defs>
  <path id="모양_3" data-name="모양 3" class="cls-1" d="M85.4,18.96H14.591a9.5,9.5,0,0,0-9.576,9.394v43.27a9.5,9.5,0,0,0,9.576,9.394H85.4a9.5,9.5,0,0,0,9.576-9.394V28.353A9.5,9.5,0,0,0,85.4,18.96ZM58.73,65.458a13.453,13.453,0,0,1-4.492,1.356v3.1a2.612,2.612,0,0,1-5.223,0V66.7a18.278,18.278,0,0,1-8.467-3.8,2.527,2.527,0,0,1-.32-3.61,2.642,2.642,0,0,1,3.679-.314c3.863,3.184,9.423,3.495,12.368,1.957a3.482,3.482,0,0,0,2.108-3.731c-0.2-1.868-2.738-2.729-6.889-3.925-5.023-1.448-11.906-3.429-11.878-10.825,0.014-4.283,3.22-7.828,8.165-9.032,0.4-.1.819-0.145,1.234-0.209V29.778a2.612,2.612,0,0,1,5.223,0V33.31a12.911,12.911,0,0,1,9.093,6.5,2.538,2.538,0,0,1-1.078,3.466,2.636,2.636,0,0,1-3.533-1.054c-2.037-3.746-6.434-4.605-9.681-3.823-0.983.239-4.19,1.239-4.2,4.077-0.01,3.2,2.594,4.3,8.127,5.891,4.465,1.284,10.021,2.885,10.613,8.293A8.54,8.54,0,0,1,58.73,65.458Z"/>
</svg>
