<svg xmlns="http://www.w3.org/2000/svg" width="100" height="100" viewBox="0 0 100 100">
  <defs>
    <style>
      .cls-1 {
        fill-rule: evenodd;
      }
    </style>
  </defs>
  <path id="모양_3" data-name="모양 3" class="cls-1" d="M76.929,21.3H62.964l0-6.668C62.746,11.3,59.651,5.007,49.495,5.007s-13.252,6.3-13.473,9.775V21.3H22.059a8.188,8.188,0,0,0-8.084,8.272V86.72a8.188,8.188,0,0,0,8.084,8.272h54.87a8.188,8.188,0,0,0,8.084-8.272V29.572A8.188,8.188,0,0,0,76.929,21.3Zm-36.5-6.368c0-.053.452-5.413,9.068-5.413,8.309,0,9.017,4.891,9.063,5.264V21.3H40.428Z"/>
</svg>
