<svg xmlns="http://www.w3.org/2000/svg" width="100" height="100" viewBox="0 0 100 100">
  <defs>
    <style>
      .cls-1 {
        fill-rule: evenodd;
      }
    </style>
  </defs>
  <path id="모양_3" data-name="모양 3" class="cls-1" d="M92.964,85.188l-9.239-44a8.393,8.393,0,0,0-8.389-8.116h-8.4L66.928,17.61C66.457,13.25,62.319,5.019,50.044,4.981c-0.006,0-.011,0-0.017,0H49.963c-0.006,0-.011,0-0.017,0-12.275.038-16.413,8.269-16.9,12.873V33.076H24.654a8.393,8.393,0,0,0-8.389,8.116l-9.24,44a2.2,2.2,0,0,0-.049.467,8.392,8.392,0,0,0,8.394,8.372h69.25a8.392,8.392,0,0,0,8.394-8.372A2.2,2.2,0,0,0,92.964,85.188ZM37.613,18.1C37.651,17.75,38.669,9.562,50,9.546c11,0.016,12.274,7.693,12.368,8.308V33.076H37.619Z"/>
</svg>
