<svg xmlns="http://www.w3.org/2000/svg" width="100" height="100" viewBox="0 0 100 100">
  <defs>
    <style>
      .cls-1 {
        fill-rule: evenodd;
      }
    </style>
  </defs>
  <path id="모양_3" data-name="모양 3" class="cls-1" d="M79.486,37.726A9.074,9.074,0,0,0,70.481,28.6H66.53l-0.757-9.777a2.64,2.64,0,0,0-.046-0.331C64.732,13.823,60.266,4.988,50.479,4.988S36.226,13.823,35.232,18.494a2.64,2.64,0,0,0-.047.331L34.429,28.6H30.478a9.007,9.007,0,0,0-8.994,8.887L16.961,85.9a9.075,9.075,0,0,0,9.006,9.123H74.991a9.114,9.114,0,0,0,8.994-9.36ZM40.067,19.408c0.294-1.173,2.651-9.443,10.411-9.443,7.79,0,10.111,8.216,10.413,9.441L61.6,28.6H39.355Z"/>
</svg>
