<svg xmlns="http://www.w3.org/2000/svg" width="100" height="100" viewBox="0 0 100 100">
  <defs>
    <style>
      .cls-1 {
        fill-rule: evenodd;
      }
    </style>
  </defs>
  <path id="모양_3" data-name="모양 3" class="cls-1" d="M85.7,5.247L55.49,4.993a2.586,2.586,0,0,0-1.628.672L8.356,51.541a8.474,8.474,0,0,0,0,11.9L36.245,91.555a8.309,8.309,0,0,0,11.8,0l44.922-45.29a2.3,2.3,0,0,0,1.059-1.939V13.659A8.383,8.383,0,0,0,85.7,5.247ZM61.594,61.257a2.261,2.261,0,0,1-3.218,0l-17.95-18.1a2.307,2.307,0,0,1,0-3.244,2.262,2.262,0,0,1,3.218,0l17.95,18.1A2.306,2.306,0,0,1,61.594,61.257ZM70.57,52.21a2.261,2.261,0,0,1-3.218,0L49.4,34.111a2.307,2.307,0,0,1,0-3.244,2.262,2.262,0,0,1,3.218,0l17.95,18.1A2.306,2.306,0,0,1,70.57,52.21ZM83.2,28.038a8.51,8.51,0,0,1-15.749-.768,8.608,8.608,0,0,1,.314-6.578A8.506,8.506,0,0,1,72.6,16.267a8.42,8.42,0,0,1,6.526.317A8.638,8.638,0,0,1,83.2,28.038Zm-6.018-7.3a3.967,3.967,0,0,0-5.3,1.918,4.015,4.015,0,0,0-.147,3.068,3.974,3.974,0,0,0,7.351.358,4.014,4.014,0,0,0,.146-3.071A3.964,3.964,0,0,0,77.186,20.735Z"/>
</svg>
