<svg xmlns="http://www.w3.org/2000/svg" width="100" height="100" viewBox="0 0 100 100">
  <defs>
    <style>
      .cls-1 {
        fill-rule: evenodd;
      }
    </style>
  </defs>
  <path id="모양_3" data-name="모양 3" class="cls-1" d="M76.993,20.912a4.012,4.012,0,0,0-5.361,1.939,4.053,4.053,0,0,0-.148,3.1,4.012,4.012,0,0,0,2.071,2.3,3.907,3.907,0,0,0,3.082.151,4.011,4.011,0,0,0,2.282-2.087,4.058,4.058,0,0,0,.148-3.1A4.014,4.014,0,0,0,76.993,20.912ZM85.608,5.25L55.051,4.993a2.4,2.4,0,0,0-1.647.68L7.383,52.064a8.569,8.569,0,0,0,0,12.031L35.589,92.528a8.4,8.4,0,0,0,11.933,0l45.433-45.8a2.321,2.321,0,0,0,1.071-1.96V13.756A8.478,8.478,0,0,0,85.608,5.25ZM83.08,28.3a8.608,8.608,0,0,1-15.929-.776,8.7,8.7,0,0,1,.319-6.651,8.6,8.6,0,0,1,4.89-4.476,8.514,8.514,0,0,1,6.6.32A8.737,8.737,0,0,1,83.08,28.3Z"/>
</svg>
