<svg xmlns="http://www.w3.org/2000/svg" width="100" height="100" viewBox="0 0 100 100">
  <defs>
    <style>
      .cls-1 {
        fill-rule: evenodd;
      }
    </style>
  </defs>
  <path id="모양_3" data-name="모양 3" class="cls-1" d="M92.389,28.227l-2.378-2.378a2.407,2.407,0,0,0-3.407,0,9.089,9.089,0,0,1-12.565,0,8.9,8.9,0,0,1,0-12.583,2.414,2.414,0,0,0,0-3.411L71.661,7.477a9.061,9.061,0,0,0-12.493,0L7.54,59.166a8.868,8.868,0,0,0,0,12.508l2.378,2.381a2.481,2.481,0,0,0,3.407,0,9.091,9.091,0,0,1,12.564,0,8.9,8.9,0,0,1,0,12.58,2.413,2.413,0,0,0,0,3.411l2.378,2.381a8.842,8.842,0,0,0,12.5,0L92.389,40.738A8.87,8.87,0,0,0,92.389,28.227Zm-32.418.4a2.407,2.407,0,0,1-3.407,0l-1.277-1.279a2.411,2.411,0,0,1,3.407-3.411l1.277,1.278A2.414,2.414,0,0,1,59.972,28.629Zm7.987,8a2.407,2.407,0,0,1-3.407,0l-1.277-1.278a2.411,2.411,0,0,1,3.407-3.411l1.277,1.279A2.413,2.413,0,0,1,67.959,36.626Zm7.991,7.991a2.407,2.407,0,0,1-3.407.006l-1.28-1.278a2.411,2.411,0,0,1,3.4-3.417l1.28,1.278A2.413,2.413,0,0,1,75.95,44.617Z"/>
</svg>
