<svg xmlns="http://www.w3.org/2000/svg" width="100" height="100" viewBox="0 0 100 100">
  <defs>
    <style>
      .cls-1 {
        fill-rule: evenodd;
      }
    </style>
  </defs>
  <path id="모양_3" data-name="모양 3" class="cls-1" d="M82.395,65.813a2.407,2.407,0,0,0-3.407,0l-5.17,5.176-5.17-5.176a2.41,2.41,0,0,0-3.407,3.411L70.41,74.4l-5.154,5.16a2.41,2.41,0,1,0,3.407,3.411l5.154-5.16,5.154,5.16a2.41,2.41,0,0,0,3.407-3.411L77.224,74.4l5.17-5.176A2.413,2.413,0,0,0,82.395,65.813ZM79.067,54.078l13.32-13.335a8.863,8.863,0,0,0,0-12.509l-2.378-2.378a2.406,2.406,0,0,0-3.407,0,9.09,9.09,0,0,1-12.565,0,8.917,8.917,0,0,1,0-12.582,2.413,2.413,0,0,0,0-3.411L71.662,7.486a8.842,8.842,0,0,0-12.5,0L7.541,59.17a8.864,8.864,0,0,0,0,12.506l2.378,2.381a2.478,2.478,0,0,0,3.407,0,9.09,9.09,0,0,1,12.564,0,8.9,8.9,0,0,1,0,12.579,2.413,2.413,0,0,0,0,3.411l2.378,2.381a8.838,8.838,0,0,0,12.492,0L53.535,79.638A20.811,20.811,0,1,0,79.067,54.078ZM71.261,39.936a2.406,2.406,0,0,1,3.407,0l1.277,1.278a2.411,2.411,0,1,1-3.407,3.411l-1.277-1.278A2.413,2.413,0,0,1,71.261,39.936Zm-7.988-7.993a2.407,2.407,0,0,1,3.407,0l1.277,1.278a2.41,2.41,0,1,1-3.407,3.411l-1.277-1.278A2.414,2.414,0,0,1,63.273,31.943Zm-7.984-4.582a2.41,2.41,0,0,1,3.4-3.417l1.28,1.278a2.41,2.41,0,1,1-3.4,3.417ZM73.6,90.185a16.028,16.028,0,0,1-16-16.018,16.556,16.556,0,0,1,16-16.018A16.018,16.018,0,0,1,73.6,90.185Z"/>
</svg>
