<svg xmlns="http://www.w3.org/2000/svg" width="100" height="100" viewBox="0 0 100 100">
  <defs>
    <style>
      .cls-1 {
        fill-rule: evenodd;
      }
    </style>
  </defs>
  <path id="모양_3" data-name="모양 3" class="cls-1" d="M76.235,71.473V64.31a2.409,2.409,0,0,0-4.816,0v7.163H64.135a2.362,2.362,0,1,0,0,4.722h7.284v7.142a2.409,2.409,0,0,0,4.816,0V76.2h7.306a2.362,2.362,0,1,0,0-4.722H76.235ZM79.08,53.946L92.394,40.892a8.555,8.555,0,0,0,0-12.245L90.017,26.32a2.441,2.441,0,0,0-3.405,0,9.224,9.224,0,0,1-12.558,0,8.586,8.586,0,0,1,0-12.316,2.328,2.328,0,0,0,0-3.339L71.676,8.337a9.183,9.183,0,0,0-12.486,0L7.585,58.93a8.552,8.552,0,0,0,0,12.242L9.962,73.5a2.515,2.515,0,0,0,3.405,0,9.224,9.224,0,0,1,12.559,0,8.583,8.583,0,0,1,0,12.313,2.328,2.328,0,0,0,0,3.339l2.377,2.33a8.975,8.975,0,0,0,12.486,0L53.558,78.968A20.848,20.848,0,0,0,94.425,73.61,20.492,20.492,0,0,0,79.08,53.946ZM71.274,40.1a2.442,2.442,0,0,1,3.406,0l1.276,1.251a2.328,2.328,0,0,1,0,3.339,2.442,2.442,0,0,1-3.405,0l-1.276-1.251A2.328,2.328,0,0,1,71.274,40.1Zm-7.987-7.821a2.441,2.441,0,0,1,3.405-.006l1.279,1.251a2.328,2.328,0,0,1,.006,3.339,2.442,2.442,0,0,1-3.406.006L63.294,35.62A2.328,2.328,0,0,1,63.288,32.281Zm-7.977-4.492a2.328,2.328,0,0,1,0-3.339,2.441,2.441,0,0,1,3.406,0L59.992,25.7a2.328,2.328,0,0,1,0,3.339,2.442,2.442,0,0,1-3.406,0Zm18.306,61.5a15.627,15.627,0,0,1-2.235-31.137,16.081,16.081,0,0,1,2.235-.222A15.683,15.683,0,1,1,73.617,89.29Z"/>
</svg>
