<svg xmlns="http://www.w3.org/2000/svg" width="100" height="100" viewBox="0 0 100 100">
  <defs>
    <style>
      .cls-1 {
        fill-rule: evenodd;
      }
    </style>
  </defs>
  <path id="모양_3" data-name="모양 3" class="cls-1" d="M93.979,62.251V50.145a2.242,2.242,0,0,0-.677-1.609l-7.3-7.139L74.532,30.172a2.251,2.251,0,0,0-1.573-.642H65.494A8.768,8.768,0,0,0,57.045,23H13.793a8.789,8.789,0,0,0-8.779,8.78V60.346a8.789,8.789,0,0,0,8.779,8.779H17.7a10.1,10.1,0,0,0,19.7,0H63.98a10.075,10.075,0,0,0,19.43.861c4.425-.391,7.593-1.6,9.277-3.706A5.6,5.6,0,0,0,93.979,62.251ZM27.549,72.5a5.622,5.622,0,1,1,5.62-5.623A5.628,5.628,0,0,1,27.549,72.5ZM65.823,40.756V34.031h6.218l6.873,6.725H65.823ZM73.828,72.5a5.622,5.622,0,1,1,5.62-5.623A5.628,5.628,0,0,1,73.828,72.5Z"/>
</svg>
