<svg xmlns="http://www.w3.org/2000/svg" width="100" height="100" viewBox="0 0 100 100">
  <defs>
    <style>
      .cls-1 {
        fill-rule: evenodd;
      }
    </style>
  </defs>
  <path id="모양_3" data-name="모양 3" class="cls-1" d="M29.221,38L22.476,13.026,6.016,38h23.2Zm63.77,0L76.033,12.269,69.723,38H92.991ZM65.718,34.018L71.347,11h-18.9ZM35.9,42.909L49.5,78.857,63.1,42.909H35.9ZM48.6,87.985a0.593,0.593,0,0,0-.089-0.057,2.44,2.44,0,0,1-.311-0.2A2.382,2.382,0,0,0,48.6,87.985ZM68.272,42.909L51.769,86.6c-0.008.023-.026,0.039-0.035,0.061a2.354,2.354,0,0,1-.131.232,2.426,2.426,0,0,1-.342.492c-0.041.044-.087,0.082-0.131,0.122,0.042-.04.1-0.056,0.14-0.1L92.741,42.909H68.272ZM62.4,38L49.5,15.644,36.609,38H62.4ZM50.5,87.928a0.579,0.579,0,0,0-.089.057,2.41,2.41,0,0,0,.4-0.256A2.44,2.44,0,0,1,50.5,87.928Zm-2.753-.547a2.41,2.41,0,0,1-.342-0.492,2.354,2.354,0,0,1-.131-0.232c-0.009-.022-0.026-0.038-0.035-0.061L30.717,42.909H6.267L47.738,87.4c0.04,0.043.1,0.06,0.14,0.1C47.834,87.463,47.788,87.425,47.747,87.381ZM33.2,34.166L46.564,11H26.96Z"/>
</svg>
