<svg xmlns="http://www.w3.org/2000/svg" width="100" height="100" viewBox="0 0 100 100">
  <defs>
    <style>
      .cls-1 {
        fill-rule: evenodd;
      }
    </style>
  </defs>
  <path id="모양_3" data-name="모양 3" class="cls-1" d="M94.945,71.033C95.4,66.059,94.408,60,89.917,53.4c-6.693-9.844-18.684-19.734-32.168-22.63a10.041,10.041,0,0,0,2.519-6.606,10.264,10.264,0,0,0-20.526,0,10.041,10.041,0,0,0,2.519,6.606c-13.483,2.9-25.475,12.786-32.17,22.63C5.6,60,4.6,66.059,5.063,71.033H94.945ZM50,19.018A5.142,5.142,0,1,1,44.82,24.16,5.169,5.169,0,0,1,50,19.018ZM6.073,76.07a24.658,24.658,0,0,0,4.216,8.1,2.556,2.556,0,0,0,1.906.853H87.812a2.556,2.556,0,0,0,1.906-.853,24.661,24.661,0,0,0,4.216-8.1H6.073Z"/>
</svg>
