<svg xmlns="http://www.w3.org/2000/svg" width="100" height="100" viewBox="0 0 100 100">
  <defs>
    <style>
      .cls-1 {
        fill-rule: evenodd;
      }
    </style>
  </defs>
  <path id="모양_3" data-name="모양 3" class="cls-1" d="M51.826,46.6H95.015V36.825a8.219,8.219,0,0,0-8.146-8.273H74.8a18.473,18.473,0,0,0,7.432-4.343A7.7,7.7,0,0,0,84.393,18.4c-0.425-6.481-5.3-11.367-11.335-11.367a11.1,11.1,0,0,0-5.7,1.608,2.078,2.078,0,0,0-.231.093c-0.054.036-.118,0.089-0.173,0.127-0.182.118-.35,0.255-0.525,0.384-4.124,3.059-10.5,10.369-14.606,15.3V46.6ZM67.994,13.723a2.154,2.154,0,0,0,.187-0.126,6.961,6.961,0,0,1,.738-0.616c0.169-.127.337-0.252,0.494-0.36a6.765,6.765,0,0,1,3.644-1.075c3.668,0,6.635,3.076,6.9,7.154a3.086,3.086,0,0,1-.968,2.427c-3.843,4.171-15.952,5.763-23.7,6.239C59.2,22.688,64.455,16.714,67.994,13.723ZM51.826,93.046H86.5A2.24,2.24,0,0,0,88.72,90.79V51.115H51.826V93.046ZM47.383,46.6V24.544c-4.1-4.926-10.47-12.228-14.595-15.291-0.18-.133-0.353-0.273-0.54-0.395-0.054-.037-0.116-0.089-0.17-0.124a2.018,2.018,0,0,0-.226-0.091,11.106,11.106,0,0,0-5.7-1.61c-6.037,0-10.91,4.886-11.335,11.367a7.7,7.7,0,0,0,2.158,5.809,18.474,18.474,0,0,0,7.432,4.343H13.185a8.219,8.219,0,0,0-8.146,8.273V46.6H47.383ZM20.218,21.127a3.087,3.087,0,0,1-.967-2.427c0.266-4.078,3.233-7.154,6.9-7.154a6.765,6.765,0,0,1,3.641,1.073c0.161,0.11.333,0.239,0.507,0.369a6.907,6.907,0,0,1,.729.609,2.044,2.044,0,0,0,.181.121c3.538,2.989,8.8,8.967,12.707,13.648C36.171,26.89,24.061,25.3,20.218,21.127ZM47.383,51.115H11.333V90.79a2.24,2.24,0,0,0,2.222,2.256H47.383V51.115Z"/>
</svg>
