<svg xmlns="http://www.w3.org/2000/svg" width="100" height="100" viewBox="0 0 100 100">
  <defs>
    <style>
      .cls-1 {
        fill-rule: evenodd;
      }
    </style>
  </defs>
  <path id="모양_3" data-name="모양 3" class="cls-1" d="M84.769,28.579a10.02,10.02,0,0,0-10.257,9.741,9.173,9.173,0,0,0,.548,3L66.506,50.2,57.478,37.33A9.427,9.427,0,0,0,60.26,30.7a10.271,10.271,0,0,0-20.515,0,9.426,9.426,0,0,0,2.781,6.625L33.465,50.245l-8.54-8.87a9.178,9.178,0,0,0,.567-3.055,10.021,10.021,0,0,0-10.257-9.741A10.02,10.02,0,0,0,4.978,38.321,9.9,9.9,0,0,0,13.5,47.895L17.323,63.41H82.662L86.489,47.9a9.9,9.9,0,0,0,8.538-9.576A10.021,10.021,0,0,0,84.769,28.579ZM15.236,43.811A5.734,5.734,0,0,1,9.3,38.321a5.734,5.734,0,0,1,5.938-5.491,5.734,5.734,0,0,1,5.938,5.491A5.734,5.734,0,0,1,15.236,43.811Zm39.473-9.8a6.17,6.17,0,0,1-9.411,0L45.284,34a5.4,5.4,0,0,1-.6-0.9c-0.02-.037-0.044-0.07-0.063-0.107a5.181,5.181,0,0,1-.344-0.911c-0.02-.069-0.051-0.132-0.068-0.2a5.067,5.067,0,0,1-.144-1.173,5.957,5.957,0,0,1,11.877,0,5.083,5.083,0,0,1-.144,1.173c-0.017.07-.048,0.134-0.068,0.2a5.179,5.179,0,0,1-.344.911c-0.019.037-.043,0.071-0.063,0.107a5.418,5.418,0,0,1-.6.9Zm36,4.3a5.032,5.032,0,0,1-.117,1.068c-0.029.138-.085,0.265-0.126,0.4a5.076,5.076,0,0,1-.2.588,5.225,5.225,0,0,1-.283.515c-0.072.124-.135,0.252-0.217,0.369a5.552,5.552,0,0,1-.47.57c-0.06.066-.114,0.135-0.177,0.2a5.81,5.81,0,0,1-.668.564c-0.036.026-.069,0.055-0.105,0.081a6,6,0,0,1-.849.494l-0.037.019a6.226,6.226,0,0,1-2.067.566l-0.008,0h0c-0.205.02-.405,0.058-0.616,0.058a5.928,5.928,0,0,1-5.548-3.585h0s0-.008,0-0.011a5.1,5.1,0,0,1-.277-0.9,4.7,4.7,0,0,1-.109-0.993h0a5.957,5.957,0,0,1,11.877,0h0Zm-72.8,29.34v9.21A2.143,2.143,0,0,0,20.07,79H79.934a2.143,2.143,0,0,0,2.16-2.125v-9.21H17.911Z"/>
</svg>
