<svg xmlns="http://www.w3.org/2000/svg" width="100" height="100" viewBox="0 0 100 100">
  <defs>
    <style>
      .cls-1 {
        fill-rule: evenodd;
      }
    </style>
  </defs>
  <path id="모양_3" data-name="모양 3" class="cls-1" d="M92.255,43.388l-7.73-7.732V24.725a9.319,9.319,0,0,0-9.308-9.308H64.284l-7.73-7.731a9.325,9.325,0,0,0-13.164,0l-7.73,7.731H24.728a9.319,9.319,0,0,0-9.308,9.308V35.656L7.689,43.388a9.317,9.317,0,0,0,0,13.163l7.731,7.732V75.214a9.319,9.319,0,0,0,9.308,9.308H35.661l7.73,7.731a9.323,9.323,0,0,0,13.164,0l7.73-7.731H75.217a9.319,9.319,0,0,0,9.308-9.308V64.282l7.73-7.732A9.325,9.325,0,0,0,92.255,43.388ZM39.108,26.55a11.141,11.141,0,1,1-11.141,11.14A11.154,11.154,0,0,1,39.108,26.55ZM35.2,66.917a2.538,2.538,0,1,1-3.589-3.59L64.189,30.748a2.538,2.538,0,1,1,3.59,3.59Zm25.637,3.643A11.141,11.141,0,1,1,71.978,59.42,11.154,11.154,0,0,1,60.837,70.559Zm-21.728-26.8a6.064,6.064,0,1,0-6.064-6.066A6.072,6.072,0,0,0,39.108,43.755Zm21.728,9.6A6.064,6.064,0,1,0,66.9,59.42,6.072,6.072,0,0,0,60.837,53.354Z"/>
</svg>
