<svg xmlns="http://www.w3.org/2000/svg" width="100" height="100" viewBox="0 0 100 100">
  <defs>
    <style>
      .cls-1 {
        fill-rule: evenodd;
      }
    </style>
  </defs>
  <path id="모양_3" data-name="모양 3" class="cls-1" d="M94.354,72.238L76.407,50.544A29.117,29.117,0,0,0,79.49,37.539a29.894,29.894,0,0,0-59.785,0A29.137,29.137,0,0,0,23.09,51.161L5.654,72.238a2.473,2.473,0,0,0-.327,2.644A2.515,2.515,0,0,0,7.6,76.3H21.772l5.052,14.076a2.509,2.509,0,0,0,2.139,1.646c0.077,0.007.154,0.01,0.229,0.01a2.52,2.52,0,0,0,2.177-1.244l13.995-24a27.642,27.642,0,0,0,9.213-.113l14.06,24.11a2.52,2.52,0,0,0,2.177,1.244c0.075,0,.153,0,0.229-0.01a2.51,2.51,0,0,0,2.14-1.646L78.235,76.3H92.409a2.515,2.515,0,0,0,2.272-1.423A2.473,2.473,0,0,0,94.354,72.238Zm-69.62-34.7A24.865,24.865,0,1,1,49.6,62.15,24.766,24.766,0,0,1,24.734,37.539Zm24.9-20.632A20.633,20.633,0,1,0,70.478,37.539,20.762,20.762,0,0,0,49.631,16.907Z"/>
</svg>
