<svg xmlns="http://www.w3.org/2000/svg" width="100" height="100" viewBox="0 0 100 100">
  <defs>
    <style>
      .cls-1 {
        fill-rule: evenodd;
      }
    </style>
  </defs>
  <path id="모양_3" data-name="모양 3" class="cls-1" d="M65.956,46.394a1.445,1.445,0,1,0,1.43,1.445A1.44,1.44,0,0,0,65.956,46.394Zm20.2-5.69H82.934a8.542,8.542,0,0,0-1.164.076,30.317,30.317,0,0,0-5.9-6.528l0.271-11.863a2.172,2.172,0,0,0-1.237-2.015c-0.473-.22-4.439-1.836-11.36,2.424a14.814,14.814,0,0,0-28.87,6.342A32.539,32.539,0,0,0,19.811,41.921c-4.575,1-6.869-.791-6.959-0.864C10.492,38.98,9.3,36.792,9.3,34.551c0.006-3.861,3.473-6.954,3.541-7.014a2.184,2.184,0,0,0,.236-3.051,2.135,2.135,0,0,0-3.023-.245c-0.205.178-5.013,4.383-5.043,10.265-0.018,3.565,1.673,6.87,5.009,9.806a11.1,11.1,0,0,0,7.18,2.275c0.122,0,.264-0.024.389-0.027a24.722,24.722,0,0,0-1.495,8.416,25.659,25.659,0,0,0,4.96,15.036A16.244,16.244,0,0,0,20,75.774c0,7.835,5.5,14.211,12.27,14.211a12.017,12.017,0,0,0,10.374-6.607,42.31,42.31,0,0,0,17.032-.017A12.024,12.024,0,0,0,70.069,90c6.766,0,12.273-6.376,12.273-14.211a16.22,16.22,0,0,0-1.089-5.868,28.172,28.172,0,0,0,2.064-3.384h2.834a7.914,7.914,0,0,0,7.864-7.948V48.652A7.914,7.914,0,0,0,86.151,40.7ZM54.716,36.069l-10.7,0a10.753,10.753,0,0,1-5.216-9.21,10.562,10.562,0,1,1,21.123,0A10.753,10.753,0,0,1,54.716,36.069Zm11.24,14.66a2.89,2.89,0,1,1,2.86-2.89A2.877,2.877,0,0,1,65.956,50.73Z"/>
</svg>
