<svg xmlns="http://www.w3.org/2000/svg" width="100" height="100" viewBox="0 0 100 100">
  <defs>
    <style>
      .cls-1 {
        fill-rule: evenodd;
      }
    </style>
  </defs>
  <path id="모양_5" data-name="모양 5" class="cls-1" d="M92.326,42.962L84.6,35.317V24.508a9.266,9.266,0,0,0-9.309-9.2H64.354L56.625,7.658a9.4,9.4,0,0,0-13.167,0L35.73,15.3H24.8a9.266,9.266,0,0,0-9.309,9.2V35.317L7.758,42.962a9.143,9.143,0,0,0,0,13.015l7.729,7.645V74.432a9.266,9.266,0,0,0,9.309,9.2H35.73l7.728,7.645a9.392,9.392,0,0,0,13.167,0l7.728-7.645H75.288a9.266,9.266,0,0,0,9.309-9.2V63.623l7.729-7.645A9.144,9.144,0,0,0,92.326,42.962ZM36.433,58.375H32.781L26.646,47.618A11.432,11.432,0,0,1,26,46.342a8.322,8.322,0,0,1-.471-1.449V58.375H22.55V40.669H26.2L32.31,51.4c0.179,0.327.385,0.733,0.609,1.215a8.263,8.263,0,0,1,.534,1.584V40.669h2.98V58.375Zm15.717,0h-11.7V40.669H51.978v2.6H43.606v4.765h7.849V50.59H43.606v5.182H52.15v2.6Zm20.444,0H69.562l-3.626-13.63-3.775,13.63H59.08L54.215,40.669h3.3l3.279,13.139L64.42,40.669h3.055l3.6,13.113,3.4-13.113h3.054Z"/>
</svg>
