<svg xmlns="http://www.w3.org/2000/svg" width="100" height="100" viewBox="0 0 100 100">
  <defs>
    <style>
      .cls-1 {
        fill-rule: evenodd;
      }
    </style>
  </defs>
  <path id="모양_1" data-name="모양 1" class="cls-1" d="M90,38.1a7.758,7.758,0,0,0-.245-1.032,7.788,7.788,0,0,0-.636-0.857c-0.026-.024-0.036-0.057-0.063-0.08L51.825,4.626a2.535,2.535,0,0,0-.3-0.163,2.671,2.671,0,0,0-.489-0.271A3.522,3.522,0,0,0,50.017,4a2.542,2.542,0,0,0-1.511.464,2.585,2.585,0,0,0-.3.165L10.977,36.135c-0.027.023-.037,0.056-0.063,0.08a2.707,2.707,0,0,0-.361.457,2.736,2.736,0,0,0-.274.4,7.777,7.777,0,0,0-.245,1.032c0,0.035-.02.063-0.02,0.1l0.007,49.89a7.229,7.229,0,0,0,7.213,6.914h19.54a2.751,2.751,0,0,0,2.772-2.727V63.66H60.487V92.278a2.751,2.751,0,0,0,2.772,2.727H82.8c4.935,0,7.016-4.135,7.218-7.1V38.2C90.017,38.167,90,38.138,90,38.1ZM82.8,89.551H66.032V60.933a2.751,2.751,0,0,0-2.772-2.727H36.773A2.751,2.751,0,0,0,34,60.933V89.551H17.233A1.676,1.676,0,0,1,15.558,87.9V39.453L50.016,10.291,84.473,39.453,84.48,87.714A1.762,1.762,0,0,1,82.8,89.551Z"/>
</svg>
