<svg xmlns="http://www.w3.org/2000/svg" width="100" height="100" viewBox="0 0 100 100">
  <defs>
    <style>
      .cls-1 {
        fill-rule: evenodd;
      }
    </style>
  </defs>
  <path id="모양_1" data-name="모양 1" class="cls-1" d="M75.642,37.991H70.166V25.332a20.169,20.169,0,1,0-40.336,0V37.991H24.4a8.414,8.414,0,0,0-8.372,8.44V85.56A8.414,8.414,0,0,0,24.4,94H75.642a8.415,8.415,0,0,0,8.372-8.44V46.431A8.415,8.415,0,0,0,75.642,37.991ZM34.4,25.332a15.6,15.6,0,1,1,31.2,0V37.991H34.4V25.332ZM79.447,85.56A3.824,3.824,0,0,1,75.642,89.4H24.4a3.824,3.824,0,0,1-3.805-3.836V46.431A3.824,3.824,0,0,1,24.4,42.595H75.642a3.824,3.824,0,0,1,3.805,3.836V85.56ZM49.924,55.19A6.549,6.549,0,0,0,47.64,67.858v9.2a2.283,2.283,0,1,0,4.566,0v-9.2A6.549,6.549,0,0,0,49.924,55.19Zm0,4.6a1.95,1.95,0,1,1-1.934,1.949A1.945,1.945,0,0,1,49.924,59.794Z"/>
</svg>
