<svg xmlns="http://www.w3.org/2000/svg" width="100" height="100" viewBox="0 0 100 100">
  <defs>
    <style>
      .cls-1 {
        fill-rule: evenodd;
      }
    </style>
  </defs>
  <path id="모양_2" data-name="모양 2" class="cls-1" d="M86.937,39.138H44.082V27.19A19.382,19.382,0,0,0,24.557,8,19.382,19.382,0,0,0,5.033,27.19V41.31a2.211,2.211,0,0,0,4.421,0V27.19a15.106,15.106,0,0,1,30.208,0V39.138H37.327a8.044,8.044,0,0,0-8.1,7.965V84.035A8.044,8.044,0,0,0,37.327,92h49.61a8.045,8.045,0,0,0,8.1-7.966V47.1A8.045,8.045,0,0,0,86.937,39.138Zm3.684,44.9a3.656,3.656,0,0,1-3.684,3.621H37.327a3.656,3.656,0,0,1-3.684-3.621V47.1a3.656,3.656,0,0,1,3.684-3.621h49.61A3.656,3.656,0,0,1,90.621,47.1V84.035ZM62.041,55.371a6.159,6.159,0,0,0-2.21,11.957v8.681a2.211,2.211,0,0,0,4.421,0V67.327A6.159,6.159,0,0,0,62.041,55.371Zm0,4.345a1.841,1.841,0,1,1-1.873,1.84A1.859,1.859,0,0,1,62.041,59.715Z"/>
</svg>
