<svg xmlns="http://www.w3.org/2000/svg" width="100" height="100" viewBox="0 0 100 100">
  <defs>
    <style>
      .cls-1 {
        fill-rule: evenodd;
      }
    </style>
  </defs>
  <path id="모양_2" data-name="모양 2" class="cls-1" d="M93.236,90.609L70.546,67.661A37.9,37.9,0,0,0,79.8,42.822c0-20.87-16.787-37.849-37.421-37.849S4.959,21.952,4.959,42.822,21.746,80.67,42.38,80.67A36.984,36.984,0,0,0,66.938,71.31l22.69,22.949a2.53,2.53,0,0,0,3.608,0A2.6,2.6,0,0,0,93.236,90.609ZM10.062,42.822A32.541,32.541,0,0,1,42.38,10.134a32.69,32.69,0,0,1,0,65.375A32.541,32.541,0,0,1,10.062,42.822Z"/>
</svg>
