<svg xmlns="http://www.w3.org/2000/svg" width="100" height="100" viewBox="0 0 100 100">
  <defs>
    <style>
      .cls-1 {
        fill-rule: evenodd;
      }
    </style>
  </defs>
  <path id="모양_2" data-name="모양 2" class="cls-1" d="M71.282,67.661a37.964,37.964,0,1,0-3.648,3.649L90.579,94.259a2.58,2.58,0,1,0,3.649-3.649ZM10.119,42.822A32.681,32.681,0,1,1,42.8,75.509,32.723,32.723,0,0,1,10.119,42.822Zm49.147-2.581H45.794V26.764a2.58,2.58,0,1,0-5.16,0V40.241H27.16a2.581,2.581,0,0,0,0,5.161H40.634V58.878a2.58,2.58,0,1,0,5.16,0V45.4H59.266A2.581,2.581,0,0,0,59.266,40.241Z"/>
</svg>
