<svg xmlns="http://www.w3.org/2000/svg" width="100" height="100" viewBox="0 0 100 100">
  <defs>
    <style>
      .cls-1 {
        fill-rule: evenodd;
      }
    </style>
  </defs>
  <path id="모양_2" data-name="모양 2" class="cls-1" d="M85.551,4.973H14.437a9.474,9.474,0,0,0-9.463,9.463V85.552a9.474,9.474,0,0,0,9.463,9.463H85.551a9.474,9.474,0,0,0,9.463-9.463V14.436A9.474,9.474,0,0,0,85.551,4.973Zm4.3,80.578a4.305,4.305,0,0,1-4.3,4.3H14.437a4.306,4.306,0,0,1-4.3-4.3V14.436a4.305,4.305,0,0,1,4.3-4.3H85.551a4.305,4.305,0,0,1,4.3,4.3V85.552Z"/>
</svg>
