<svg xmlns="http://www.w3.org/2000/svg" width="100" height="100" viewBox="0 0 100 100">
  <defs>
    <style>
      .cls-1 {
        fill-rule: evenodd;
      }
    </style>
  </defs>
  <path id="모양_2" data-name="모양 2" class="cls-1" d="M36.2,5.046H14.436a9.441,9.441,0,0,0-9.463,9.4V36.057a9.442,9.442,0,0,0,9.463,9.4H36.2a9.442,9.442,0,0,0,9.463-9.4V14.444A9.44,9.44,0,0,0,36.2,5.046Zm4.3,31.011a4.291,4.291,0,0,1-4.3,4.272H14.436a4.291,4.291,0,0,1-4.3-4.272V14.444a4.291,4.291,0,0,1,4.3-4.272H36.2a4.291,4.291,0,0,1,4.3,4.272V36.057ZM85.552,5.046H63.79a9.44,9.44,0,0,0-9.463,9.4V36.057a9.441,9.441,0,0,0,9.463,9.4H85.552a9.442,9.442,0,0,0,9.463-9.4V14.444A9.44,9.44,0,0,0,85.552,5.046Zm4.3,31.011a4.291,4.291,0,0,1-4.3,4.272H63.79a4.291,4.291,0,0,1-4.3-4.272V14.444a4.291,4.291,0,0,1,4.3-4.272H85.552a4.291,4.291,0,0,1,4.3,4.272V36.057ZM36.2,54.605H14.436A9.442,9.442,0,0,0,4.973,64V85.618a9.441,9.441,0,0,0,9.463,9.4H36.2a9.441,9.441,0,0,0,9.463-9.4V64A9.442,9.442,0,0,0,36.2,54.605Zm4.3,31.013a4.291,4.291,0,0,1-4.3,4.272H14.436a4.291,4.291,0,0,1-4.3-4.272V64a4.291,4.291,0,0,1,4.3-4.272H36.2A4.291,4.291,0,0,1,40.5,64V85.618ZM85.552,54.605H63.79A9.441,9.441,0,0,0,54.327,64V85.618a9.441,9.441,0,0,0,9.463,9.4H85.552a9.441,9.441,0,0,0,9.463-9.4V64A9.442,9.442,0,0,0,85.552,54.605Zm4.3,31.013a4.291,4.291,0,0,1-4.3,4.272H63.79a4.291,4.291,0,0,1-4.3-4.272V64a4.291,4.291,0,0,1,4.3-4.272H85.552A4.291,4.291,0,0,1,89.853,64V85.618Z"/>
</svg>
