<svg xmlns="http://www.w3.org/2000/svg" width="100" height="100" viewBox="0 0 100 100">
  <defs>
    <style>
      .cls-1 {
        fill-rule: evenodd;
      }
    </style>
  </defs>
  <path id="모양_2" data-name="모양 2" class="cls-1" d="M23,4.985H14.5A9.506,9.506,0,0,0,5,14.47v8.48A9.507,9.507,0,0,0,14.5,32.435H23a9.507,9.507,0,0,0,9.507-9.485V14.47A9.506,9.506,0,0,0,23,4.985ZM27.321,22.95A4.321,4.321,0,0,1,23,27.261H14.5a4.32,4.32,0,0,1-4.321-4.311V14.47A4.32,4.32,0,0,1,14.5,10.159H23a4.32,4.32,0,0,1,4.321,4.311v8.48Zm26.7-17.965h-8.5a9.506,9.506,0,0,0-9.507,9.485v8.48a9.507,9.507,0,0,0,9.507,9.485h8.5a9.507,9.507,0,0,0,9.507-9.485V14.47A9.506,9.506,0,0,0,54.019,4.985ZM58.34,22.95a4.32,4.32,0,0,1-4.321,4.311h-8.5A4.321,4.321,0,0,1,41.2,22.95V14.47a4.32,4.32,0,0,1,4.321-4.311h8.5A4.32,4.32,0,0,1,58.34,14.47v8.48ZM23,36.275H14.5A9.507,9.507,0,0,0,5,45.76v8.478A9.507,9.507,0,0,0,14.5,63.723H23a9.507,9.507,0,0,0,9.507-9.485V45.76A9.507,9.507,0,0,0,23,36.275Zm4.321,17.963A4.321,4.321,0,0,1,23,58.549H14.5a4.32,4.32,0,0,1-4.321-4.311V45.76A4.32,4.32,0,0,1,14.5,41.448H23a4.321,4.321,0,0,1,4.321,4.311v8.478Zm26.7-17.963h-8.5a9.507,9.507,0,0,0-9.507,9.485v8.478a9.507,9.507,0,0,0,9.507,9.485h8.5a9.507,9.507,0,0,0,9.507-9.485V45.76A9.507,9.507,0,0,0,54.019,36.275ZM58.34,54.238a4.32,4.32,0,0,1-4.321,4.311h-8.5A4.321,4.321,0,0,1,41.2,54.238V45.76a4.321,4.321,0,0,1,4.321-4.311h8.5A4.32,4.32,0,0,1,58.34,45.76v8.478ZM23,67.562H14.5A9.507,9.507,0,0,0,5,77.047v8.478A9.507,9.507,0,0,0,14.5,95.01H23a9.507,9.507,0,0,0,9.507-9.485V77.047A9.507,9.507,0,0,0,23,67.562Zm4.321,17.963A4.32,4.32,0,0,1,23,89.837H14.5a4.32,4.32,0,0,1-4.321-4.311V77.047A4.32,4.32,0,0,1,14.5,72.736H23a4.321,4.321,0,0,1,4.321,4.311v8.478Zm26.7-17.963h-8.5a9.507,9.507,0,0,0-9.507,9.485v8.478a9.507,9.507,0,0,0,9.507,9.485h8.5a9.507,9.507,0,0,0,9.507-9.485V77.047A9.507,9.507,0,0,0,54.019,67.562ZM58.34,85.525a4.32,4.32,0,0,1-4.321,4.311h-8.5A4.32,4.32,0,0,1,41.2,85.525V77.047a4.321,4.321,0,0,1,4.321-4.311h8.5a4.32,4.32,0,0,1,4.321,4.311v8.478ZM85.5,4.985H77a9.506,9.506,0,0,0-9.507,9.485v8.48A9.507,9.507,0,0,0,77,32.435h8.5A9.507,9.507,0,0,0,95,22.95V14.47A9.506,9.506,0,0,0,85.5,4.985ZM89.819,22.95A4.32,4.32,0,0,1,85.5,27.261H77a4.32,4.32,0,0,1-4.321-4.311V14.47A4.32,4.32,0,0,1,77,10.159h8.5a4.32,4.32,0,0,1,4.321,4.311v8.48ZM85.5,36.275H77a9.507,9.507,0,0,0-9.507,9.485v8.478A9.507,9.507,0,0,0,77,63.723h8.5A9.507,9.507,0,0,0,95,54.238V45.76A9.507,9.507,0,0,0,85.5,36.275Zm4.321,17.963A4.32,4.32,0,0,1,85.5,58.549H77a4.32,4.32,0,0,1-4.321-4.311V45.76A4.32,4.32,0,0,1,77,41.448h8.5a4.32,4.32,0,0,1,4.321,4.311v8.478ZM85.5,67.562H77a9.507,9.507,0,0,0-9.507,9.485v8.478A9.507,9.507,0,0,0,77,95.01h8.5A9.507,9.507,0,0,0,95,85.525V77.047A9.507,9.507,0,0,0,85.5,67.562Zm4.321,17.963A4.32,4.32,0,0,1,85.5,89.837H77a4.32,4.32,0,0,1-4.321-4.311V77.047A4.32,4.32,0,0,1,77,72.736h8.5a4.32,4.32,0,0,1,4.321,4.311v8.478Z"/>
</svg>
