<svg xmlns="http://www.w3.org/2000/svg" width="100" height="100" viewBox="0 0 100 100">
  <defs>
    <style>
      .cls-1 {
        fill-rule: evenodd;
      }
    </style>
  </defs>
  <path id="모양_2" data-name="모양 2" class="cls-1" d="M17.416,8.046a12.4,12.4,0,1,0,12.457,12.4A12.442,12.442,0,0,0,17.416,8.046Zm0,19.675a7.277,7.277,0,1,1,7.311-7.277A7.3,7.3,0,0,1,17.416,27.721ZM39.265,23H92.444a2.561,2.561,0,1,0,0-5.121H39.265A2.561,2.561,0,1,0,39.265,23ZM17.416,37.133a12.4,12.4,0,1,0,12.457,12.4A12.442,12.442,0,0,0,17.416,37.133Zm0,19.675a7.277,7.277,0,1,1,7.311-7.277A7.3,7.3,0,0,1,17.416,56.808ZM92.444,46.97H39.265a2.561,2.561,0,1,0,0,5.121H92.444A2.561,2.561,0,1,0,92.444,46.97ZM17.416,66.219a12.4,12.4,0,1,0,12.457,12.4A12.444,12.444,0,0,0,17.416,66.219Zm0,19.677a7.278,7.278,0,1,1,7.311-7.277A7.3,7.3,0,0,1,17.416,85.9Zm75.028-9.837H39.265a2.561,2.561,0,1,0,0,5.121H92.444A2.561,2.561,0,1,0,92.444,76.058Z"/>
</svg>
