<svg xmlns="http://www.w3.org/2000/svg" width="100" height="100" viewBox="0 0 100 100">
  <defs>
    <style>
      .cls-1 {
        fill-rule: evenodd;
      }
    </style>
  </defs>
  <path id="모양_2" data-name="모양 2" class="cls-1" d="M76.55,24.09a2.551,2.551,0,0,0-3.635.221,2.629,2.629,0,0,0,.218,3.681A35.563,35.563,0,0,1,84.887,54.436,35.152,35.152,0,0,1,49.995,89.765,35.153,35.153,0,0,1,15.1,54.436,35.561,35.561,0,0,1,26.859,27.99a2.629,2.629,0,0,0,.218-3.681,2.551,2.551,0,0,0-3.635-.22A40.805,40.805,0,0,0,9.95,54.436c0,22.356,17.964,40.545,40.045,40.545S90.038,76.793,90.038,54.436A40.807,40.807,0,0,0,76.55,24.09ZM49.995,55.428A2.593,2.593,0,0,0,52.57,52.82V7.62a2.576,2.576,0,1,0-5.151,0v45.2A2.593,2.593,0,0,0,49.995,55.428Z"/>
</svg>
