<svg xmlns="http://www.w3.org/2000/svg" width="100" height="100" viewBox="0 0 100 100">
  <defs>
    <style>
      .cls-1 {
        fill-rule: evenodd;
      }
    </style>
  </defs>
  <path id="모양_2" data-name="모양 2" class="cls-1" d="M92.637,60.08a2.387,2.387,0,0,0-2.378,2.4V83.234a3.982,3.982,0,0,1-3.964,3.992H13.757a3.982,3.982,0,0,1-3.964-3.992V63.673a2.378,2.378,0,1,0-4.757,0V83.234a8.761,8.761,0,0,0,8.72,8.782H86.295a8.761,8.761,0,0,0,8.72-8.782V62.475A2.387,2.387,0,0,0,92.637,60.08Zm-44.293,13.3a2.36,2.36,0,0,0,2.585.521l0.007,0a2.348,2.348,0,0,0,.7-0.47c0.022-.021.052-0.027,0.074-0.049L71.731,53.218a2.406,2.406,0,0,0,0-3.387,2.365,2.365,0,0,0-3.363,0L52.4,65.908V10.446a2.378,2.378,0,1,0-4.757,0V65.908L31.685,49.831a2.365,2.365,0,0,0-3.363,0,2.406,2.406,0,0,0,0,3.387Z"/>
</svg>
