<svg xmlns="http://www.w3.org/2000/svg" width="100" height="100" viewBox="0 0 100 100">
  <defs>
    <style>
      .cls-1 {
        fill-rule: evenodd;
      }
    </style>
  </defs>
  <path id="모양_2" data-name="모양 2" class="cls-1" d="M7.644,19.972h15.33a12.52,12.52,0,0,0,24.429,0H92.426a2.6,2.6,0,1,0,0-5.2H47.4a12.52,12.52,0,0,0-24.429,0H7.644A2.6,2.6,0,1,0,7.644,19.972ZM35.188,10.2a7.173,7.173,0,1,1-7.249,7.173A7.22,7.22,0,0,1,35.188,10.2ZM92.426,47.4H82.508a12.52,12.52,0,0,0-24.429,0H7.644a2.6,2.6,0,1,0,0,5.2H58.08a12.52,12.52,0,0,0,24.428,0h9.918A2.6,2.6,0,1,0,92.426,47.4Zm-22.133,9.77A7.173,7.173,0,1,1,77.544,50,7.219,7.219,0,0,1,70.293,57.171ZM92.426,80.027h-48.4a12.52,12.52,0,0,0-24.428,0H7.644a2.6,2.6,0,1,0,0,5.2H19.6a12.52,12.52,0,0,0,24.429,0h48.4A2.6,2.6,0,1,0,92.426,80.027ZM31.81,89.8a7.173,7.173,0,1,1,7.251-7.174A7.22,7.22,0,0,1,31.81,89.8Z"/>
</svg>
