<svg xmlns="http://www.w3.org/2000/svg" width="100" height="100" viewBox="0 0 100 100">
  <defs>
    <style>
      .cls-1 {
        fill-rule: evenodd;
      }
    </style>
  </defs>
  <path id="모양_2" data-name="모양 2" class="cls-1" d="M94.578,55.776a44.915,44.915,0,1,0-16.284,29.2,2.259,2.259,0,1,0-2.844-3.512A41.347,41.347,0,1,1,89.93,56.241c-1,4.952-4.014,8.5-8.243,9.556-2.874.713-5.735,0.051-6.96-1.618-2.487-3.4-2.663-11.213-2.521-13.938a0.14,0.14,0,0,0,0-.016c0-.035.006-0.069,0.006-0.1a22.291,22.291,0,1,0-3.38,11.722,15.483,15.483,0,0,0,2.254,5A10.193,10.193,0,0,0,79.43,70.6a13.908,13.908,0,0,0,3.347-.415,15.258,15.258,0,0,0,10.488-9.347,2.216,2.216,0,0,0,.667-1.113c0.2-.909.309-1.84,0.453-2.764,0.063-.33.155-0.641,0.2-0.98C94.6,55.909,94.574,55.845,94.578,55.776ZM50,67.817A17.694,17.694,0,1,1,67.691,50.1c0,0.081-.008.179-0.013,0.31A17.707,17.707,0,0,1,50,67.817Z"/>
</svg>
