<svg xmlns="http://www.w3.org/2000/svg" width="100" height="100" viewBox="0 0 100 100">
  <defs>
    <style>
      .cls-1 {
        fill-rule: evenodd;
      }
    </style>
  </defs>
  <path id="모양_2" data-name="모양 2" class="cls-1" d="M93.961,50.044a7.7,7.7,0,0,0-2.432-5.988c-2.58-2.338-6.219-2.287-7.242-2.224-1.4-.076-10.533-0.56-16.143-0.56a2.193,2.193,0,0,1-1.461-.3,2.92,2.92,0,0,1,.144-1.858l0.11-.341c2.915-11.886-.374-22.9-9.266-31.023-2.784-2.542-5.283-3.338-7.42-2.363-3.3,1.505-3.426,6.278-3.368,7.922,0.005,0.046.534,4.852-.013,16.83-0.346,7.583-12.84,15.289-20.541,19.08a5.955,5.955,0,0,0-5.846-4.835H11.972a5.953,5.953,0,0,0-5.958,5.935V89.033a5.953,5.953,0,0,0,5.958,5.935h8.511a5.953,5.953,0,0,0,5.958-5.935V86.64c2.958-.052,7.458.2,10.585,1.6,5.6,2.51,17.684,6.724,35.658,6.724a16.137,16.137,0,0,0,12.547-5.661c7.923-8.938,7.908-25.353,7.575-28-0.356-2.837.675-8.722,1.1-10.75ZM21.334,89.033a0.86,0.86,0,0,1-.851.848H11.972a0.859,0.859,0,0,1-.851-0.848V50.315a0.86,0.86,0,0,1,.851-0.848h8.511a0.86,0.86,0,0,1,.851.848V89.033Zm66.405-27.1c0.393,3.126-.2,17.076-6.337,24.005a11.081,11.081,0,0,1-8.719,3.941c-17.02,0-28.334-3.932-33.564-6.277-4.152-1.861-9.475-2.1-12.68-2.048V54.8c5.973-2.7,24.974-12.236,25.529-24.432,0.572-12.475.012-17.43,0-17.43a7.937,7.937,0,0,1,.415-2.769A7.329,7.329,0,0,1,54.22,11.5c5.255,4.8,10.86,13.187,7.79,25.926-0.309.868-1.218,3.951,0.444,6.4,0.788,1.159,2.414,2.54,5.69,2.54,5.818,0,15.928.555,16.029,0.562l0.2,0.01,0.2-.02a5.391,5.391,0,0,1,3.526.909,2.507,2.507,0,0,1,.758,1.972C88.524,51.4,87.252,58.052,87.739,61.935Z"/>
</svg>
