<svg xmlns="http://www.w3.org/2000/svg" width="100" height="100" viewBox="0 0 100 100">
  <defs>
    <style>
      .cls-1 {
        fill-rule: evenodd;
      }
    </style>
  </defs>
  <path id="모양_2" data-name="모양 2" class="cls-1" d="M92.909,49.454c-0.424-2.027-1.439-7.909-1.088-10.751,0.329-2.649.339-19.071-7.494-28.007a15.879,15.879,0,0,0-12.4-5.658c-17.772,0-29.716,4.213-35.254,6.723-3.28,1.491-7.781,1.651-10.462,1.594V10.973a5.92,5.92,0,0,0-5.89-5.935H11.9a5.92,5.92,0,0,0-5.89,5.935v38.72a5.92,5.92,0,0,0,5.89,5.935H20.32a5.906,5.906,0,0,0,5.78-4.837c7.613,3.786,19.965,11.487,20.308,19.083,0.539,11.983.02,16.787,0,17.049-0.039,1.428.076,6.2,3.343,7.707a4.337,4.337,0,0,0,1.831.4c1.666,0,3.51-.925,5.506-2.767,5.091-4.7,13.052-14.986,9.058-31.346a2.989,2.989,0,0,1-.148-1.878,2.161,2.161,0,0,1,1.446-.3c5.545,0,14.57-.485,15.961-0.562,0.983,0.06,4.6.114,7.156-2.222a7.742,7.742,0,0,0,2.406-5.989Zm-71.748.239a0.855,0.855,0,0,1-.841.848H11.9a0.855,0.855,0,0,1-.841-0.848V10.973a0.855,0.855,0,0,1,.841-0.848H20.32a0.855,0.855,0,0,1,.841.848v38.72ZM87.17,52.18a5.394,5.394,0,0,1-3.494.917l-0.194-.02-0.2.01c-0.1.007-10.094,0.563-15.846,0.563-3.237,0-4.848,1.381-5.627,2.54-1.643,2.448-.746,5.531-0.44,6.4,3.037,12.74-2.5,21.128-7.7,25.927a7.336,7.336,0,0,1-1.811,1.326,7.834,7.834,0,0,1-.424-2.547c0.023-.206.575-5.154,0.013-17.652C50.9,57.444,32.112,47.91,26.21,45.209V18.449c3.167,0.055,8.428-.187,12.532-2.048,5.17-2.345,16.355-6.276,33.184-6.276a10.9,10.9,0,0,1,8.618,3.94c6.071,6.926,6.656,20.881,6.268,24.008-0.483,3.882.775,10.536,1.1,12.145A2.516,2.516,0,0,1,87.17,52.18Z"/>
</svg>
