<svg xmlns="http://www.w3.org/2000/svg" width="100" height="100" viewBox="0 0 100 100">
  <defs>
    <style>
      .cls-1 {
        fill-rule: evenodd;
      }
    </style>
  </defs>
  <path id="모양_2" data-name="모양 2" class="cls-1" d="M85.97,33.047h-18.5c-2.389-.245-2.79-1.569-2.848-1.9a2.381,2.381,0,0,0-.125-0.574l-5.989-17.46A8.909,8.909,0,0,0,53.95,7.96,9.08,9.08,0,0,0,42.2,11.4a2.336,2.336,0,0,0-.233.506L35.734,30.614c-1.092,2.455-2.555,2.446-2.7,2.461a2.7,2.7,0,0,0-.385-0.028H14.027A9,9,0,0,0,4.988,42a8.911,8.911,0,0,0,2.15,5.795,2.483,2.483,0,0,0,.378.359l15.567,12.06c2.029,1.754,1.654,3.092,1.6,3.255a2.553,2.553,0,0,0-.138.347l-5.547,17.6a8.813,8.813,0,0,0,.62,6.822,8.962,8.962,0,0,0,5.315,4.387,9.106,9.106,0,0,0,6.228-.307,2.482,2.482,0,0,0,.455-0.249L48.9,80.246a1.989,1.989,0,0,1,2.251.043L68.384,92.07a2.537,2.537,0,0,0,.458.25,9.162,9.162,0,0,0,6.228.3,8.947,8.947,0,0,0,5.935-11.209L75.361,63.551c-0.1-.25-0.475-1.588,1.446-3.252L92.481,48.15a2.45,2.45,0,0,0,.378-0.359A8.909,8.909,0,0,0,95.009,42,9,9,0,0,0,85.97,33.047Zm3.09,11.248L73.511,56.349c-3.96,3.424-3.751,7.25-2.949,9.133l5.5,17.456a3.854,3.854,0,0,1-4.981,4.745L54.095,76.072a7.18,7.18,0,0,0-8.19,0L28.916,87.685A3.882,3.882,0,0,1,24.2,85.856a3.766,3.766,0,0,1-.266-2.913l5.5-17.461c0.8-1.882,1-5.711-3.06-9.221L10.936,44.293a3.741,3.741,0,0,1-.772-2.3,3.847,3.847,0,0,1,3.862-3.824H32.492c2.083,0.214,5.861-.736,8.068-5.72l6.215-18.639a3.881,3.881,0,0,1,6.838.944l5.911,17.235c0.368,2.116,2.315,5.708,7.6,6.17,0.078,0.007.151,0.01,0.229,0.01H85.97A3.847,3.847,0,0,1,89.832,42,3.75,3.75,0,0,1,89.06,44.294Z"/>
</svg>
