<svg xmlns="http://www.w3.org/2000/svg" width="100" height="100" viewBox="0 0 100 100">
  <defs>
    <style>
      .cls-1 {
        fill-rule: evenodd;
      }
    </style>
  </defs>
  <path id="모양_2" data-name="모양 2" class="cls-1" d="M69.655,10.015c-9.774,0-15.774,6.081-19.585,11.235-4.793-7.357-11.581-11.235-19.716-11.235A25.406,25.406,0,0,0,5.021,35.48l0.036,1.183C5.093,37.846,6.408,65.88,46.229,88.969a7.979,7.979,0,0,0,3.87,1,7.132,7.132,0,0,0,3.694-1.007C93.333,65.429,94.9,37.852,94.949,36.69c0-.01,0-0.018,0-0.026l0.036-1.26A25.389,25.389,0,0,0,69.655,10.015ZM89.931,36.483c-0.039.621-1.953,26.277-38.7,48.147a2.7,2.7,0,0,1-2.47-.015C11.518,63.026,10.091,36.762,10.082,36.51L10.045,35.4A20.354,20.354,0,0,1,30.354,15.051c6.8,0,12.238,3.365,16.255,10.152a4.452,4.452,0,0,0,3.438,1.944H50.06a4.051,4.051,0,0,0,3.35-1.928c5-7.127,9.86-10.168,16.245-10.168A20.337,20.337,0,0,1,89.963,35.326Z"/>
</svg>
