<svg xmlns="http://www.w3.org/2000/svg" width="100" height="100" viewBox="0 0 100 100">
  <defs>
    <style>
      .cls-1 {
        fill-rule: evenodd;
      }
    </style>
  </defs>
  <path id="모양_2" data-name="모양 2" class="cls-1" d="M83.026,14.821a9.787,9.787,0,0,0-9.784-9.77H24.767a9.787,9.787,0,0,0-9.784,9.77V92.314H15a2.637,2.637,0,0,0,.694,1.813,2.672,2.672,0,0,0,3.773.139L49,66.864l29.536,27.4a2.672,2.672,0,0,0,3.773-.139,2.637,2.637,0,0,0,.694-1.813h0.018V14.821ZM47.187,61.275L20.32,86.2V14.821a4.448,4.448,0,0,1,4.447-4.441H73.242a4.448,4.448,0,0,1,4.447,4.441V86.2L50.821,61.275A2.672,2.672,0,0,0,47.187,61.275Z"/>
</svg>
