<svg xmlns="http://www.w3.org/2000/svg" width="100" height="100" viewBox="0 0 100 100">
  <defs>
    <style>
      .cls-1 {
        fill-rule: evenodd;
      }
    </style>
  </defs>
  <path id="모양_2" data-name="모양 2" class="cls-1" d="M85.651,26.662H73.3L66.439,15.577a7.539,7.539,0,0,0-6.479-3.563H40.067a7.525,7.525,0,0,0-6.43,3.473L26.726,26.662H14.376A9.361,9.361,0,0,0,5.014,36v42.67a9.361,9.361,0,0,0,9.362,9.341H85.651a9.361,9.361,0,0,0,9.362-9.341V36A9.361,9.361,0,0,0,85.651,26.662Zm4.255,52.01a4.254,4.254,0,0,1-4.255,4.246H14.376a4.254,4.254,0,0,1-4.255-4.246V36a4.255,4.255,0,0,1,4.255-4.246H28.152a2.559,2.559,0,0,0,2.174-1.209l7.709-12.473a2.452,2.452,0,0,1,2.031-.965H59.96a2.431,2.431,0,0,1,2.081,1.055L69.7,30.548a2.559,2.559,0,0,0,2.174,1.209H85.651A4.254,4.254,0,0,1,89.906,36v42.67ZM50.013,34.941A18.257,18.257,0,1,0,68.311,53.2,18.3,18.3,0,0,0,50.013,34.941Zm0,31.418A13.162,13.162,0,1,1,63.2,53.2,13.191,13.191,0,0,1,50.013,66.359Z"/>
</svg>
