<svg xmlns="http://www.w3.org/2000/svg" width="100" height="100" viewBox="0 0 100 100">
  <defs>
    <style>
      .cls-1 {
        fill-rule: evenodd;
      }
    </style>
  </defs>
  <path id="모양_2" data-name="모양 2" class="cls-1" d="M90.019,52.08a4.9,4.9,0,0,0-.052-0.53c0.11-3.906,0-22.827-11.675-35.426C71.469,8.761,62.02,5.029,50.207,5.029S28.882,8.761,21.931,16.121C9.007,29.808,9.588,50.994,9.633,52.2V77.329a4.791,4.791,0,0,0,4.744,4.826H25.219a4.791,4.791,0,0,0,4.744-4.826V52.166a4.791,4.791,0,0,0-4.744-4.826H14.376a4.537,4.537,0,0,0-.511.053c0.528-6.806,2.65-19.58,11.016-28.424,6.152-6.5,14.673-9.8,25.326-9.8s19.087,3.289,25.109,9.778C83.5,27.757,85.39,40.491,85.8,47.308a4.579,4.579,0,0,0-.522-0.053H74.433A4.791,4.791,0,0,0,69.69,52.08V77.243a4.791,4.791,0,0,0,4.743,4.826H83.08c-5.253,6.679-15.84,8.469-24.425,8.7a4.371,4.371,0,0,0-.05-2.494,4.976,4.976,0,0,0-3.545-3.035c-3.625-.557-9.982-1.043-11.851,1.978a4.906,4.906,0,0,0,.861,6.521,2.022,2.022,0,0,0,.941.416,79.632,79.632,0,0,0,11.544.809c10.981,0,26.581-2.235,32.021-14.092a1.963,1.963,0,0,0,.053-0.225,4.852,4.852,0,0,0,1.389-3.408V52.08Zm-75.643-.6H25.219a0.692,0.692,0,0,1,.678.689V77.329a0.692,0.692,0,0,1-.678.689H14.376a0.692,0.692,0,0,1-.678-0.689V52.166A0.692,0.692,0,0,1,14.376,51.477ZM54.171,90.766c-3.613-.106-6.468-0.422-7.768-0.588a0.982,0.982,0,0,1,.171-0.656c0.739-.617,4.495-0.7,7.647-0.237a1.542,1.542,0,0,1,.52.281A2.268,2.268,0,0,1,54.171,90.766ZM73.756,77.243V52.08a0.692,0.692,0,0,1,.678-0.689H85.276a0.66,0.66,0,0,1,.611.529c0,0.041,0,.121,0,0.127a2.015,2.015,0,0,0,.071.511V77.243a0.692,0.692,0,0,1-.678.689H74.433A0.692,0.692,0,0,1,73.756,77.243Z"/>
</svg>
