<svg xmlns="http://www.w3.org/2000/svg" width="100" height="100" viewBox="0 0 100 100">
  <defs>
    <style>
      .cls-1 {
        fill-rule: evenodd;
      }
    </style>
  </defs>
  <path id="모양_2" data-name="모양 2" class="cls-1" d="M94.963,58.667c0.122-4.253,0-24.859-12.972-38.581C74.41,12.068,63.911,8,50.786,8s-23.694,4.065-31.418,12.08C5.008,34.989,5.654,58.061,5.7,59.375V86.741A5.27,5.27,0,0,0,10.974,92H23.021a5.269,5.269,0,0,0,5.271-5.255v-27.4a5.269,5.269,0,0,0-5.271-5.255H10.974a5.221,5.221,0,0,0-.568.057c0.586-7.412,2.945-21.323,12.24-30.955,6.835-7.084,16.3-10.677,28.14-10.677,11.821,0,21.207,3.582,27.9,10.649,9.088,9.6,11.194,23.466,11.646,30.89a5.138,5.138,0,0,0-.58-0.058H77.7a5.269,5.269,0,0,0-5.271,5.255v27.4A5.269,5.269,0,0,0,77.7,91.9H89.751a5.269,5.269,0,0,0,5.271-5.255v-27.4A5.142,5.142,0,0,0,94.963,58.667Zm-83.989-.079H23.021a0.761,0.761,0,0,1,.753.751v27.4a0.761,0.761,0,0,1-.753.751H10.974a0.761,0.761,0,0,1-.753-0.751v-27.4A0.761,0.761,0,0,1,10.974,58.587ZM89.751,87.4H77.7a0.761,0.761,0,0,1-.753-0.751v-27.4a0.761,0.761,0,0,1,.753-0.751H89.751a0.729,0.729,0,0,1,.679.576c0,0.044-.005.132-0.005,0.138a2.152,2.152,0,0,0,.079.556V86.647A0.761,0.761,0,0,1,89.751,87.4Z"/>
</svg>
