<svg xmlns="http://www.w3.org/2000/svg" width="100" height="100" viewBox="0 0 100 100">
  <defs>
    <style>
      .cls-1 {
        fill-rule: evenodd;
      }
    </style>
  </defs>
  <path id="모양_2" data-name="모양 2" class="cls-1" d="M91.577,69L77.86,57.609a9.464,9.464,0,0,0-13.216,1.146l-4.382,5.169c-0.68.264-5.181,1.39-16.132-8.651-10.148-10.842-9.007-15.3-8.741-15.971l5.221-4.338a9.232,9.232,0,0,0,1.158-13.082L30.256,8.3A9.465,9.465,0,0,0,17.04,7.159L6.915,15.569l-0.375.386C5.5,17.282-2.65,29.994,32.626,66.751c24.368,22.912,38.261,27.261,45.3,27.259,3.659,0,5.466-1.175,5.924-1.53l8.887-10.393A9.232,9.232,0,0,0,91.577,69Zm-2.763,9.828-8.236,9.714c-1.319.57-12.933,4.15-44.335-25.376C6.255,31.919,9.973,20.453,10.521,19.187l9.808-8.148a4.315,4.315,0,0,1,6.006.519L37.847,25.137a4.2,4.2,0,0,1-.525,5.947L31.658,35.8c-1.1,1.1-5.863,7.37,8.786,22.984l0.135,0.134c15.773,14.5,22.109,9.786,23.374,8.527l4.61-5.437a4.3,4.3,0,0,1,6.01-.521l13.717,11.4A4.209,4.209,0,0,1,88.814,78.832ZM50.377,49.284a2.491,2.491,0,0,0,.361.53c0.058,0.066.11,0.132,0.174,0.191a2.542,2.542,0,0,0,.684.456c0.021,0.009.037,0.026,0.057,0.034l0.008,0a2.569,2.569,0,0,0,.979.193H71.629a2.533,2.533,0,1,0,0-5.065H58.816L83.285,21.407a2.514,2.514,0,0,0,0-3.581,2.576,2.576,0,0,0-3.618,0L55.2,42.047V29.364a2.558,2.558,0,0,0-5.117,0v18.8a2.477,2.477,0,0,0,.18.885A2.445,2.445,0,0,0,50.377,49.284Z"/>
</svg>
