<svg xmlns="http://www.w3.org/2000/svg" width="100" height="100" viewBox="0 0 100 100">
  <defs>
    <style>
      .cls-1 {
        fill-rule: evenodd;
      }
    </style>
  </defs>
  <path id="모양_2" data-name="모양 2" class="cls-1" d="M94.924,49.92a2.092,2.092,0,0,0-.023-0.3L84.924,14.64a2.253,2.253,0,0,0-2.174-1.627H17.433a2.255,2.255,0,0,0-2.171,1.617L5.1,49.608a2.088,2.088,0,0,0-.025.309,2.072,2.072,0,0,0-.063.307V85.76a2.247,2.247,0,0,0,2.259,2.233H92.727a2.246,2.246,0,0,0,2.259-2.233V50.224A2.118,2.118,0,0,0,94.924,49.92ZM19.133,17.479H81.042l8.7,30.513H64.589a2.139,2.139,0,0,0-.3.059,2.239,2.239,0,0,0-.38.076,2.19,2.19,0,0,0-.474.221,2.145,2.145,0,0,0-.256.171,2.174,2.174,0,0,0-.385.411,1.818,1.818,0,0,0-.366.793c-0.014.059-.052,0.1-0.062,0.165a12.543,12.543,0,0,1-24.744,0,2.235,2.235,0,0,0-2.172-1.849,2.133,2.133,0,0,0-.234-0.047H10.267ZM90.468,83.528H9.527V52.457H33.64a17,17,0,0,0,32.719,0h24.11V83.528Z"/>
</svg>
