<svg xmlns="http://www.w3.org/2000/svg" width="100" height="100" viewBox="0 0 100 100">
  <defs>
    <style>
      .cls-1 {
        fill-rule: evenodd;
      }
    </style>
  </defs>
  <path id="모양_2" data-name="모양 2" class="cls-1" d="M7.2,31.176L47.134,53.6a2.309,2.309,0,0,0,2.206.03L91.816,31.205a2.258,2.258,0,0,0,.006-4L50.618,5.28a2.3,2.3,0,0,0-2.164,0L7.25,27.2A2.257,2.257,0,0,0,7.2,31.176ZM49.536,9.852L85.888,29.2,48.3,49.042,13.068,29.256ZM91.823,46.707L80.943,40.92a2.3,2.3,0,0,0-3.1.924,2.259,2.259,0,0,0,.936,3.072L85.888,48.7,48.3,68.545,13.068,48.758l7.183-3.822a2.259,2.259,0,0,0,.936-3.071,2.3,2.3,0,0,0-3.1-.925L7.25,46.707a2.257,2.257,0,0,0-.048,3.97l39.932,22.43a2.309,2.309,0,0,0,2.206.03l42.477-22.43A2.258,2.258,0,0,0,91.823,46.707Zm0,21.572L80.943,62.49a2.3,2.3,0,0,0-3.1.924,2.259,2.259,0,0,0,.936,3.071l7.109,3.783L48.3,90.115,13.068,70.329l7.183-3.823a2.259,2.259,0,0,0,.936-3.071,2.3,2.3,0,0,0-3.1-.924L7.25,68.278a2.257,2.257,0,0,0-.048,3.97L47.134,94.677a2.308,2.308,0,0,0,2.206.03L91.816,72.278A2.258,2.258,0,0,0,91.823,68.278Z"/>
</svg>
