<svg xmlns="http://www.w3.org/2000/svg" width="100" height="100" viewBox="0 0 100 100">
  <defs>
    <style>
      .cls-1 {
        fill-rule: evenodd;
      }
    </style>
  </defs>
  <path id="모양_2" data-name="모양 2" class="cls-1" d="M93.638,17.431L65.264,5.589l0,0-0.011,0a2.257,2.257,0,0,0-.86-0.174H64.379a2.129,2.129,0,0,0-.274.055,2.229,2.229,0,0,0-.578.112L35.275,17.065,8.129,5.227s-0.01,0-.014,0a2.3,2.3,0,0,0-.488-0.1,2.294,2.294,0,0,0-.375-0.075c-0.009,0-.016-0.005-0.025-0.005a2.138,2.138,0,0,0-.428.086,2.281,2.281,0,0,0-.4.079,2.2,2.2,0,0,0-.447.277,2.174,2.174,0,0,0-.28.188,2.221,2.221,0,0,0-.348.487,2.094,2.094,0,0,0-.15.21c0,0.005,0,.011,0,0.016a2.217,2.217,0,0,0-.09.408,2.265,2.265,0,0,0-.093.457c0,0.005,0,.009,0,0.014V80.574a2.063,2.063,0,0,0,.049.242,2.206,2.206,0,0,0,.12.592,2.145,2.145,0,0,0,.22.344,2.136,2.136,0,0,0,.25.367,2.241,2.241,0,0,0,.481.335,2.068,2.068,0,0,0,.22.153l0.027,0.012,0,0L34.341,94.827s0.009,0,.014,0a2.271,2.271,0,0,0,.458.1,2.264,2.264,0,0,0,.418.084l0.012,0a2.152,2.152,0,0,0,.441-0.088,2.2,2.2,0,0,0,.412-0.078l28.272-11.5L91.9,94.841a2.264,2.264,0,0,0,2.11-.2,2.22,2.22,0,0,0,1-1.851V19.479A2.221,2.221,0,0,0,93.638,17.431ZM9.469,10.665L33,20.929V89.387L9.469,79.125V10.665Zm28.016,10.3L62.121,10.95,61.771,79.6,37.484,89.481V20.97ZM90.527,89.448L66.255,79.316,66.6,10.969l23.924,9.985V89.448Z"/>
</svg>
