<svg xmlns="http://www.w3.org/2000/svg" width="100" height="100" viewBox="0 0 100 100">
  <defs>
    <style>
      .cls-1 {
        fill-rule: evenodd;
      }
    </style>
  </defs>
  <path id="모양_2" data-name="모양 2" class="cls-1" d="M86.66,13H13.381a8.318,8.318,0,0,0-8.368,8.25v58.5A8.318,8.318,0,0,0,13.381,88H86.66a8.318,8.318,0,0,0,8.368-8.25V21.25A8.318,8.318,0,0,0,86.66,13ZM13.381,17.5H86.66a3.78,3.78,0,0,1,3.8,3.75v50L72.16,53.459a2.307,2.307,0,0,0-3.165-.038L58.224,63.388l-25.062-24a2.3,2.3,0,0,0-3.185.007L9.578,59.086V21.25A3.78,3.78,0,0,1,13.381,17.5Zm73.279,66H13.381a3.781,3.781,0,0,1-3.8-3.75V65.381l22-21.238L56.607,68.113a2.306,2.306,0,0,0,3.153.026l10.76-9.957L90.464,77.565V79.75A3.781,3.781,0,0,1,86.66,83.5ZM70.082,43.249a7.595,7.595,0,1,0-7.7-7.594A7.658,7.658,0,0,0,70.082,43.249Zm0-10.687a3.094,3.094,0,1,1-3.138,3.094A3.12,3.12,0,0,1,70.082,32.562Z"/>
</svg>
