<svg xmlns="http://www.w3.org/2000/svg" width="100" height="100" viewBox="0 0 100 100">
  <defs>
    <style>
      .cls-1 {
        fill-rule: evenodd;
      }
    </style>
  </defs>
  <path id="모양_2" data-name="모양 2" class="cls-1" d="M86.72,6.02H13.278a8.292,8.292,0,0,0-8.271,8.295V84.693a8.291,8.291,0,0,0,8.271,8.295H86.72a8.291,8.291,0,0,0,8.272-8.294V14.315A8.292,8.292,0,0,0,86.72,6.02Zm3.76,78.673a3.769,3.769,0,0,1-3.76,3.77H13.278a3.769,3.769,0,0,1-3.76-3.77V14.315a3.769,3.769,0,0,1,3.76-3.77H86.72a3.768,3.768,0,0,1,3.76,3.77V84.693ZM23.289,18.765H19.632a3.1,3.1,0,0,0-3.093,3.1v2.087a3.1,3.1,0,0,0,3.093,3.1h3.657a3.1,3.1,0,0,0,3.1-3.1V21.868A3.1,3.1,0,0,0,23.289,18.765Zm0,17.708H19.632a3.1,3.1,0,0,0-3.093,3.1v2.087a3.1,3.1,0,0,0,3.093,3.1h3.657a3.1,3.1,0,0,0,3.1-3.1V39.578A3.1,3.1,0,0,0,23.289,36.474Zm0,17.71H19.632a3.1,3.1,0,0,0-3.093,3.1v2.087a3.1,3.1,0,0,0,3.093,3.1h3.657a3.1,3.1,0,0,0,3.1-3.1V57.288A3.1,3.1,0,0,0,23.289,54.184Zm0,17.71H19.632A3.1,3.1,0,0,0,16.539,75v2.087a3.1,3.1,0,0,0,3.093,3.1h3.657a3.1,3.1,0,0,0,3.1-3.1V75A3.1,3.1,0,0,0,23.289,71.893Zm57.2-53.128H76.836a3.1,3.1,0,0,0-3.1,3.1v2.087a3.1,3.1,0,0,0,3.1,3.1h3.657a3.1,3.1,0,0,0,3.093-3.1V21.868A3.1,3.1,0,0,0,80.493,18.765Zm0,17.708H76.836a3.1,3.1,0,0,0-3.1,3.1v2.087a3.1,3.1,0,0,0,3.1,3.1h3.657a3.1,3.1,0,0,0,3.093-3.1V39.578A3.1,3.1,0,0,0,80.493,36.474Zm0,17.71H76.836a3.1,3.1,0,0,0-3.1,3.1v2.087a3.1,3.1,0,0,0,3.1,3.1h3.657a3.1,3.1,0,0,0,3.093-3.1V57.288A3.1,3.1,0,0,0,80.493,54.184Zm0,17.71H76.836a3.1,3.1,0,0,0-3.1,3.1v2.087a3.1,3.1,0,0,0,3.1,3.1h3.657a3.1,3.1,0,0,0,3.093-3.1V75A3.1,3.1,0,0,0,80.493,71.893Z"/>
</svg>
