<svg xmlns="http://www.w3.org/2000/svg" width="100" height="100" viewBox="0 0 100 100">
  <defs>
    <style>
      .cls-1 {
        fill-rule: evenodd;
      }
    </style>
  </defs>
  <path id="모양_2" data-name="모양 2" class="cls-1" d="M26.12,15H7.219a2.245,2.245,0,0,0-2.238,2.25v18a2.238,2.238,0,1,0,4.477,0V19.5H26.12A2.25,2.25,0,0,0,26.12,15Zm66.653,0h-18.9a2.25,2.25,0,0,0,0,4.5H90.535V35.25a2.238,2.238,0,1,0,4.477,0v-18A2.245,2.245,0,0,0,92.773,15ZM26.12,79.5H9.457V63.75a2.238,2.238,0,1,0-4.477,0v18A2.245,2.245,0,0,0,7.219,84h18.9A2.25,2.25,0,0,0,26.12,79.5Zm66.653-18a2.245,2.245,0,0,0-2.238,2.25V79.5H73.872a2.25,2.25,0,0,0,0,4.5h18.9a2.245,2.245,0,0,0,2.238-2.25v-18A2.245,2.245,0,0,0,92.773,61.5Z"/>
</svg>
