<svg xmlns="http://www.w3.org/2000/svg" width="100" height="100" viewBox="0 0 100 100">
  <defs>
    <style>
      .cls-1 {
        fill-rule: evenodd;
      }
    </style>
  </defs>
  <path id="모양_2" data-name="모양 2" class="cls-1" d="M62.556,38.817L40.711,17.494a2.287,2.287,0,0,0-.742-0.481,2.326,2.326,0,0,0-.872-0.172H13.384a8.281,8.281,0,0,0-8.37,8.17V86.845a8.281,8.281,0,0,0,8.37,8.17H54.855a8.281,8.281,0,0,0,8.37-8.17V40.393a2.182,2.182,0,0,0-.176-0.852A2.229,2.229,0,0,0,62.556,38.817ZM41.379,24.448L55.431,38.165H47.011a5.572,5.572,0,0,1-5.631-5.5v-8.22Zm13.476,66.11H13.384a3.763,3.763,0,0,1-3.8-3.714V25.011a3.763,3.763,0,0,1,3.8-3.714h23.43V32.668a10.089,10.089,0,0,0,10.2,9.953H58.66V86.845A3.763,3.763,0,0,1,54.855,90.559Zm39.995-62.9a2.225,2.225,0,0,0-.493-0.724L72.511,5.61a2.287,2.287,0,0,0-.742-0.481A2.329,2.329,0,0,0,70.9,4.957H45.184a8.432,8.432,0,0,0-6.478,3.007,2.194,2.194,0,0,0,.321,3.137,2.324,2.324,0,0,0,3.213-.313,3.831,3.831,0,0,1,2.944-1.374h23.43V20.784a10.089,10.089,0,0,0,10.2,9.953H90.46V74.961a3.763,3.763,0,0,1-3.8,3.714H68.171a2.229,2.229,0,1,0,0,4.456H86.655a8.281,8.281,0,0,0,8.37-8.17V28.509A2.178,2.178,0,0,0,94.85,27.657ZM73.18,20.784V12.565L87.232,26.281H78.811A5.572,5.572,0,0,1,73.18,20.784Z"/>
</svg>
