<svg xmlns="http://www.w3.org/2000/svg" width="100" height="100" viewBox="0 0 100 100">
  <defs>
    <style>
      .cls-1 {
        fill-rule: evenodd;
      }
    </style>
  </defs>
  <path id="모양_2" data-name="모양 2" class="cls-1" d="M82.825,31.174a2.562,2.562,0,0,0-.559-0.833L57.484,5.8a2.643,2.643,0,0,0-1.831-.752H26.48a9.459,9.459,0,0,0-9.5,9.4V85.614a9.459,9.459,0,0,0,9.5,9.4H73.529a9.459,9.459,0,0,0,9.5-9.4V32.154A2.537,2.537,0,0,0,82.825,31.174ZM58.242,13.8L74.183,29.59H64.629a6.364,6.364,0,0,1-6.387-6.326V13.8ZM73.529,89.888H26.48a4.3,4.3,0,0,1-4.316-4.274V14.452a4.3,4.3,0,0,1,4.316-4.274H53.063V23.264A11.524,11.524,0,0,0,64.629,34.718H77.845v50.9A4.3,4.3,0,0,1,73.529,89.888Z"/>
</svg>
