<svg xmlns="http://www.w3.org/2000/svg" width="100" height="100" viewBox="0 0 100 100">
  <defs>
    <style>
      .cls-1 {
        fill-rule: evenodd;
      }
    </style>
  </defs>
  <path id="모양_2" data-name="모양 2" class="cls-1" d="M88.623,12.072L83.134,6.387a4.855,4.855,0,0,0-6.837,0l-5.633,5.834a7.537,7.537,0,0,0-1.919-.276H19.807a7.915,7.915,0,0,0-7.806,8V87.006a7.915,7.915,0,0,0,7.806,8H68.745a7.915,7.915,0,0,0,7.806-8V31.423l12.072-12.5A4.973,4.973,0,0,0,88.623,12.072ZM72.985,87.006a4.366,4.366,0,0,1-4.24,4.473H19.807a4.366,4.366,0,0,1-4.24-4.473V19.949a4.366,4.366,0,0,1,4.24-4.473H67.522L47.371,36.345l0.015,0.014a1.716,1.716,0,0,0-.436.7L42.566,51.7a1.733,1.733,0,0,0-.069.48c0,0.008,0,.015,0,0.023h0c0,0.035.014,0.067,0.016,0.1a1.721,1.721,0,0,0,.071.441l0,0a1.754,1.754,0,0,0,.656.886c0.038,0.027.087,0.039,0.127,0.063a1.8,1.8,0,0,0,.383.184c0.008,0,.013.008,0.021,0.01a1.816,1.816,0,0,0,.5.071l0.012,0h0c0.018,0,.035-0.008.053-0.008a1.787,1.787,0,0,0,.5-0.078l14.131-4.54a1.75,1.75,0,0,0,.723-0.474L59.7,48.879,72.985,35.117V87.006Zm13.06-70.522L57.43,46.118l-10.48,3.367,3.3-11.012L78.874,8.827a1.179,1.179,0,0,1,1.681,0l5.488,5.684A1.451,1.451,0,0,1,86.044,16.483Z"/>
</svg>
