<svg xmlns="http://www.w3.org/2000/svg" width="100" height="100" viewBox="0 0 100 100">
  <defs>
    <style>
      .cls-1 {
        fill-rule: evenodd;
      }
    </style>
  </defs>
  <path id="모양_2" data-name="모양 2" class="cls-1" d="M92.757,19.107c-0.022-.025-0.053-0.034-0.075-0.058S92.654,19,92.632,18.973L81.115,7.461c-0.022-.022-0.053-0.029-0.076-0.05s-0.033-.053-0.058-0.075c-4.524-3.919-9.227-2.026-11.224.135L59.126,18.215s-0.011.006-.016,0.01-0.006.012-.011,0.017L17.2,60.587a2.552,2.552,0,0,0-.542.81L5.228,88.525a2.558,2.558,0,0,0-.182.686,5.584,5.584,0,0,0,1.367,4.362,4.994,4.994,0,0,0,3.748,1.479c0.189,0,.385-0.007.589-0.023a2.589,2.589,0,0,0,.792-0.192L38.68,83.413a2.556,2.556,0,0,0,.81-0.542L92.558,30.39C94.786,28.332,96.677,23.631,92.757,19.107Zm-56.53,59.76L10.275,89.792,21.2,63.848,60.94,23.69,76.4,39.141ZM89.006,26.673l-8.953,8.854-15.5-15.492,8.891-8.985c0.676-.689,2.111-1.582,4.134.147L88.894,22.505C90.619,24.521,89.731,25.96,89.006,26.673Z"/>
</svg>
