<svg xmlns="http://www.w3.org/2000/svg" width="100" height="100" viewBox="0 0 100 100">
  <defs>
    <style>
      .cls-1 {
        fill-rule: evenodd;
      }
    </style>
  </defs>
  <path id="모양_2" data-name="모양 2" class="cls-1" d="M85.785,21.4H80.392V14.541a2.555,2.555,0,1,0-5.11,0V21.4H61.845V14.541a2.555,2.555,0,1,0-5.11,0V21.4H43.3V14.541a2.555,2.555,0,1,0-5.11,0V21.4H24.751V14.541a2.555,2.555,0,1,0-5.11,0V21.4h-5.4A9.269,9.269,0,0,0,5.02,30.694V78.724a9.269,9.269,0,0,0,9.225,9.292h71.54a9.27,9.27,0,0,0,9.229-9.292V30.694A9.269,9.269,0,0,0,85.785,21.4ZM89.9,78.724a4.136,4.136,0,0,1-4.119,4.146H14.245a4.135,4.135,0,0,1-4.115-4.146V30.694a4.135,4.135,0,0,1,4.115-4.146h5.4v6a2.555,2.555,0,1,0,5.11,0v-6H38.188v6a2.555,2.555,0,1,0,5.11,0v-6H56.735v6a2.555,2.555,0,1,0,5.11,0v-6H75.282v6a2.555,2.555,0,1,0,5.11,0v-6h5.393A4.136,4.136,0,0,1,89.9,30.694V78.724ZM62.245,46.186L47.524,61.265l-6.438-8.158a2.544,2.544,0,0,0-3.59-.414,2.587,2.587,0,0,0-.409,3.617l8.234,10.434a2.55,2.55,0,0,0,1.866.968c0.043,0,.09,0,0.133,0a2.557,2.557,0,0,0,1.823-.769L65.891,49.794a2.585,2.585,0,0,0-.033-3.639A2.541,2.541,0,0,0,62.245,46.186Z"/>
</svg>
