<svg xmlns="http://www.w3.org/2000/svg" width="100" height="100" viewBox="0 0 100 100">
  <defs>
    <style>
      .cls-1 {
        fill-rule: evenodd;
      }
    </style>
  </defs>
  <path id="모양_2" data-name="모양 2" class="cls-1" d="M85.788,21.4H72.3V14.541a2.555,2.555,0,1,0-5.11,0V21.4H32.842V14.541a2.555,2.555,0,1,0-5.11,0V21.4H14.249A9.269,9.269,0,0,0,5.02,30.694V78.724a9.27,9.27,0,0,0,9.229,9.292h71.54a9.269,9.269,0,0,0,9.225-9.292V30.694A9.269,9.269,0,0,0,85.788,21.4Zm-71.54,5.146H27.732v6a2.555,2.555,0,1,0,5.11,0v-6H67.191v6a2.555,2.555,0,1,0,5.11,0v-6H85.788A4.135,4.135,0,0,1,89.9,30.694V45.417H10.13V30.694A4.136,4.136,0,0,1,14.249,26.548ZM85.788,82.87H14.249a4.136,4.136,0,0,1-4.119-4.146V50.563H89.9V78.724A4.135,4.135,0,0,1,85.788,82.87Z"/>
</svg>
