<svg xmlns="http://www.w3.org/2000/svg" width="100" height="100" viewBox="0 0 100 100">
  <defs>
    <style>
      .cls-1 {
        fill-rule: evenodd;
      }
    </style>
  </defs>
  <path id="모양_2" data-name="모양 2" class="cls-1" d="M86.387,13.373H80.855V11.332a6.562,6.562,0,0,0-13.119,0v2.041H34.776V11.332a6.564,6.564,0,0,0-13.122,0v2.041H13.695a8.553,8.553,0,0,0-8.66,8.421V86.613a8.553,8.553,0,0,0,8.66,8.421H86.387a8.553,8.553,0,0,0,8.66-8.421V21.795A8.553,8.553,0,0,0,86.387,13.373ZM72.46,11.332a1.837,1.837,0,0,1,3.672,0V18.1a1.837,1.837,0,0,1-3.672,0V11.332Zm-46.083,0a1.838,1.838,0,0,1,3.675,0V18.1a1.838,1.838,0,0,1-3.675,0V11.332ZM13.695,17.967h7.959V18.1a6.564,6.564,0,0,0,13.122,0V17.967h32.96V18.1a6.562,6.562,0,0,0,13.119,0V17.967h5.532a3.887,3.887,0,0,1,3.936,3.828V32.512H9.758V21.795A3.887,3.887,0,0,1,13.695,17.967ZM86.387,90.441H13.695a3.887,3.887,0,0,1-3.936-3.828V37.106H90.324V86.613A3.887,3.887,0,0,1,86.387,90.441ZM79.5,42.72H23.013a7,7,0,0,0-7.085,6.89V77.936a7,7,0,0,0,7.085,6.89H79.5a7,7,0,0,0,7.085-6.89V49.611A7,7,0,0,0,79.5,42.72ZM20.651,60.137H31.082v8.23H20.651v-8.23Zm15.155,0h12.3v8.23h-12.3v-8.23Zm12.3-4.593h-12.3v-8.23h12.3v8.23Zm4.724-8.23h12.3v8.23H52.83v-8.23ZM48.107,72.96v7.273h-12.3V72.96h12.3Zm4.724,0h12.3v7.273H52.83V72.96Zm0-4.593v-8.23h12.3v8.23H52.83Zm17.024-8.23H81.861v8.23H69.855v-8.23ZM81.861,49.611v5.933H69.855v-8.23H79.5A2.333,2.333,0,0,1,81.861,49.611Zm-58.848-2.3h8.069v8.23H20.651V49.611A2.333,2.333,0,0,1,23.013,47.314ZM20.651,77.936V72.96H31.082v7.273H23.013A2.333,2.333,0,0,1,20.651,77.936Zm58.848,2.3H69.855V72.96H81.861v4.976A2.333,2.333,0,0,1,79.5,80.233Z"/>
</svg>
