<svg xmlns="http://www.w3.org/2000/svg" width="100" height="100" viewBox="0 0 100 100">
  <defs>
    <style>
      .cls-1 {
        fill-rule: evenodd;
      }
    </style>
  </defs>
  <path id="모양_2" data-name="모양 2" class="cls-1" d="M50,4.978A45.025,45.025,0,1,0,95.027,50,45.075,45.075,0,0,0,50,4.978Zm0,85.432A40.407,40.407,0,1,1,90.409,50,40.452,40.452,0,0,1,50,90.409Zm2.225-43.792V21.782a2.309,2.309,0,1,0-4.618,0V46.616a4.034,4.034,0,0,0-1.8,3.3,3.834,3.834,0,0,0,.118.581L33.371,62.3a2.309,2.309,0,1,0,3.163,3.364L49.1,53.858a3.913,3.913,0,0,0,.82.166,4.109,4.109,0,0,0,4.1-4.105A4.034,4.034,0,0,0,52.227,46.617Z"/>
</svg>
