<svg xmlns="http://www.w3.org/2000/svg" width="100" height="100" viewBox="0 0 100 100">
  <defs>
    <style>
      .cls-1 {
        fill-rule: evenodd;
      }
    </style>
  </defs>
  <path id="모양_2" data-name="모양 2" class="cls-1" d="M87.344,47.284c0-20.236-16.806-36.7-37.466-36.7s-37.465,16.464-37.465,36.7,16.806,36.7,37.465,36.7S87.344,67.521,87.344,47.284ZM49.878,79.642c-18.214,0-33.031-14.515-33.031-32.357S31.664,14.928,49.878,14.928,82.91,29.443,82.91,47.284,68.093,79.642,49.878,79.642ZM24.6,9.136a2.148,2.148,0,0,0,.993-2.913,2.233,2.233,0,0,0-2.973-.973A37.238,37.238,0,0,0,5.269,22.818,2.151,2.151,0,0,0,6.36,25.7a2.248,2.248,0,0,0,.924.2A2.217,2.217,0,0,0,9.3,24.628,32.844,32.844,0,0,1,24.6,9.136ZM22.04,82.369l-9.13,8.944a2.14,2.14,0,0,0,0,3.071,2.249,2.249,0,0,0,3.135,0l9.13-8.944a2.14,2.14,0,0,0,0-3.071A2.249,2.249,0,0,0,22.04,82.369Zm72.685-59.55A37.238,37.238,0,0,0,77.376,5.251a2.241,2.241,0,0,0-2.973.973A2.148,2.148,0,0,0,75.4,9.136a32.843,32.843,0,0,1,15.3,15.492,2.217,2.217,0,0,0,2.015,1.267,2.248,2.248,0,0,0,.924-0.2A2.151,2.151,0,0,0,94.724,22.818ZM77.953,82.369a2.249,2.249,0,0,0-3.135,0,2.14,2.14,0,0,0,0,3.071l9.13,8.944a2.249,2.249,0,0,0,3.135,0,2.14,2.14,0,0,0,0-3.071ZM65.928,46.809H52.095V24.7a2.217,2.217,0,0,0-4.434,0V48.981a2.2,2.2,0,0,0,2.217,2.172H65.928A2.172,2.172,0,1,0,65.928,46.809Z"/>
</svg>
