<svg xmlns="http://www.w3.org/2000/svg" width="100" height="100" viewBox="0 0 100 100">
  <defs>
    <style>
      .cls-1 {
        fill-rule: evenodd;
      }
    </style>
  </defs>
  <path id="모양_2" data-name="모양 2" class="cls-1" d="M85.765,14.013H14.243a9.258,9.258,0,0,0-9.22,9.275v41.6a9.257,9.257,0,0,0,9.22,9.275H47.489v7.8H29.958v5.059H69.909V81.958H52.518v-7.8H85.765a9.258,9.258,0,0,0,9.22-9.275v-41.6A9.259,9.259,0,0,0,85.765,14.013Zm4.191,50.871A4.207,4.207,0,0,1,85.765,69.1H14.243a4.207,4.207,0,0,1-4.191-4.216v-41.6a4.207,4.207,0,0,1,4.191-4.216H85.765a4.207,4.207,0,0,1,4.191,4.216v41.6Z"/>
</svg>
