<svg xmlns="http://www.w3.org/2000/svg" width="100" height="100" viewBox="0 0 100 100">
  <defs>
    <style>
      .cls-1 {
        fill-rule: evenodd;
      }
    </style>
  </defs>
  <path id="모양_2" data-name="모양 2" class="cls-1" d="M67.806,4.981H31.158A9.333,9.333,0,0,0,22,14.458V85.535a9.333,9.333,0,0,0,9.162,9.477H67.806a9.333,9.333,0,0,0,9.162-9.477V14.458A9.333,9.333,0,0,0,67.806,4.981ZM71.97,85.535a4.242,4.242,0,0,1-4.165,4.308H31.158a4.242,4.242,0,0,1-4.164-4.308V14.458a4.242,4.242,0,0,1,4.165-4.308H67.806a4.242,4.242,0,0,1,4.165,4.308V85.535ZM60.449,13.74H38.516a2.586,2.586,0,0,0,0,5.169H60.449A2.586,2.586,0,0,0,60.449,13.74ZM53.786,78.355H45.179a2.586,2.586,0,0,0,0,5.169h8.607A2.586,2.586,0,0,0,53.786,78.355Z"/>
</svg>
