<svg xmlns="http://www.w3.org/2000/svg" width="100" height="100" viewBox="0 0 100 100">
  <defs>
    <style>
      .cls-1 {
        fill-rule: evenodd;
      }
    </style>
  </defs>
  <path id="모양_2" data-name="모양 2" class="cls-1" d="M87.335,19.009H12.65a7.791,7.791,0,0,0-7.678,7.884v46.23a7.791,7.791,0,0,0,7.678,7.884H87.335a7.791,7.791,0,0,0,7.678-7.884V26.894A7.791,7.791,0,0,0,87.335,19.009ZM12.65,23.31H87.335a3.541,3.541,0,0,1,3.49,3.584v4.319L49.993,63.6,9.16,31.212V26.894A3.541,3.541,0,0,1,12.65,23.31Zm74.685,53.4H12.65a3.541,3.541,0,0,1-3.49-3.584V36.647l39.552,31.37a2.052,2.052,0,0,0,2.56,0l39.553-31.37V73.124A3.541,3.541,0,0,1,87.335,76.707Z"/>
</svg>
