<svg xmlns="http://www.w3.org/2000/svg" width="100" height="100" viewBox="0 0 100 100">
  <defs>
    <style>
      .cls-1 {
        fill-rule: evenodd;
      }
    </style>
  </defs>
  <path id="모양_2" data-name="모양 2" class="cls-1" d="M90.612,36.622c-0.022-.019-0.031-0.047-0.054-0.065l-1.032-.831-0.006,0L52.064,5.549a2.435,2.435,0,0,0-3.071,0l-38.318,30.9c-0.025.02-.036,0.051-0.06,0.072a8.005,8.005,0,0,0-3.572,6.629V87.008a7.9,7.9,0,0,0,7.813,7.967H86.2a7.9,7.9,0,0,0,7.813-7.967V43.149A7.956,7.956,0,0,0,90.612,36.622ZM50.529,10.751L86.451,39.688l0,0.005,1.032,0.831c0.046,0.037.1,0.049,0.148,0.082,0.028,0.02.042,0.051,0.071,0.069a2.929,2.929,0,0,1,1.355,2.474v3.86L50.529,77.357,12,47.008V43.149a2.94,2.94,0,0,1,1.45-2.53c0.047-.027.072-0.074,0.116-0.1,0.06-.04.128-0.057,0.186-0.1ZM86.2,89.923H14.856A2.89,2.89,0,0,1,12,87.008V53.394L49.016,82.549a2.438,2.438,0,0,0,3.026,0l37.02-29.156V87.008A2.889,2.889,0,0,1,86.2,89.923Z"/>
</svg>
