<svg xmlns="http://www.w3.org/2000/svg" width="100" height="100" viewBox="0 0 100 100">
  <defs>
    <style>
      .cls-1 {
        fill-rule: evenodd;
      }
    </style>
  </defs>
  <path id="모양_2" data-name="모양 2" class="cls-1" d="M90.613,36.622c-0.022-.019-0.031-0.047-0.054-0.065l-1.032-.831-0.006,0L80.4,28.372V18.6a2.5,2.5,0,0,0-2.477-2.526H65.136L52.067,5.549a2.435,2.435,0,0,0-3.071,0L35.938,16.077H23.14A2.5,2.5,0,0,0,20.663,18.6V28.4l-9.984,8.052c-0.023.019-.033,0.047-0.055,0.066a8,8,0,0,0-3.58,6.635V87.008a7.9,7.9,0,0,0,7.813,7.967H86.2a7.9,7.9,0,0,0,7.813-7.967V43.149A7.955,7.955,0,0,0,90.613,36.622Zm-4.162,3.066,0,0.005,1.032,0.831c0.046,0.037.1,0.049,0.148,0.082,0.028,0.02.042,0.051,0.071,0.069a2.928,2.928,0,0,1,1.355,2.474v3.86L80.4,53.834V34.811ZM50.532,10.751l6.612,5.326H43.926ZM75.442,21.13V57.737l-24.91,19.62L25.618,57.736V21.13H75.442Zm-54.779,32.7L12,47.009v-3.86a2.947,2.947,0,0,1,1.449-2.531c0.044-.025.067-0.069,0.108-0.1,0.063-.042.134-0.06,0.195-0.108l6.913-5.575v19ZM86.2,89.923H14.856A2.889,2.889,0,0,1,12,87.008V53.393L49.019,82.549a2.438,2.438,0,0,0,3.026,0L89.061,53.393V87.008A2.889,2.889,0,0,1,86.2,89.923Z"/>
</svg>
