<svg xmlns="http://www.w3.org/2000/svg" width="100" height="100" viewBox="0 0 100 100">
  <defs>
    <style>
      .cls-1 {
        fill-rule: evenodd;
      }
    </style>
  </defs>
  <path id="모양_2" data-name="모양 2" class="cls-1" d="M86.8,27.293H77.976V7.2a2.236,2.236,0,0,0-2.238-2.233H24.255A2.236,2.236,0,0,0,22.016,7.2V27.293H13.188a8.206,8.206,0,0,0-8.207,8.186V70.952a8.206,8.206,0,0,0,8.207,8.186h8.828V92.782a2.236,2.236,0,0,0,2.238,2.233H75.738a2.236,2.236,0,0,0,2.238-2.233V79.138H86.8a8.206,8.206,0,0,0,8.207-8.186V35.479A8.206,8.206,0,0,0,86.8,27.293ZM26.493,9.433H73.5v17.86H26.493V9.433ZM73.5,90.549H26.493V57.061H73.5V90.549Zm17.036-19.6A3.729,3.729,0,0,1,86.8,74.673H77.976V54.828A2.236,2.236,0,0,0,75.738,52.6H24.255a2.236,2.236,0,0,0-2.238,2.233V74.673H13.188a3.729,3.729,0,0,1-3.731-3.721V35.479a3.729,3.729,0,0,1,3.731-3.721H86.8a3.729,3.729,0,0,1,3.731,3.721V70.952ZM79.716,36.968H74.991a3.349,3.349,0,1,0,0,6.7h4.725A3.349,3.349,0,1,0,79.716,36.968Z"/>
</svg>
