<svg xmlns="http://www.w3.org/2000/svg" width="100" height="100" viewBox="0 0 100 100">
  <defs>
    <style>
      .cls-1 {
        fill-rule: evenodd;
      }
    </style>
  </defs>
  <path id="모양_2" data-name="모양 2" class="cls-1" d="M49.993,30.053A19.934,19.934,0,1,0,69.869,49.988,19.926,19.926,0,0,0,49.993,30.053Zm0,34.629A14.7,14.7,0,1,1,64.647,49.988,14.689,14.689,0,0,1,49.993,64.682ZM94.974,50.439a7.484,7.484,0,0,0-7.339-7.479c-0.017,0-.032-0.011-0.05-0.011a8.182,8.182,0,0,1-6.925-5.484,8.25,8.25,0,0,1,1.163-8.495c0.011-.012.014-0.027,0.024-0.039a7.489,7.489,0,0,0-.065-10.518,7.629,7.629,0,0,0-10.364-.161c-0.022.018-.049,0.022-0.07,0.04a9.208,9.208,0,0,1-9.4,1.262,9.492,9.492,0,0,1-5.413-7.739c0-.076-0.044-0.136-0.054-0.21a7.451,7.451,0,0,0-14.852.905s0,0.006,0,.009,0,0.005,0,.008a7.656,7.656,0,0,1-4.2,6.658c-6.052,2.836-9.35-.182-9.537-0.36,0,0-.008,0-0.012-0.008a7.638,7.638,0,0,0-10.552.008,7.472,7.472,0,0,0-.157,10.408c0.012,0.015.015,0.035,0.027,0.05a9.476,9.476,0,0,1,1.758,8.442c-1.156,3.7-6.072,3.405-6.283,3.393-0.034,0-.064.013-0.1,0.012s-0.06-.019-0.093-0.019a7.493,7.493,0,0,0,0,14.987,2.466,2.466,0,0,0,.478-0.1,2.476,2.476,0,0,0,.378.1,6.459,6.459,0,0,1,5.641,4.585,9.255,9.255,0,0,1-2.033,9.574c-0.013.011-.017,0.028-0.029,0.04s-0.027.015-.039,0.026a7.52,7.52,0,0,0,0,10.6,7.4,7.4,0,0,0,10.134.353c0.317-.187,5.867-3.34,10.212-1.223a11.5,11.5,0,0,1,6.559,7.806c0,0.014.01,0.024,0.013,0.038a7.453,7.453,0,0,0,14.9-.393c0-.006,0-0.012,0-0.018,0-.212.122-5.211,4.291-7.352,5.035-2.576,8.293.411,8.667,0.776l0.008,0.005s0,0.006.006,0.008a7.462,7.462,0,0,0,10.564,0,7.52,7.52,0,0,0,0-10.6c-0.008-.008-0.019-0.01-0.028-0.018s-0.009-.017-0.017-0.024a7.827,7.827,0,0,1-1.415-8.657c1.948-4.363,5.471-3.884,6.174-3.751a1.592,1.592,0,0,1,.558.061c0.136,0,.263-0.033.4-0.04,0.03,0,.058,0,0.087-0.009A7.472,7.472,0,0,0,94.974,50.439ZM76.006,59.481a13.023,13.023,0,0,0,2.53,14.541l0,0a2.252,2.252,0,0,1-3.179,3.19s-0.011-.006-0.016-0.01a12.573,12.573,0,0,0-14.736-1.737c-7.038,3.615-7.133,11.65-7.133,11.99v0a2.249,2.249,0,1,1-4.5,0c0-.066-0.033-0.122-0.038-0.187s0.02-.123.011-0.187A16.676,16.676,0,0,0,39.51,75.341c-7.079-3.455-14.946,1.291-15.276,1.494a2.529,2.529,0,0,0-.227.212,2.425,2.425,0,0,0-.256.17,2.252,2.252,0,0,1-3.18-3.189A14.451,14.451,0,0,0,23.918,58.97,11.727,11.727,0,0,0,13.5,50.862H13.436a2.468,2.468,0,0,0-.482.095,2.467,2.467,0,0,0-.471-0.095,2.255,2.255,0,0,1,0-4.51h0c0.2,0.012.408,0.025,0.633,0.025,3.386,0,9.051-1.429,10.822-7.078,2.332-7.448-2.591-13.208-2.8-13.45-0.02-.023-0.049-0.032-0.07-0.054s-0.028-.052-0.05-0.074a2.254,2.254,0,0,1,0-3.187,2.292,2.292,0,0,1,3.179,0l0,0a12.043,12.043,0,0,0,8.313,3.118A16.7,16.7,0,0,0,39.64,23.93c7.161-3.357,7.217-10.916,7.213-11.413,0,0,0,0,0-.006a2.249,2.249,0,1,1,4.5,0c0,0.03.016,0.055,0.017,0.084a14.658,14.658,0,0,0,8.446,11.741A13.86,13.86,0,0,0,65.541,25.6a15.079,15.079,0,0,0,9.241-3.359c0.024-.021.032-0.05,0.055-0.072s0.053-.028.075-0.05a2.292,2.292,0,0,1,3.179,0,2.252,2.252,0,0,1,0,3.185s-0.005.01-.009,0.014-0.01.006-.014,0.01a13.443,13.443,0,0,0-2.285,14,13.4,13.4,0,0,0,11.642,8.851H87.5a2.25,2.25,0,0,1,.057,4.5C84.552,52.2,78.886,53.036,76.006,59.481Z"/>
</svg>
