<svg xmlns="http://www.w3.org/2000/svg" width="100" height="100" viewBox="0 0 100 100">
  <defs>
    <style>
      .cls-1 {
        fill-rule: evenodd;
      }
    </style>
  </defs>
  <path id="모양_2" data-name="모양 2" class="cls-1" d="M80.984,67.186a13.934,13.934,0,0,0-10.876,5.272L32.443,53.476a12.38,12.38,0,0,0,.016-7.192L70.075,27.5A13.811,13.811,0,1,0,67,18.905a13.676,13.676,0,0,0,.526,3.572L29.91,41.259a13.908,13.908,0,1,0-.033,17.228L67.541,77.471A13.67,13.67,0,0,0,67,81.093,13.987,13.987,0,1,0,80.984,67.186Zm0-56.561a8.281,8.281,0,1,1-8.327,8.28A8.316,8.316,0,0,1,80.984,10.625ZM19,58.135a8.282,8.282,0,1,1,8.328-8.282A8.314,8.314,0,0,1,19,58.135Zm61.983,31.24a8.282,8.282,0,1,1,8.331-8.282A8.314,8.314,0,0,1,80.984,89.375Z"/>
</svg>
