<svg xmlns="http://www.w3.org/2000/svg" width="100" height="100" viewBox="0 0 100 100">
  <defs>
    <style>
      .cls-1 {
        fill-rule: evenodd;
      }
    </style>
  </defs>
  <path id="모양_2" data-name="모양 2" class="cls-1" d="M94.656,9.157A6.909,6.909,0,0,0,90.59,5.185a2.63,2.63,0,0,0-.852-0.142H11.261a2.63,2.63,0,0,0-.852.142A6.908,6.908,0,0,0,6.343,9.157c-0.771,2.157-.318,4.583,1.345,7.21,3.422,5.4,28.13,33.519,32.485,38.465V92.454a2.559,2.559,0,0,0,1.487,2.317,2.624,2.624,0,0,0,2.758-.339l14.892-12.1a2.554,2.554,0,0,0,.946-1.979V54.986c4.444-4.969,29.629-33.21,33.053-38.618C94.974,13.74,95.427,11.314,94.656,9.157ZM88.91,13.652C86.044,18.174,63.979,43.1,55.718,52.318a2.424,2.424,0,0,0-.186.316,1.673,1.673,0,0,0-.39,1.005,2.372,2.372,0,0,0-.077.377V79.144l-9.7,7.881V53.875a2.342,2.342,0,0,0-.073-0.358,2.419,2.419,0,0,0-.109-0.535,2.471,2.471,0,0,0-.272-0.471,2.419,2.419,0,0,0-.184-0.32c-10.079-11.42-29.869-34.172-32.637-38.54a3.866,3.866,0,0,1-.858-2.77,1.484,1.484,0,0,1,.628-0.714H89.14a1.527,1.527,0,0,1,.622.694C89.971,11.448,89.66,12.466,88.91,13.652Z"/>
</svg>
