<svg xmlns="http://www.w3.org/2000/svg" width="100" height="100" viewBox="0 0 100 100">
  <defs>
    <style>
      .cls-1 {
        fill-rule: evenodd;
      }
    </style>
  </defs>
  <path id="모양_2" data-name="모양 2" class="cls-1" d="M86.65,11.012H13.386a8.255,8.255,0,0,0-8.373,8.113V63.2a8.255,8.255,0,0,0,8.373,8.113h7.992V86.8a2.214,2.214,0,0,0,1.4,2.041,2.344,2.344,0,0,0,2.485-.464L43.151,71.309h43.5A8.255,8.255,0,0,0,95.023,63.2V19.125A8.255,8.255,0,0,0,86.65,11.012ZM90.456,63.2a3.752,3.752,0,0,1-3.806,3.688H42.216a2.33,2.33,0,0,0-1.6.635l-14.668,14V69.1a2.249,2.249,0,0,0-2.284-2.213H13.386A3.752,3.752,0,0,1,9.58,63.2V19.125a3.752,3.752,0,0,1,3.806-3.688H86.65a3.752,3.752,0,0,1,3.806,3.688V63.2ZM78.023,27.361H22.837a2.214,2.214,0,1,0,0,4.425H78.023A2.214,2.214,0,1,0,78.023,27.361Zm0,11.064H22.837a2.214,2.214,0,1,0,0,4.425H78.023A2.214,2.214,0,1,0,78.023,38.425ZM59.5,49.488H22.837a2.214,2.214,0,1,0,0,4.426H59.5A2.214,2.214,0,1,0,59.5,49.488Z"/>
</svg>
