<svg xmlns="http://www.w3.org/2000/svg" width="100" height="100" viewBox="0 0 100 100">
  <defs>
    <style>
      .cls-1 {
        fill-rule: evenodd;
      }
    </style>
  </defs>
  <path id="모양_2" data-name="모양 2" class="cls-1" d="M78.1,36.162C78.1,20.65,61.708,8.031,41.558,8.031S5.015,20.65,5.015,36.162c0,9.146,5.671,17.6,15.252,22.882a18.179,18.179,0,0,1-6.92,11.9,2.183,2.183,0,0,0-.937,2.339,2.256,2.256,0,0,0,1.918,1.683,5.993,5.993,0,0,0,.713.034c2.323,0,9.993-.878,19.551-11.213a47.68,47.68,0,0,0,6.967.509C61.708,64.294,78.1,51.673,78.1,36.162ZM41.558,59.872a42.679,42.679,0,0,1-7.431-.646,2.294,2.294,0,0,0-2.134.733A37.66,37.66,0,0,1,21.4,68.682a23.539,23.539,0,0,0,3.577-10.687,2.2,2.2,0,0,0-1.362-2.217c-8.8-4.44-14.047-11.763-14.047-19.616,0-13.073,14.351-23.708,31.991-23.708s31.99,10.636,31.99,23.709S59.2,59.872,41.558,59.872Zm53.487-.425c0-6.33-3.553-12.311-9.749-16.411a2.322,2.322,0,0,0-3.164.583,2.175,2.175,0,0,0,.6,3.074c4.931,3.262,7.76,7.91,7.76,12.755,0,5.683-3.844,11-10.284,14.212h0a2.257,2.257,0,0,0-.706.547c-0.005.006-.006,0.014-0.011,0.02a2.2,2.2,0,0,0-.409.723,2.151,2.151,0,0,0-.1.851,0.078,0.078,0,0,1,0,.009,18.29,18.29,0,0,0,1.737,6.4,30.8,30.8,0,0,1-5.972-5.341,2.322,2.322,0,0,0-2.134-.733,31.335,31.335,0,0,1-5.45.474c-8.154,0-15.836-3.219-20.045-8.4a2.323,2.323,0,0,0-3.2-.366,2.172,2.172,0,0,0-.376,3.107c5.13,6.314,13.96,10.084,23.619,10.084a36.246,36.246,0,0,0,4.986-.343c7.106,7.592,12.774,8.348,14.751,8.348A5.662,5.662,0,0,0,87.587,89,2.256,2.256,0,0,0,89.5,87.313a2.183,2.183,0,0,0-.936-2.339,13.213,13.213,0,0,1-4.83-8.208C90.826,72.707,95.046,66.351,95.046,59.447Z"/>
</svg>
