<svg xmlns="http://www.w3.org/2000/svg" width="100" height="100" viewBox="0 0 100 100">
  <defs>
    <style>
      .cls-1 {
        fill-rule: evenodd;
      }
    </style>
  </defs>
  <path id="모양_2" data-name="모양 2" class="cls-1" d="M69.5,58.147V18.1a2.159,2.159,0,0,0-2.18-2.136H7.186A2.159,2.159,0,0,0,5.005,18.1V58.147a2.159,2.159,0,0,0,2.18,2.136h10.72v13.35a2.139,2.139,0,0,0,1.4,2,2.235,2.235,0,0,0,.779.14,2.2,2.2,0,0,0,1.624-.711L35.231,60.283H67.324A2.159,2.159,0,0,0,69.5,58.147Zm-4.361-2.136H34.257a2.2,2.2,0,0,0-1.624.711L22.266,68.051v-9.9a2.159,2.159,0,0,0-2.18-2.136H9.366V20.233H65.144V56.011ZM92.818,36.954H74.167a2.136,2.136,0,1,0,0,4.272h16.47V68.531h-7.99a2.159,2.159,0,0,0-2.18,2.136V77.3L73.1,69.242a2.2,2.2,0,0,0-1.624-.711H47.581V63.476a2.181,2.181,0,0,0-4.361,0v7.191A2.159,2.159,0,0,0,45.4,72.8H70.5L81.023,84.3a2.2,2.2,0,0,0,1.624.711,2.232,2.232,0,0,0,.779-0.14,2.14,2.14,0,0,0,1.4-2V72.8h7.99A2.159,2.159,0,0,0,95,70.667V39.09A2.159,2.159,0,0,0,92.818,36.954Z"/>
</svg>
