<svg xmlns="http://www.w3.org/2000/svg" width="100" height="100" viewBox="0 0 100 100">
  <defs>
    <style>
      .cls-1 {
        fill-rule: evenodd;
      }
    </style>
  </defs>
  <path id="모양_2" data-name="모양 2" class="cls-1" d="M85.875,77.9a2.547,2.547,0,0,0-.517-1.04c-0.246-.294-6.028-7.234-7.915-9.152a13.705,13.705,0,0,1-2.306-4.34V39.414a2.492,2.492,0,0,0-.268-1.088A25.463,25.463,0,0,0,59.926,16.172a10.3,10.3,0,0,0,.092-1.068,9.924,9.924,0,1,0-19.845,0c0,0.3.047,0.588,0.072,0.882a25.492,25.492,0,0,0-15.4,23.483V63.422a13.729,13.729,0,0,1-2.3,4.342c-1.887,1.918-7.669,8.86-7.915,9.154a2.546,2.546,0,0,0-.517,1.04A6.732,6.732,0,0,0,15.192,83.3c0.837,1.076,2.494,2.359,5.638,2.359H38.511a11.6,11.6,0,0,0,22.765-.054H79.15c3.144,0,4.8-1.284,5.638-2.36A6.73,6.73,0,0,0,85.875,77.9ZM50.1,10.043a5,5,0,0,1,4.926,4.52,24.278,24.278,0,0,0-9.843-.077A5,5,0,0,1,50.1,10.043Zm-0.21,79.922a6.71,6.71,0,0,1-6.221-4.306h6.221a2.264,2.264,0,0,0,.263-0.054h5.977A6.709,6.709,0,0,1,49.885,89.965ZM80.91,80.133a2.406,2.406,0,0,1-1.76.449H50.1a2.289,2.289,0,0,0-.263.054h-29a2.437,2.437,0,0,1-1.754-.443,1.158,1.158,0,0,1-.18-0.626c1.456-1.741,5.7-6.786,7.138-8.251,2.2-2.235,3.5-6.274,3.638-6.727a2.56,2.56,0,0,0,.114-0.755V39.469a20.1,20.1,0,1,1,40.2,0,2.521,2.521,0,0,0,.211,1V63.779a2.576,2.576,0,0,0,.114.757c0.142,0.453,1.44,4.49,3.64,6.726,1.44,1.463,5.677,6.5,7.136,8.246A1.182,1.182,0,0,1,80.91,80.133Z"/>
</svg>
