<svg xmlns="http://www.w3.org/2000/svg" width="100" height="100" viewBox="0 0 100 100">
  <defs>
    <style>
      .cls-1 {
        fill-rule: evenodd;
      }
    </style>
  </defs>
  <path id="모양_2" data-name="모양 2" class="cls-1" d="M93.039,21.456A16.287,16.287,0,0,0,76.947,5.017,15.86,15.86,0,0,0,66.131,9.286a2.464,2.464,0,0,0-.233.323,2.43,2.43,0,0,0-.331.226L47.251,28.614c-0.02.021-.026,0.049-0.045,0.07s-0.065.042-.092,0.073a16.344,16.344,0,0,0-2.888,16.085A15.569,15.569,0,0,0,39.72,44.1,15.873,15.873,0,0,0,28.9,48.371a2.428,2.428,0,0,0-.233.324,2.374,2.374,0,0,0-.332.226L10.022,67.7C10,67.722,10,67.751,9.976,67.773s-0.063.041-.089,0.071A16.647,16.647,0,0,0,6.031,78.519,16.286,16.286,0,0,0,22.122,94.958a15.88,15.88,0,0,0,10.1-3.746,2.432,2.432,0,0,0,.488-0.33l0.859-.874c0.11-.115.246-0.2,0.353-0.316,0.03-.033.038-0.077,0.066-0.111l17.72-18.042c0.047-.048.063-0.112,0.106-0.162a16.342,16.342,0,0,0,3.025-16.243,15.571,15.571,0,0,0,4.508.738,15.877,15.877,0,0,0,10.1-3.741,2.414,2.414,0,0,0,.495-0.335l0.87-.886c0.106-.111.237-0.19,0.34-0.3,0.029-.032.037-0.074,0.064-0.108L88.938,32.451c0.041-.042.055-0.1,0.093-0.141l0,0A16.636,16.636,0,0,0,93.039,21.456ZM11.157,78.519a11.346,11.346,0,0,1,2.58-7.208L31.969,52.618a2.412,2.412,0,0,0,.149-0.23,2.353,2.353,0,0,0,.23-0.14,10.826,10.826,0,0,1,7.372-2.907,10.647,10.647,0,0,1,4.732,1.142L30.92,64.28a2.659,2.659,0,0,0,0,3.7,2.524,2.524,0,0,0,3.625,0L48.435,53.82a11.285,11.285,0,0,1-.478,14.116c-0.019.022-.024,0.052-0.042,0.075L29.777,86.479a10.85,10.85,0,0,1-7.654,3.242A11.1,11.1,0,0,1,11.157,78.519ZM53.364,48.795L66.306,35.6a2.66,2.66,0,0,0,0-3.7,2.525,2.525,0,0,0-3.625,0L49.871,44.957a11.211,11.211,0,0,1,1.1-12.74L69.2,13.53a2.524,2.524,0,0,0,.145-0.224,2.319,2.319,0,0,0,.235-0.144,10.8,10.8,0,0,1,7.369-2.908,11.1,11.1,0,0,1,10.965,11.2,11.336,11.336,0,0,1-2.728,7.393c-0.02.022-.024,0.052-0.042,0.075L66.981,47.417A10.661,10.661,0,0,1,53.364,48.795Z"/>
</svg>
