<svg xmlns="http://www.w3.org/2000/svg" width="100" height="100" viewBox="0 0 100 100">
  <defs>
    <style>
      .cls-1 {
        fill-rule: evenodd;
      }
    </style>
  </defs>
  <path id="모양_2" data-name="모양 2" class="cls-1" d="M95.011,30.52A20.6,20.6,0,0,0,61.763,14.328a2.543,2.543,0,0,0-.954.583L7.893,67.432a2.528,2.528,0,0,0-.584.93,13.242,13.242,0,0,0,18.43,18.355,2.536,2.536,0,0,0,.988-0.59L64.7,48.438a2.551,2.551,0,0,0,0-3.629,2.6,2.6,0,0,0-3.656,0L23.456,82.117c-0.06.039-.13,0.048-0.189,0.092A8.16,8.16,0,0,1,10.153,75.8,7.984,7.984,0,0,1,12.7,69.921c0.005,0,.006-0.012.012-0.017L63.566,19.432h0A15.537,15.537,0,0,1,89.841,30.52a15.261,15.261,0,0,1-4.349,10.692s0,0.007-.006.01L42.617,83.773a2.551,2.551,0,0,0,0,3.629,2.6,2.6,0,0,0,3.656,0L90.056,43.943a2.52,2.52,0,0,0,.589-0.955A20.239,20.239,0,0,0,95.011,30.52Z"/>
</svg>
