<svg xmlns="http://www.w3.org/2000/svg" width="100" height="100" viewBox="0 0 100 100">
  <defs>
    <style>
      .cls-1 {
        fill-rule: evenodd;
      }
    </style>
  </defs>
  <path id="모양_2" data-name="모양 2" class="cls-1" d="M49.5,5a33.372,33.372,0,0,0-33.49,33.176c0,20.057,23.855,51.454,25,52.941A12.469,12.469,0,0,0,49.321,95c0.092,0,.184,0,0.272,0a11.691,11.691,0,0,0,8.3-3.8,2.21,2.21,0,0,0,.226-0.257c1.014-1.326,24.869-32.723,24.869-52.78A33.372,33.372,0,0,0,49.5,5ZM54.21,87.8a6.692,6.692,0,0,1-4.718,2.216,7.664,7.664,0,0,1-4.606-2.086h0c-0.459-.6-23.838-31.45-23.838-49.757a28.452,28.452,0,0,1,56.9,0C77.95,55.926,55.929,85.516,54.21,87.8ZM49.741,19.282A18.651,18.651,0,1,0,68.57,37.933,18.763,18.763,0,0,0,49.741,19.282Zm0,32.308A13.659,13.659,0,1,1,63.531,37.933,13.738,13.738,0,0,1,49.741,51.591Z"/>
</svg>
