<svg xmlns="http://www.w3.org/2000/svg" width="100" height="100" viewBox="0 0 100 100">
  <defs>
    <style>
      .cls-1 {
        fill-rule: evenodd;
      }
    </style>
  </defs>
  <path id="모양_2" data-name="모양 2" class="cls-1" d="M84.038,46.677c-12.449-12.6-31.483-13.031-38.276-12.742V14.346a2.28,2.28,0,0,0-1.336-2.078,2.254,2.254,0,0,0-2.431.372L5.734,44.915a2.285,2.285,0,0,0,0,3.412L41.994,80.6a2.256,2.256,0,0,0,2.432.372A2.28,2.28,0,0,0,45.762,78.9V58.784c30.432-5.134,43.8,26.44,44.364,27.815a2.268,2.268,0,0,0,2.095,1.409,2.169,2.169,0,0,0,.31-0.021A2.274,2.274,0,0,0,94.473,86C96.45,68.914,92.941,55.687,84.038,46.677ZM43.027,54.644a2.034,2.034,0,0,0-.2.087,2.19,2.19,0,0,0-.412.178,2.213,2.213,0,0,0-.358.243,2.25,2.25,0,0,0-.292.3,2.263,2.263,0,0,0-.491,1.2,2.06,2.06,0,0,0-.044.216V73.836L10.656,46.621,41.23,19.406V36.369c0,0.045.023,0.082,0.026,0.127s-0.015.079-.011,0.121a2.191,2.191,0,0,0,.1.315,2.239,2.239,0,0,0,.132.424,2.182,2.182,0,0,0,.269.4,2.218,2.218,0,0,0,.231.278,3.978,3.978,0,0,0,.736.453,2.214,2.214,0,0,0,.483.1,2.153,2.153,0,0,0,.3.061c0.043,0,.078-0.022.121-0.025s0.083,0.016.127,0.011c0.23-.027,23.569-2.422,37.081,11.255,6.518,6.6,9.749,15.93,9.646,27.81C83.87,67.14,68.564,49.223,43.027,54.644Z"/>
</svg>
