<svg xmlns="http://www.w3.org/2000/svg" width="100" height="100" viewBox="0 0 100 100">
  <defs>
    <style>
      .cls-1 {
        fill-rule: evenodd;
      }
    </style>
  </defs>
  <path id="모양_2" data-name="모양 2" class="cls-1" d="M94.245,43.861L58.023,11.545a2.248,2.248,0,0,0-2.429-.373,2.283,2.283,0,0,0-1.335,2.081V32.869c-6.786-.287-25.8.143-38.235,12.757C7.13,54.646,3.625,67.89,5.6,84.993a2.274,2.274,0,0,0,1.94,1.994,2.163,2.163,0,0,0,.31.021A2.266,2.266,0,0,0,9.942,85.6c0.564-1.375,13.911-32.992,44.317-27.85V77.885a2.283,2.283,0,0,0,1.335,2.08,2.249,2.249,0,0,0,2.429-.373L94.245,47.277A2.292,2.292,0,0,0,94.245,43.861ZM58.787,72.818V55.834a2.145,2.145,0,0,0-.044-0.217,2.2,2.2,0,0,0-1.14-1.75,2.18,2.18,0,0,0-.411-0.178,2.029,2.029,0,0,0-.2-0.087C31.461,48.181,16.191,66.117,9.6,76.687c-0.1-11.884,3.119-21.222,9.618-27.828,13.462-13.678,36.829-11.3,37.062-11.287,0.042,0,.079-0.014.12-0.012s0.08,0.025.124,0.025a2.111,2.111,0,0,0,.358-0.073,2.271,2.271,0,0,0,.391-0.079,2.166,2.166,0,0,0,.426-0.226,1.529,1.529,0,0,0,.611-0.566,2.211,2.211,0,0,0,.228-0.34,2.245,2.245,0,0,0,.14-0.447,2.147,2.147,0,0,0,.1-0.3c0-.041-0.013-0.078-0.011-0.119s0.026-.082.026-0.127V18.32L89.328,45.569Z"/>
</svg>
