<svg xmlns="http://www.w3.org/2000/svg" width="100" height="100" viewBox="0 0 100 100">
  <defs>
    <style>
      .cls-1 {
        fill-rule: evenodd;
      }
    </style>
  </defs>
  <path id="모양_2" data-name="모양 2" class="cls-1" d="M94.771,50.16a2.5,2.5,0,0,0-.537-0.809L78.764,33.877a2.489,2.489,0,1,0-3.52,3.521L86.465,48.622H52.441V13.475L63.661,24.7a2.489,2.489,0,0,0,3.52-3.521L51.712,5.7a2.628,2.628,0,0,0-1.6-.7,2.18,2.18,0,0,0-1.037.14c-0.021.008-.044,0.008-0.065,0.016L49,5.165a2.459,2.459,0,0,0-.73.488c-0.023.022-.054,0.029-0.077,0.051L32.723,21.178a2.489,2.489,0,1,0,3.52,3.521l11.22-11.223V48.622H13.439L24.659,37.4a2.489,2.489,0,0,0-3.52-3.521L5.67,49.351a2.5,2.5,0,0,0,0,3.521L21.139,68.345a2.489,2.489,0,0,0,3.52-3.52L13.439,53.6H47.463V86.518L36.243,75.294a2.489,2.489,0,1,0-3.52,3.52L48.192,94.288a2.5,2.5,0,0,0,3.52,0L67.181,78.814a2.489,2.489,0,1,0-3.52-3.52L52.441,86.518V53.6H86.465L75.245,64.824a2.489,2.489,0,1,0,3.52,3.52L94.234,52.872A2.5,2.5,0,0,0,94.771,50.16Z"/>
</svg>
