<svg xmlns="http://www.w3.org/2000/svg" width="100" height="100" viewBox="0 0 100 100">
  <defs>
    <style>
      .cls-1 {
        fill-rule: evenodd;
      }
    </style>
  </defs>
  <path id="모양_2" data-name="모양 2" class="cls-1" d="M92.528,47.479H13.475L37.234,24.063a2.428,2.428,0,0,0,0-3.47,2.515,2.515,0,0,0-3.52,0L5.7,48.2c-0.023.023-.03,0.053-0.051,0.076a2.423,2.423,0,0,0-.488.72s0,0.006,0,.009c-0.009.022-.008,0.044-0.016,0.066a2.513,2.513,0,0,0-.021,1.627,2.342,2.342,0,0,0,.089.246,2.435,2.435,0,0,0,.49.727l28.009,27.6a2.515,2.515,0,0,0,3.52,0,2.428,2.428,0,0,0,0-3.47L13.475,52.386H92.528A2.454,2.454,0,1,0,92.528,47.479Z"/>
</svg>
