<svg xmlns="http://www.w3.org/2000/svg" width="100" height="100" viewBox="0 0 100 100">
  <defs>
    <style>
      .cls-1 {
        fill-rule: evenodd;
      }
    </style>
  </defs>
  <path id="모양_2" data-name="모양 2" class="cls-1" d="M94.883,51.694a2.386,2.386,0,0,0-.021-1.627c-0.008-.022-0.008-0.044-0.017-0.066,0,0,0-.006,0-0.009a2.423,2.423,0,0,0-.489-0.72C94.333,49.25,94.326,49.22,94.3,49.2L66.3,21.593a2.515,2.515,0,0,0-3.521,0,2.428,2.428,0,0,0,0,3.47L86.533,48.479H7.48a2.454,2.454,0,1,0,0,4.908H86.533L62.774,76.8a2.428,2.428,0,0,0,0,3.47,2.515,2.515,0,0,0,3.521,0L94.3,52.667A2.319,2.319,0,0,0,94.883,51.694Z"/>
</svg>
