<svg xmlns="http://www.w3.org/2000/svg" width="100" height="100" viewBox="0 0 100 100">
  <defs>
    <style>
      .cls-1 {
        fill-rule: evenodd;
      }
    </style>
  </defs>
  <path id="모양_2" data-name="모양 2" class="cls-1" d="M80.193,62.765a2.558,2.558,0,0,0-3.577,0L52.478,86.52V7.479a2.53,2.53,0,0,0-5.059,0V86.52L23.281,62.765a2.558,2.558,0,0,0-3.577,0,2.461,2.461,0,0,0,0,3.52l28.456,28a2.524,2.524,0,0,0,.832.544,2.557,2.557,0,0,0,1.913,0l0.011,0a2.51,2.51,0,0,0,.745-0.492c0.023-.021.053-0.027,0.075-0.049l28.456-28A2.461,2.461,0,0,0,80.193,62.765Z"/>
</svg>
