<svg xmlns="http://www.w3.org/2000/svg" width="100" height="100" viewBox="0 0 100 100">
  <defs>
    <style>
      .cls-1 {
        fill-rule: evenodd;
      }
    </style>
  </defs>
  <path id="모양_2" data-name="모양 2" class="cls-1" d="M80.193,33.713L51.737,5.7a2.483,2.483,0,0,0-.746-0.488,2.412,2.412,0,0,0-.265-0.093,2.537,2.537,0,0,0-.6-0.115,2.48,2.48,0,0,0-.281-0.015,2.57,2.57,0,0,0-.815.156c-0.012,0-.026,0-0.038.009l-0.012,0a2.5,2.5,0,0,0-.745.492c-0.023.021-.053,0.027-0.075,0.049L19.7,33.713a2.462,2.462,0,0,0,0,3.521,2.558,2.558,0,0,0,3.577,0L47.419,13.475V92.528a2.53,2.53,0,0,0,5.059,0V13.475L76.616,37.234a2.557,2.557,0,0,0,3.577,0A2.461,2.461,0,0,0,80.193,33.713Z"/>
</svg>
