<svg xmlns="http://www.w3.org/2000/svg" width="100" height="100" viewBox="0 0 100 100">
  <defs>
    <style>
      .cls-1 {
        fill-rule: evenodd;
      }
    </style>
  </defs>
  <path id="모양_2" data-name="모양 2" class="cls-1" d="M85.4,18.96H14.591a9.5,9.5,0,0,0-9.576,9.394V71.622a9.5,9.5,0,0,0,9.576,9.394H85.4a9.5,9.5,0,0,0,9.576-9.394V28.354A9.5,9.5,0,0,0,85.4,18.96ZM89.75,71.622a4.316,4.316,0,0,1-4.353,4.27H14.591a4.316,4.316,0,0,1-4.353-4.27V28.354a4.316,4.316,0,0,1,4.353-4.27H85.4a4.316,4.316,0,0,1,4.353,4.27V71.622ZM52.966,48.364c-5.533-1.595-8.137-2.692-8.127-5.888,0.01-2.839,3.217-3.84,4.2-4.08,3.241-.784,7.648.076,9.685,3.823a2.638,2.638,0,0,0,3.533,1.058,2.539,2.539,0,0,0,1.078-3.466,12.907,12.907,0,0,0-9.093-6.5V29.775a2.612,2.612,0,0,0-5.223,0v3.437c-0.415.064-.839,0.112-1.234,0.209-4.944,1.2-8.151,4.75-8.165,9.034-0.027,7.4,6.856,9.378,11.882,10.826,4.149,1.194,6.682,2.055,6.886,3.923a3.479,3.479,0,0,1-2.108,3.73c-2.945,1.541-8.5,1.228-12.368-1.955a2.645,2.645,0,0,0-3.679.314,2.527,2.527,0,0,0,.32,3.609A18.273,18.273,0,0,0,49.014,66.7v3.217a2.612,2.612,0,0,0,5.223,0v-3.1a13.47,13.47,0,0,0,4.492-1.354,8.539,8.539,0,0,0,4.849-8.8C62.987,51.25,57.431,49.652,52.966,48.364Z"/>
</svg>
