<svg xmlns="http://www.w3.org/2000/svg" width="100" height="100" viewBox="0 0 100 100">
  <defs>
    <style>
      .cls-1 {
        fill-rule: evenodd;
      }
    </style>
  </defs>
  <path id="모양_2" data-name="모양 2" class="cls-1" d="M77.816,21.3H63.653l0-6.668c-0.22-3.328-3.358-9.626-13.657-9.626s-13.439,6.3-13.663,9.775V21.3H22.172a8.244,8.244,0,0,0-8.2,8.272V86.72a8.244,8.244,0,0,0,8.2,8.272H77.816a8.244,8.244,0,0,0,8.2-8.272V29.572A8.244,8.244,0,0,0,77.816,21.3ZM40.8,14.932c0-.053.459-5.413,9.2-5.413,8.426,0,9.144,4.89,9.19,5.264V21.3H40.8ZM81.542,86.72a3.747,3.747,0,0,1-3.726,3.76H22.172a3.747,3.747,0,0,1-3.726-3.76V29.572a3.747,3.747,0,0,1,3.726-3.76H36.332v8.019a2.236,2.236,0,1,0,4.471,0l0-8.019H59.185v8.019a2.236,2.236,0,1,0,4.471,0l0-8.019H77.816a3.747,3.747,0,0,1,3.726,3.76V86.72Z"/>
</svg>
