<svg xmlns="http://www.w3.org/2000/svg" width="100" height="100" viewBox="0 0 100 100">
  <defs>
    <style>
      .cls-1 {
        fill-rule: evenodd;
      }
    </style>
  </defs>
  <path id="모양_2" data-name="모양 2" class="cls-1" d="M92.964,85.188l-9.239-44a8.393,8.393,0,0,0-8.389-8.116h-8.4L66.928,17.61C66.457,13.25,62.319,5.019,50.044,4.981c-0.006,0-.011,0-0.017,0H49.963c-0.006,0-.011,0-0.017,0-12.275.038-16.413,8.269-16.9,12.873V33.076H24.654a8.393,8.393,0,0,0-8.389,8.116l-9.24,44a2.207,2.207,0,0,0-.049.467,8.392,8.392,0,0,0,8.394,8.372H49.963c0.011,0,.02-0.006.032-0.007s0.021,0.007.032,0.007H84.619a8.393,8.393,0,0,0,8.394-8.372A2.205,2.205,0,0,0,92.964,85.188ZM37.613,18.1C37.651,17.75,38.669,9.562,50,9.546c11,0.016,12.274,7.693,12.368,8.308V33.076H50.027c-0.011,0-.02.006-0.032,0.006s-0.02-.006-0.032-0.006H37.619ZM84.619,89.46H50.027c-0.011,0-.02.006-0.032,0.006s-0.02-.006-0.032-0.006H15.369a3.815,3.815,0,0,1-3.81-3.6l9.23-43.948a2.2,2.2,0,0,0,.049-0.467,3.814,3.814,0,0,1,3.815-3.806h8.394V52.1a2.289,2.289,0,0,0,4.578,0L37.621,37.643H49.963c0.011,0,.02-0.006.032-0.007s0.021,0.007.032,0.007H62.363V52.1a2.289,2.289,0,0,0,4.579,0L66.936,37.643h8.4a3.814,3.814,0,0,1,3.815,3.806,2.209,2.209,0,0,0,.049.467l9.228,43.948A3.815,3.815,0,0,1,84.619,89.46Z"/>
</svg>
