<svg xmlns="http://www.w3.org/2000/svg" width="100" height="100" viewBox="0 0 100 100">
  <defs>
    <style>
      .cls-1 {
        fill-rule: evenodd;
      }
    </style>
  </defs>
  <path id="모양_2" data-name="모양 2" class="cls-1" d="M78.554,37.726A9.01,9.01,0,0,0,69.682,28.6H65.791l-0.745-9.778A2.716,2.716,0,0,0,65,18.495C64.02,13.823,59.62,4.988,49.979,4.988S35.939,13.823,34.96,18.495a2.716,2.716,0,0,0-.046.33L34.168,28.6H30.277a8.941,8.941,0,0,0-8.86,8.886L16.962,85.9a9.01,9.01,0,0,0,8.871,9.123H74.126a9.053,9.053,0,0,0,8.86-9.359ZM39.723,19.408c0.29-1.173,2.611-9.444,10.256-9.444,7.674,0,9.96,8.216,10.257,9.441l0.7,9.2H39.021Zm34.4,70.636H25.833a4.064,4.064,0,0,1-4.043-3.91l4.454-48.408a4.1,4.1,0,0,1,4.032-4.147h3.512l-0.488,6.4a2.469,2.469,0,0,0,2.223,2.676c0.065,0,.128.006,0.192,0.006a2.449,2.449,0,0,0,2.408-2.294l0.517-6.784H61.317l0.517,6.784a2.448,2.448,0,0,0,2.408,2.294c0.065,0,.128,0,0.192-0.006a2.469,2.469,0,0,0,2.223-2.676l-0.488-6.4h3.512a4.172,4.172,0,0,1,4.043,4.383L78.158,85.9A4.094,4.094,0,0,1,74.126,90.044Z"/>
</svg>
