<svg xmlns="http://www.w3.org/2000/svg" width="100" height="100" viewBox="0 0 100 100">
  <defs>
    <style>
      .cls-1 {
        fill-rule: evenodd;
      }
    </style>
  </defs>
  <path id="모양_2" data-name="모양 2" class="cls-1" d="M85.608,4.25L55.053,3.993h-0.02a2.311,2.311,0,0,0-1.623.677l0,0L7.383,51.064a8.569,8.569,0,0,0,0,12.031L35.589,91.528a8.4,8.4,0,0,0,11.934,0L93.109,45.575a2.284,2.284,0,0,0,.918-1.806V12.756A8.478,8.478,0,0,0,85.608,4.25Zm-41.34,84a3.827,3.827,0,0,1-5.425,0L10.637,59.814a3.9,3.9,0,0,1,0-5.471l45.341-45.7L85.589,8.89a3.854,3.854,0,0,1,3.835,3.866V42.728ZM78.961,15.713A8.6,8.6,0,0,0,67.47,19.87,8.732,8.732,0,0,0,71.592,31.45,8.6,8.6,0,0,0,83.08,27.3,8.735,8.735,0,0,0,78.961,15.713Zm-0.042,9.6a4.019,4.019,0,0,1-7.434-.362,4.06,4.06,0,0,1,.148-3.1,4.018,4.018,0,0,1,7.434.36A4.058,4.058,0,0,1,78.918,25.316ZM43.071,39.307a2.287,2.287,0,0,0-3.254,0,2.332,2.332,0,0,0,0,3.28l18.154,18.3a2.288,2.288,0,0,0,3.254,0,2.332,2.332,0,0,0,0-3.28Zm9.078-9.149a2.288,2.288,0,0,0-3.254,0,2.333,2.333,0,0,0,0,3.28l18.154,18.3a2.288,2.288,0,0,0,3.254,0,2.332,2.332,0,0,0,0-3.28Z"/>
</svg>
