<svg xmlns="http://www.w3.org/2000/svg" width="100" height="100" viewBox="0 0 100 100">
  <defs>
    <style>
      .cls-1 {
        fill-rule: evenodd;
      }
    </style>
  </defs>
  <path id="모양_2" data-name="모양 2" class="cls-1" d="M85.608,5.25L55.051,4.993H55.032a2.311,2.311,0,0,0-1.623.677l0,0L7.383,52.064a8.569,8.569,0,0,0,0,12.031L35.589,92.528a8.4,8.4,0,0,0,11.933,0L93.109,46.575a2.284,2.284,0,0,0,.918-1.806V13.756A8.478,8.478,0,0,0,85.608,5.25Zm-41.34,84a3.828,3.828,0,0,1-5.425,0L10.637,60.814a3.9,3.9,0,0,1,0-5.471l45.34-45.7L85.589,9.89a3.855,3.855,0,0,1,3.835,3.866V43.728Zm34.69-72.534A8.6,8.6,0,0,0,67.47,20.87,8.73,8.73,0,0,0,71.59,32.45,8.605,8.605,0,0,0,83.08,28.3,8.737,8.737,0,0,0,78.959,16.713Zm-0.041,9.6A4.009,4.009,0,0,1,76.636,28.4a3.92,3.92,0,0,1-3.082-.151,4.053,4.053,0,1,1,5.512-5.038A4.057,4.057,0,0,1,78.918,26.316Z"/>
</svg>
