<svg xmlns="http://www.w3.org/2000/svg" width="100" height="100" viewBox="0 0 100 100">
  <defs>
    <style>
      .cls-1 {
        fill-rule: evenodd;
      }
    </style>
  </defs>
  <path id="모양_2" data-name="모양 2" class="cls-1" d="M92.389,28.227L90.011,25.85a2.407,2.407,0,0,0-3.407,0,9.089,9.089,0,0,1-12.565,0,8.9,8.9,0,0,1,0-12.583,2.414,2.414,0,0,0,0-3.411L71.661,7.478a9.06,9.06,0,0,0-12.493,0L7.54,59.167a8.868,8.868,0,0,0,0,12.508l2.378,2.381a2.481,2.481,0,0,0,3.407,0,9.091,9.091,0,0,1,12.564,0,8.9,8.9,0,0,1,0,12.58,2.414,2.414,0,0,0,0,3.411l2.378,2.381a8.843,8.843,0,0,0,12.5,0L92.389,40.738A8.87,8.87,0,0,0,92.389,28.227Zm-3.407,9.1L37.355,89.016a4.026,4.026,0,0,1-5.681,0l-0.825-.826A13.751,13.751,0,0,0,29.3,70.644a13.693,13.693,0,0,0-17.526-1.558l-0.822-.823a4.041,4.041,0,0,1,0-5.685L62.576,10.889a4.13,4.13,0,0,1,5.679,0l0.822,0.823a13.716,13.716,0,0,0,19.084,19.1l0.822,0.823A4.038,4.038,0,0,1,88.982,37.327ZM58.695,23.94a2.411,2.411,0,0,0-3.407,3.411l1.277,1.279a2.411,2.411,0,1,0,3.407-3.411ZM74.664,39.928a2.411,2.411,0,0,0-3.4,3.417l1.28,1.278a2.411,2.411,0,1,0,3.4-3.417Zm-7.981-7.991a2.411,2.411,0,0,0-3.407,3.411l1.277,1.279a2.411,2.411,0,0,0,3.407-3.411Z"/>
</svg>
