<svg xmlns="http://www.w3.org/2000/svg" width="100" height="100" viewBox="0 0 100 100">
  <defs>
    <style>
      .cls-1 {
        fill-rule: evenodd;
      }
    </style>
  </defs>
  <path id="모양_2" data-name="모양 2" class="cls-1" d="M56.569,28.639a2.41,2.41,0,1,0,3.4-3.417l-1.28-1.278a2.41,2.41,0,1,0-3.4,3.417ZM72.537,44.625a2.41,2.41,0,1,0,3.407-3.411l-1.277-1.278a2.41,2.41,0,0,0-3.407,3.411ZM64.55,36.632a2.41,2.41,0,1,0,3.407-3.411L66.68,31.943a2.41,2.41,0,0,0-3.407,3.411ZM79.067,54.078l13.32-13.335a8.863,8.863,0,0,0,0-12.509l-2.378-2.378a2.406,2.406,0,0,0-3.407,0,9.09,9.09,0,0,1-12.565,0,8.917,8.917,0,0,1,0-12.582,2.413,2.413,0,0,0,0-3.411L71.662,7.486a8.845,8.845,0,0,0-12.5,0L7.541,59.17a8.864,8.864,0,0,0,0,12.507l2.378,2.381a2.478,2.478,0,0,0,3.407,0,9.09,9.09,0,0,1,12.564,0,8.9,8.9,0,0,1,0,12.579,2.413,2.413,0,0,0,0,3.411l2.378,2.381a8.839,8.839,0,0,0,12.492,0L53.535,79.639A20.811,20.811,0,1,0,79.067,54.078ZM37.354,89.017a4.023,4.023,0,0,1-5.678,0L30.85,88.19a13.711,13.711,0,0,0-19.077-19.1l-0.825-.826a4.037,4.037,0,0,1,0-5.684L62.574,10.9a4.131,4.131,0,0,1,5.681,0l0.819,0.82A13.716,13.716,0,0,0,88.157,30.825l0.822,0.82a4.042,4.042,0,0,1,0,5.688L72.973,53.357A20.829,20.829,0,0,0,52.809,73.639a2.286,2.286,0,0,0-.284.189ZM73.6,90.185a16.018,16.018,0,1,1,16-16.018A16.028,16.028,0,0,1,73.6,90.185Zm8.794-24.372a2.407,2.407,0,0,0-3.407,0l-5.17,5.176-5.17-5.176a2.411,2.411,0,0,0-3.407,3.411L70.41,74.4l-5.154,5.16a2.411,2.411,0,1,0,3.407,3.411l5.154-5.16,5.154,5.16a2.41,2.41,0,0,0,3.407-3.411L77.224,74.4l5.17-5.176A2.413,2.413,0,0,0,82.395,65.813Z"/>
</svg>
