<svg xmlns="http://www.w3.org/2000/svg" width="100" height="100" viewBox="0 0 100 100">
  <defs>
    <style>
      .cls-1 {
        fill-rule: evenodd;
      }
    </style>
  </defs>
  <path id="모양_2" data-name="모양 2" class="cls-1" d="M94.979,62.251V50.145a2.236,2.236,0,0,0-.684-1.609L75.313,30.171a2.289,2.289,0,0,0-1.591-.642H66.174A8.85,8.85,0,0,0,57.629,23H13.892a8.839,8.839,0,0,0-8.877,8.78V60.346a8.839,8.839,0,0,0,8.877,8.779h3.949a10.235,10.235,0,0,0,19.919,0h19.87a8.862,8.862,0,0,0,6.84-3.252,9.825,9.825,0,0,0-.1,1A10.22,10.22,0,0,0,84.29,69.986c4.475-.391,7.679-1.6,9.382-3.706A5.56,5.56,0,0,0,94.979,62.251ZM27.8,72.5a5.622,5.622,0,1,1,5.683-5.623A5.659,5.659,0,0,1,27.8,72.5ZM61.956,60.346a4.308,4.308,0,0,1-4.326,4.278H37.76a10.236,10.236,0,0,0-19.919,0H13.892a4.307,4.307,0,0,1-4.326-4.278V31.78A4.307,4.307,0,0,1,13.892,27.5H57.629a4.308,4.308,0,0,1,4.326,4.279V60.346ZM74.6,72.5a5.622,5.622,0,1,1,5.683-5.623A5.659,5.659,0,0,1,74.6,72.5Zm15.414-8.914c-0.532.578-1.926,1.493-5.322,1.889a10.2,10.2,0,0,0-18.234-4.664c0.008-.157.048-0.3,0.048-0.463V34.031h6.287L90.43,51.095l0.018,11.587A1.329,1.329,0,0,1,90.015,63.584Z"/>
</svg>
