<svg xmlns="http://www.w3.org/2000/svg" width="100" height="100" viewBox="0 0 100 100">
  <defs>
    <style>
      .cls-1 {
        fill-rule: evenodd;
      }
    </style>
  </defs>
  <path id="모양_2" data-name="모양 2" class="cls-1" d="M94.978,62.251V50.145a2.234,2.234,0,0,0-.684-1.609L86.928,41.41,86.9,41.386,75.313,30.171a2.29,2.29,0,0,0-1.591-.642H66.174A8.85,8.85,0,0,0,57.629,23H13.892a8.839,8.839,0,0,0-8.877,8.78V60.346a8.839,8.839,0,0,0,8.877,8.779h3.949a10.237,10.237,0,0,0,19.922,0H64.642a10.218,10.218,0,0,0,19.648.861c4.475-.391,7.679-1.6,9.381-3.706A5.557,5.557,0,0,0,94.978,62.251ZM79.745,40.756H66.507V34.031h6.288ZM27.8,72.5a5.622,5.622,0,1,1,5.683-5.623A5.662,5.662,0,0,1,27.8,72.5Zm46.8,0a5.622,5.622,0,1,1,5.683-5.623A5.659,5.659,0,0,1,74.6,72.5Zm15.414-8.914c-0.532.578-1.926,1.493-5.323,1.889a10.217,10.217,0,0,0-20.051-.849H37.763a10.238,10.238,0,0,0-19.921,0h-3.95a4.308,4.308,0,0,1-4.326-4.278V31.78A4.307,4.307,0,0,1,13.892,27.5H57.629a4.307,4.307,0,0,1,4.326,4.279V43.007a2.264,2.264,0,0,0,2.276,2.251H84.4l6.033,5.837,0.018,11.587A1.328,1.328,0,0,1,90.015,63.584Z"/>
</svg>
