<svg xmlns="http://www.w3.org/2000/svg" width="100" height="100" viewBox="0 0 100 100">
  <defs>
    <style>
      .cls-1 {
        fill-rule: evenodd;
      }
    </style>
  </defs>
  <path id="모양_2" data-name="모양 2" class="cls-1" d="M94.66,41.633a2.429,2.429,0,0,0,.275-0.67c0.009-.038.029-0.073,0.037-0.112a2.42,2.42,0,0,0,0-.84c-0.012-.077-0.041-0.148-0.06-0.224a2.376,2.376,0,0,0-.1-0.363,2.324,2.324,0,0,0-.153-0.248c-0.026-.045-0.028-0.1-0.058-0.141L76.642,12.1c-0.042-.063-0.116-0.09-0.163-0.148a2.385,2.385,0,0,0-.585-0.531,2.341,2.341,0,0,0-.349-0.175,2.283,2.283,0,0,0-.3-0.15,2.323,2.323,0,0,0-.409-0.027A2.265,2.265,0,0,0,74.6,11.01H25.333a2.389,2.389,0,0,0-.237.059,2.379,2.379,0,0,0-.407.027,2.307,2.307,0,0,0-.3.15,2.337,2.337,0,0,0-.349.175,2.385,2.385,0,0,0-.585.531c-0.047.058-.121,0.085-0.163,0.148L5.33,39.035c-0.03.044-.032,0.1-0.058,0.142a2.447,2.447,0,0,0-.153.248,2.365,2.365,0,0,0-.1.363c-0.02.076-.048,0.147-0.06,0.224a2.42,2.42,0,0,0,0,.84c0.007,0.039.027,0.073,0.037,0.112a2.426,2.426,0,0,0,.275.67,2.362,2.362,0,0,0,.149.213,2.4,2.4,0,0,0,.158.227l42.6,45.163c0.014,0.015.035,0.02,0.049,0.035,0.051,0.052.113,0.088,0.169,0.135a2.4,2.4,0,0,0,.461.306c0.065,0.033.121,0.077,0.189,0.1,0.016,0.006.025,0.02,0.041,0.026s0.046,0,.068.012a2.24,2.24,0,0,0,1.612,0c0.022-.008.045,0,0.068-0.012s0.025-.02.041-0.026c0.068-.027.124-0.071,0.189-0.1a2.406,2.406,0,0,0,.461-0.306c0.056-.047.118-0.084,0.169-0.135,0.014-.014.036-0.02,0.05-0.035l42.6-45.163A2156.281,2156.281,0,0,0,94.66,41.633ZM24.388,19.29l5.1,18.655H11.946ZM54.45,15.907H71.4l-5.05,18.541Zm8.323,22.038H37.164l12.8-19.953ZM33.6,34.436L28.541,15.907H45.487Zm30.1,8.407L49.968,78.709,36.231,42.842H63.7ZM75.551,19.293L87.992,37.945H70.462ZM31,42.842L43.257,74.87,13.046,42.842H31ZM56.675,74.876L68.928,42.842H86.891Z"/>
</svg>
