<svg xmlns="http://www.w3.org/2000/svg" width="100" height="100" viewBox="0 0 100 100">
  <defs>
    <style>
      .cls-1 {
        fill-rule: evenodd;
      }
    </style>
  </defs>
  <path id="모양_2" data-name="모양 2" class="cls-1" d="M85.959,28.551H74.022a18.226,18.226,0,0,0,7.355-4.342A7.745,7.745,0,0,0,83.51,18.4C83.09,11.919,78.271,7.033,72.3,7.033a10.889,10.889,0,0,0-5.633,1.608,2.105,2.105,0,0,0-.228.093c-0.054.036-.117,0.089-0.171,0.127-0.18.118-.346,0.255-0.52,0.384-4.91,3.683-13.095,13.58-16.64,17.993-3.543-4.41-11.718-14.3-16.629-17.986C32.3,9.12,32.13,8.98,31.946,8.858c-0.054-.037-0.115-0.089-0.168-0.124a2.036,2.036,0,0,0-.224-0.091,10.891,10.891,0,0,0-5.637-1.61c-5.97,0-10.789,4.886-11.209,11.367a7.745,7.745,0,0,0,2.134,5.809A18.226,18.226,0,0,0,24.2,28.551h-11.1a8.175,8.175,0,0,0-8.055,8.273V48.859a2.228,2.228,0,0,0,2.2,2.256h4.028V90.79a2.228,2.228,0,0,0,2.2,2.256H85.593a2.228,2.228,0,0,0,2.2-2.256V51.115h4.028a2.228,2.228,0,0,0,2.2-2.256V36.824A8.175,8.175,0,0,0,85.959,28.551Zm3.662,8.273V46.6H51.306V33.064H85.959A3.716,3.716,0,0,1,89.621,36.824ZM67.279,13.733a2.012,2.012,0,0,0,.2-0.137,6.924,6.924,0,0,1,.746-0.629c0.161-.122.32-0.241,0.47-0.345A6.632,6.632,0,0,1,72.3,11.546c3.627,0,6.561,3.076,6.824,7.154a3.107,3.107,0,0,1-.957,2.427c-3.8,4.171-15.777,5.763-23.436,6.239C58.59,22.695,63.778,16.729,67.279,13.733ZM19.093,18.7c0.263-4.078,3.2-7.154,6.824-7.154a6.638,6.638,0,0,1,3.6,1.073c0.159,0.11.329,0.239,0.5,0.369a6.861,6.861,0,0,1,.721.608,1.976,1.976,0,0,0,.179.122c3.5,2.989,8.7,8.967,12.566,13.648-7.66-.476-19.635-2.069-23.435-6.239A3.107,3.107,0,0,1,19.093,18.7Zm-6,14.364H46.912V46.6H9.432V36.824A3.716,3.716,0,0,1,13.094,33.064Zm2.563,18.051H46.912V88.533H15.657V51.115ZM83.4,88.533H51.306V51.115H83.4V88.533Z"/>
</svg>
