<svg xmlns="http://www.w3.org/2000/svg" width="100" height="100" viewBox="0 0 100 100">
  <defs>
    <style>
      .cls-1 {
        fill-rule: evenodd;
      }
    </style>
  </defs>
  <path id="모양_2" data-name="모양 2" class="cls-1" d="M95.026,38.321a10.271,10.271,0,0,0-20.515,0,9.175,9.175,0,0,0,.548,3L66.507,50.2,57.478,37.33A9.427,9.427,0,0,0,60.26,30.7a10.271,10.271,0,0,0-20.515,0,9.425,9.425,0,0,0,2.782,6.625L33.466,50.247l-8.54-8.872a9.179,9.179,0,0,0,.567-3.055,10.021,10.021,0,0,0-10.257-9.741A10.02,10.02,0,0,0,4.978,38.321,9.9,9.9,0,0,0,13.5,47.895l4.415,17.9V76.871A2.143,2.143,0,0,0,20.07,79H79.934a2.143,2.143,0,0,0,2.16-2.125V65.716l4.4-17.82A9.9,9.9,0,0,0,95.026,38.321ZM84.769,32.83a5.734,5.734,0,0,1,5.938,5.491,5.7,5.7,0,0,1-5.662,5.465,2.166,2.166,0,0,0-.66-0.01A5.967,5.967,0,0,1,79.6,40.969a2.092,2.092,0,0,0-.14-0.239,5.094,5.094,0,0,1-.629-2.41A5.734,5.734,0,0,1,84.769,32.83ZM50,25.214A5.734,5.734,0,0,1,55.941,30.7a5.957,5.957,0,0,1-11.877,0A5.734,5.734,0,0,1,50,25.214ZM32.162,55.072a1.965,1.965,0,0,0,.177.121,1.942,1.942,0,0,0,.164.167,173.121,173.121,0,0,0,.479.228,2.183,2.183,0,0,0,.747.148h0a2.178,2.178,0,0,0,.894-0.213,2.119,2.119,0,0,0,.242-0.151,2.087,2.087,0,0,0,.349-0.217,1.935,1.935,0,0,0,.158-0.222c0.039-.047.1-0.065,0.134-0.116l10.6-15.111a10.633,10.633,0,0,0,7.791,0l10.6,15.11a2,2,0,0,0,.279.242c0.006,0.005.007,0.013,0.013,0.018s0.02,0.01.029,0.018a2.148,2.148,0,0,0,1.457.641A2.178,2.178,0,0,0,67.5,55.36a2.114,2.114,0,0,0,.611-0.646L77.4,45.067a10.358,10.358,0,0,0,4.7,2.617L78.217,63.41H21.768L17.89,47.689a10.37,10.37,0,0,0,4.68-2.582ZM9.3,38.321a5.734,5.734,0,0,1,5.938-5.491,5.734,5.734,0,0,1,5.938,5.491,5.734,5.734,0,0,1-5.938,5.491A5.734,5.734,0,0,1,9.3,38.321ZM77.775,74.745H22.23V67.661H77.775v7.085Z"/>
</svg>
