<svg xmlns="http://www.w3.org/2000/svg" width="100" height="100" viewBox="0 0 100 100">
  <defs>
    <style>
      .cls-1 {
        fill-rule: evenodd;
      }
    </style>
  </defs>
  <path id="모양_2" data-name="모양 2" class="cls-1" d="M92.327,42.963L84.6,35.318V24.508a9.268,9.268,0,0,0-9.309-9.2H64.355l-7.73-7.646a9.4,9.4,0,0,0-13.165,0L35.729,15.3H24.8a9.267,9.267,0,0,0-9.309,9.2v10.81L7.755,42.963a9.152,9.152,0,0,0,0,13.016l7.732,7.645V74.434a9.267,9.267,0,0,0,9.309,9.2H35.729l7.73,7.646a9.4,9.4,0,0,0,13.165,0l7.73-7.646H75.288a9.268,9.268,0,0,0,9.309-9.2V63.624l7.73-7.645A9.149,9.149,0,0,0,92.327,42.963Zm-3.59,9.466L80.263,60.81a2.5,2.5,0,0,0-.744,1.775V74.434a4.212,4.212,0,0,1-4.231,4.184H63.3a2.553,2.553,0,0,0-1.795.736l-8.474,8.381a4.284,4.284,0,0,1-5.985,0l-8.474-8.381a2.554,2.554,0,0,0-1.8-.736H24.8a4.211,4.211,0,0,1-4.231-4.184V62.585a2.494,2.494,0,0,0-.744-1.775l-8.476-8.381a4.173,4.173,0,0,1,0-5.916l8.476-8.381a2.493,2.493,0,0,0,.744-1.775V24.508A4.212,4.212,0,0,1,24.8,20.324H36.78a2.555,2.555,0,0,0,1.8-.735l8.474-8.381a4.275,4.275,0,0,1,5.985,0l8.474,8.381a2.554,2.554,0,0,0,1.795.735H75.288a4.212,4.212,0,0,1,4.231,4.184V36.358a2.494,2.494,0,0,0,.744,1.775l8.474,8.381A4.169,4.169,0,0,1,88.737,52.429Zm-49.56-4.082A11.018,11.018,0,1,0,28.035,37.328,11.093,11.093,0,0,0,39.177,48.347Zm0-17.013a6,6,0,1,1-6.064,5.995A6.038,6.038,0,0,1,39.177,31.333ZM60.907,47.8A11.018,11.018,0,1,0,72.048,58.816,11.093,11.093,0,0,0,60.907,47.8Zm0,17.013a6,6,0,1,1,6.064-5.995A6.038,6.038,0,0,1,60.907,64.811Zm6.942-34.347a2.558,2.558,0,0,0-3.59,0L31.678,62.68a2.49,2.49,0,0,0,0,3.55,2.558,2.558,0,0,0,3.59,0L67.849,34.014A2.49,2.49,0,0,0,67.849,30.464Z"/>
</svg>
