<svg xmlns="http://www.w3.org/2000/svg" width="100" height="100" viewBox="0 0 100 100">
  <defs>
    <style>
      .cls-1 {
        fill-rule: evenodd;
      }
    </style>
  </defs>
  <path id="모양_2" data-name="모양 2" class="cls-1" d="M94.354,72.238L76.407,50.544A29.115,29.115,0,0,0,79.49,37.539a29.894,29.894,0,0,0-59.785,0A29.138,29.138,0,0,0,23.09,51.162L5.654,72.238a2.473,2.473,0,0,0-.327,2.644A2.516,2.516,0,0,0,7.6,76.3H21.772l5.052,14.077a2.509,2.509,0,0,0,2.139,1.646c0.077,0.007.154,0.01,0.229,0.01a2.52,2.52,0,0,0,2.177-1.244l13.995-24a27.649,27.649,0,0,0,9.213-.113l14.06,24.11a2.52,2.52,0,0,0,2.177,1.244c0.075,0,.153,0,0.229-0.01a2.51,2.51,0,0,0,2.14-1.646L78.235,76.3H92.409a2.516,2.516,0,0,0,2.272-1.423A2.473,2.473,0,0,0,94.354,72.238Zm-64.616,11.4L25.916,72.983a2.513,2.513,0,0,0-2.369-1.656H12.907l13.04-15.762a29.966,29.966,0,0,0,14.3,10.057Zm-5-46.1A24.865,24.865,0,1,1,49.6,62.15,24.766,24.766,0,0,1,24.734,37.539ZM76.46,71.327a2.512,2.512,0,0,0-2.369,1.656L70.27,83.634,59.623,65.379A29.957,29.957,0,0,0,73.636,55.052L87.1,71.327H76.46Z"/>
</svg>
