<svg xmlns="http://www.w3.org/2000/svg" width="100" height="100" viewBox="0 0 100 100">
  <defs>
    <style>
      .cls-1 {
        fill-rule: evenodd;
      }
    </style>
  </defs>
  <path id="모양_2" data-name="모양 2" class="cls-1" d="M86.151,40.336H82.934a8.66,8.66,0,0,0-1.164.075,30.07,30.07,0,0,0-5.9-6.445l0.271-11.711a2.142,2.142,0,0,0-1.237-1.99c-0.473-.22-4.439-1.813-11.36,2.393A14.813,14.813,0,0,0,34.515,26.82a14.6,14.6,0,0,0,.161,2.1A32.422,32.422,0,0,0,19.811,41.537c-4.575.985-6.869-.781-6.959-0.853-2.36-2.051-3.555-4.21-3.552-6.422,0.006-3.812,3.473-6.865,3.541-6.924a2.142,2.142,0,0,0-2.787-3.255c-0.205.176-5.013,4.327-5.043,10.134C4.992,37.736,6.683,41,10.019,43.9a11.185,11.185,0,0,0,7.18,2.246c0.122,0,.264-0.024.389-0.027a24.125,24.125,0,0,0-1.495,8.308,25.111,25.111,0,0,0,4.982,14.84A15.8,15.8,0,0,0,20,74.956c0,7.735,5.5,14.029,12.27,14.029a12.043,12.043,0,0,0,10.4-6.591,42.185,42.185,0,0,0,8.447.918,42.269,42.269,0,0,0,8.535-.936A12.041,12.041,0,0,0,70.069,89C76.835,89,82.342,82.7,82.342,74.97a15.774,15.774,0,0,0-1.118-5.8,27.255,27.255,0,0,0,2.092-3.33h2.834a7.863,7.863,0,0,0,7.864-7.846V48.182A7.863,7.863,0,0,0,86.151,40.336ZM49.365,16.282a10.518,10.518,0,0,1,5.789,19.329H43.578A10.518,10.518,0,0,1,49.365,16.282ZM89.726,57.99a3.574,3.574,0,0,1-3.574,3.567H82.934a3.5,3.5,0,0,1-.57-0.045,2.14,2.14,0,0,0-2.309,1.232A23.157,23.157,0,0,1,77.073,67.6a2.121,2.121,0,0,0-.133,2.436,11.348,11.348,0,0,1,1.114,4.931c0,5.375-3.583,9.749-7.984,9.749-3.03,0-5.847-2.159-7.18-5.5A1.942,1.942,0,0,0,62.749,79a2.063,2.063,0,0,0-.287-0.438,2.038,2.038,0,0,0-.158-0.141,2.1,2.1,0,0,0-.539-0.365c-0.025-.011-0.05-0.017-0.075-0.027a2.081,2.081,0,0,0-.745-0.161H60.926a2.035,2.035,0,0,0-.566.028,38.331,38.331,0,0,1-18.389.022,1.96,1.96,0,0,0-.281-0.013,2.1,2.1,0,0,0-.422-0.02,2.05,2.05,0,0,0-.391.085,2.114,2.114,0,0,0-.4.143,2.091,2.091,0,0,0-.311.211,1.6,1.6,0,0,0-.546.624,1.989,1.989,0,0,0-.166.254c-1.332,3.341-4.153,5.5-7.182,5.5-4.4,0-7.981-4.374-7.981-9.749a11.3,11.3,0,0,1,1.15-5.029,2,2,0,0,0,.087-0.322,2.146,2.146,0,0,0,.119-0.443,7.842,7.842,0,0,0-.086-0.815,2.119,2.119,0,0,0-.218-0.427,1.963,1.963,0,0,0-.145-0.282,21.077,21.077,0,0,1-4.82-13.216c0-8.82,6.073-16.973,15.571-21.329a14.957,14.957,0,0,0,1.48,2.516H35.126a2.14,2.14,0,1,0,0,4.28h7.782c0.007,0,.013.005,0.021,0.005s0.014-.005.021-0.005H65.241a2.14,2.14,0,1,0,0-4.28H61.3a14.831,14.831,0,0,0,2.881-8.233c3.663-2.6,6.227-3.228,7.63-3.314L71.557,34.928a2.144,2.144,0,0,0,.835,1.744,25.655,25.655,0,0,1,6.551,7.292,2.157,2.157,0,0,0,2.686.886,3.118,3.118,0,0,1,1.3-.234h3.217a3.574,3.574,0,0,1,3.574,3.566V57.99ZM65.956,44.527a2.853,2.853,0,1,0,2.86,2.853A2.858,2.858,0,0,0,65.956,44.527Zm0,4.28a1.427,1.427,0,1,1,1.43-1.427A1.431,1.431,0,0,1,65.956,48.807Z"/>
</svg>
