<svg xmlns="http://www.w3.org/2000/svg" width="100" height="100" viewBox="0 0 100 100">
  <defs>
    <style>
      .cls-1 {
        fill-rule: evenodd;
      }
    </style>
  </defs>
  <path id="모양_2" data-name="모양 2" class="cls-1" d="M92.857,69.394a2.639,2.639,0,0,0-.457-0.317L52.961,47.6V39.739a2.467,2.467,0,0,0-2.469-2.463A5.177,5.177,0,1,1,55.68,32.1a2.469,2.469,0,0,0,4.937,0,10.127,10.127,0,1,0-12.594,9.8v5.69L7.569,69.063a2.521,2.521,0,0,0-.485.34c-0.453.4-2.678,2.56-1.874,5.161,0.578,1.87,2.414,3.022,5.782,3.448h78a2.253,2.253,0,0,0,.326-0.022c3.041-.4,4.873-1.556,5.445-3.426C95.56,71.957,93.313,69.8,92.857,69.394ZM10.667,73L50.478,51.865,89.3,73c-0.142.028-.321,0.056-0.5,0.083l-77.478.022C11.069,73.073,10.853,73.038,10.667,73Z"/>
</svg>
