<svg xmlns="http://www.w3.org/2000/svg" width="100" height="100" viewBox="0 0 100 100">
  <defs>
    <style>
      .cls-1 {
        fill-rule: evenodd;
      }
    </style>
  </defs>
  <path id="모양_4" data-name="모양 4" class="cls-1" d="M92.326,42.965L84.6,35.32V24.511a9.266,9.266,0,0,0-9.309-9.2H64.354L56.625,7.661a9.4,9.4,0,0,0-13.167,0L35.73,15.307H24.8a9.266,9.266,0,0,0-9.309,9.2V35.32L7.758,42.965a9.143,9.143,0,0,0,0,13.016l7.729,7.645V74.435a9.266,9.266,0,0,0,9.309,9.2H35.73l7.728,7.645a9.4,9.4,0,0,0,13.167,0l7.728-7.645H75.288a9.266,9.266,0,0,0,9.309-9.2V63.626l7.729-7.645A9.144,9.144,0,0,0,92.326,42.965Zm-3.59,9.466-8.472,8.381a2.5,2.5,0,0,0-.744,1.775V74.435a4.211,4.211,0,0,1-4.231,4.184H63.3a2.55,2.55,0,0,0-1.795.736l-8.473,8.381a4.28,4.28,0,0,1-5.986,0l-8.472-8.381a2.55,2.55,0,0,0-1.795-.736H24.8a4.211,4.211,0,0,1-4.231-4.184V62.587a2.494,2.494,0,0,0-.744-1.775l-8.472-8.381a4.165,4.165,0,0,1,0-5.916l8.472-8.38a2.493,2.493,0,0,0,.744-1.775V24.511A4.212,4.212,0,0,1,24.8,20.327H36.782a2.551,2.551,0,0,0,1.795-.735l8.472-8.381a4.28,4.28,0,0,1,5.986,0l8.473,8.381a2.551,2.551,0,0,0,1.795.735H75.288a4.212,4.212,0,0,1,4.231,4.184V36.36a2.494,2.494,0,0,0,.744,1.775l8.472,8.38A4.165,4.165,0,0,1,88.736,52.431ZM33.453,54.2a8.262,8.262,0,0,0-.534-1.584c-0.224-.482-0.43-0.888-0.609-1.215L26.2,40.672H22.55V58.378h2.98V44.9A8.315,8.315,0,0,0,26,46.345a11.418,11.418,0,0,0,.646,1.276l6.135,10.758h3.652V40.672h-2.98V54.2Zm10.153-3.609h7.849V48.04H43.606V43.275h8.372v-2.6H40.455V58.378h11.7v-2.6H43.606V50.593Zm27.472,3.192-3.6-13.113H64.42L60.794,53.811,57.516,40.672h-3.3L59.08,58.378h3.081l3.775-13.63,3.626,13.63h3.032l4.94-17.706H74.48Z"/>
</svg>
