<svg xmlns="http://www.w3.org/2000/svg" width="100" height="100" viewBox="0 0 100 100">
  <defs>
    <style>
      .cls-1 {
        fill-rule: evenodd;
      }
    </style>
  </defs>
  <path id="모양_2" data-name="모양 2" class="cls-1" d="M89.015,39.085a4.221,4.221,0,0,0-.186-0.911,4.235,4.235,0,0,0-.2-0.726,4.33,4.33,0,0,0-.431-0.634,4.281,4.281,0,0,0-.567-0.723c-0.042-.038-0.057-0.092-0.1-0.128L52.389,5.993a4.112,4.112,0,0,0-.472-0.262,4.244,4.244,0,0,0-.766-0.425,4.192,4.192,0,0,0-.774-0.21,3.554,3.554,0,0,0-1.639-.006,3.51,3.51,0,0,0-1.56.635,4.1,4.1,0,0,0-.479.266L11.555,35.964c-0.043.037-.059,0.09-0.1,0.128a4.281,4.281,0,0,0-.567.723,4.33,4.33,0,0,0-.431.634,4.235,4.235,0,0,0-.2.726,4.221,4.221,0,0,0-.186.911c0,0.055-.032.1-0.032,0.157l0.01,47.575A8.52,8.52,0,0,0,18.6,95H37.043A4.342,4.342,0,0,0,41.4,90.679V65.187H57.682V90.679A4.342,4.342,0,0,0,62.044,95H80.489c5.237,0,8.265-4.119,8.558-8.485V39.242C89.047,39.186,89.017,39.14,89.015,39.085Zm-8.725,47.27H66.406V60.864a4.343,4.343,0,0,0-4.362-4.324h-25a4.343,4.343,0,0,0-4.362,4.324v25.49H18.8c-0.014-.044-0.025-0.09-0.035-0.132V41.227L49.543,14.976,80.324,41.227l0.01,44.993S80.315,86.281,80.289,86.355Z"/>
</svg>
