<svg xmlns="http://www.w3.org/2000/svg" width="100" height="100" viewBox="0 0 100 100">
  <defs>
    <style>
      .cls-1 {
        fill-rule: evenodd;
      }
    </style>
  </defs>
  <path id="모양_2" data-name="모양 2" class="cls-1" d="M74.412,37.25H70.567V26.375a21.1,21.1,0,1,0-42.187,0V37.25h-3.8A9.7,9.7,0,0,0,14.954,47V85.25A9.7,9.7,0,0,0,24.576,95H74.412a9.7,9.7,0,0,0,9.622-9.75V47A9.7,9.7,0,0,0,74.412,37.25ZM35.781,26.375a13.694,13.694,0,1,1,27.385,0V37.25H35.781V26.375ZM76.632,85.25a2.264,2.264,0,0,1-2.22,2.25H24.576a2.264,2.264,0,0,1-2.22-2.25V47a2.265,2.265,0,0,1,2.22-2.25H74.412A2.265,2.265,0,0,1,76.632,47V85.25ZM49.4,54.062a7.9,7.9,0,0,0-3.7,14.823v8.052a3.7,3.7,0,1,0,7.4,0V68.886A7.9,7.9,0,0,0,49.4,54.062Zm0,7.5a0.4,0.4,0,1,1-.4.406A0.4,0.4,0,0,1,49.4,61.562Z"/>
</svg>
