<svg xmlns="http://www.w3.org/2000/svg" width="100" height="100" viewBox="0 0 100 100">
  <defs>
    <style>
      .cls-1 {
        fill-rule: evenodd;
      }
    </style>
  </defs>
  <path id="모양_3" data-name="모양 3" class="cls-1" d="M85.749,38.1H45.678V27.95A20.167,20.167,0,0,0,25.345,8,20.167,20.167,0,0,0,5.012,27.95V41.6a3.568,3.568,0,0,0,7.134,0V27.95a13.2,13.2,0,0,1,26.4,0V38.1H37.71a9.2,9.2,0,0,0-9.275,9.1V82.9A9.2,9.2,0,0,0,37.71,92H85.749a9.2,9.2,0,0,0,9.275-9.1V47.2A9.2,9.2,0,0,0,85.749,38.1Zm2.14,44.8a2.148,2.148,0,0,1-2.14,2.1H37.71a2.148,2.148,0,0,1-2.14-2.1V47.2a2.148,2.148,0,0,1,2.14-2.1H85.749a2.148,2.148,0,0,1,2.14,2.1V82.9ZM61.641,53.792a7.46,7.46,0,0,0-7.522,7.379,7.34,7.34,0,0,0,3.954,6.457v7.515a3.568,3.568,0,0,0,7.134,0V67.626a7.34,7.34,0,0,0,3.953-6.456A7.459,7.459,0,0,0,61.641,53.792Zm0,7a0.382,0.382,0,0,1,.386.379c0,0.418-.773.418-0.773,0A0.383,0.383,0,0,1,61.641,60.792Z"/>
</svg>
