<svg xmlns="http://www.w3.org/2000/svg" width="100" height="100" viewBox="0 0 100 100">
  <defs>
    <style>
      .cls-1 {
        fill-rule: evenodd;
      }
    </style>
  </defs>
  <path id="모양_3" data-name="모양 3" class="cls-1" d="M92.721,87.889L78.115,73.108A41.822,41.822,0,0,0,87.442,46.72c0-23-18.493-41.72-41.225-41.72S4.991,23.716,4.991,46.72,23.485,88.438,46.217,88.438A40.732,40.732,0,0,0,72.294,79L86.9,93.78a4.081,4.081,0,0,0,5.821,0A4.2,4.2,0,0,0,92.721,87.889Zm-79.5-41.17A33.23,33.23,0,0,1,46.217,13.332a33.39,33.39,0,0,1,0,66.774A33.229,33.229,0,0,1,13.224,46.72Z"/>
</svg>
