<svg xmlns="http://www.w3.org/2000/svg" width="100" height="100" viewBox="0 0 100 100">
  <defs>
    <style>
      .cls-1 {
        fill-rule: evenodd;
      }
    </style>
  </defs>
  <path id="모양_3" data-name="모양 3" class="cls-1" d="M93.732,87.952L72.725,66.931a38.166,38.166,0,1,0-5.854,5.858L87.878,93.81A4.141,4.141,0,0,0,93.732,87.952ZM13.248,43.1A29.806,29.806,0,1,1,43.054,72.922,29.851,29.851,0,0,1,13.248,43.1ZM58.9,38.954H47.592V27.63a4.14,4.14,0,1,0-8.279,0V38.954H28a4.143,4.143,0,0,0,0,8.285H39.313V58.561a4.14,4.14,0,1,0,8.279,0V47.239H58.9A4.143,4.143,0,0,0,58.9,38.954Z"/>
</svg>
