<svg xmlns="http://www.w3.org/2000/svg" width="100" height="100" viewBox="0 0 100 100">
  <defs>
    <style>
      .cls-1 {
        fill-rule: evenodd;
      }
    </style>
  </defs>
  <path id="모양_3" data-name="모양 3" class="cls-1" d="M93.746,87.952L72.973,66.93A38.189,38.189,0,0,0,81.292,43.1c0-21.015-16.9-38.111-37.662-38.111S5.969,22.081,5.969,43.1s16.9,38.111,37.662,38.111a37.189,37.189,0,0,0,23.554-8.42L87.958,93.81a4.058,4.058,0,0,0,5.788,0A4.176,4.176,0,0,0,93.746,87.952ZM14.157,43.1A29.476,29.476,0,1,1,43.631,72.922,29.685,29.685,0,0,1,14.157,43.1Zm45.152-4.142H28.743a4.143,4.143,0,0,0,0,8.285H59.308A4.143,4.143,0,0,0,59.308,38.954Z"/>
</svg>
