<svg xmlns="http://www.w3.org/2000/svg" width="100" height="100" viewBox="0 0 100 100">
  <defs>
    <style>
      .cls-1 {
        fill-rule: evenodd;
      }
    </style>
  </defs>
  <path id="모양_3" data-name="모양 3" class="cls-1" d="M84.251,4.985H15.757A10.784,10.784,0,0,0,4.985,15.757v68.5A10.784,10.784,0,0,0,15.757,95.023H84.251A10.784,10.784,0,0,0,95.023,84.252v-68.5A10.784,10.784,0,0,0,84.251,4.985Zm2.486,79.267a2.519,2.519,0,0,1-2.486,2.486H15.757a2.519,2.519,0,0,1-2.486-2.486v-68.5a2.519,2.519,0,0,1,2.486-2.486H84.251a2.519,2.519,0,0,1,2.486,2.486v68.5Z"/>
</svg>
