<svg xmlns="http://www.w3.org/2000/svg" width="100" height="100" viewBox="0 0 100 100">
  <defs>
    <style>
      .cls-1 {
        fill-rule: evenodd;
      }
    </style>
  </defs>
  <path id="모양_3" data-name="모양 3" class="cls-1" d="M36.716,4.961H15.756A10.755,10.755,0,0,0,4.985,15.674V36.52A10.755,10.755,0,0,0,15.756,47.233h20.96A10.755,10.755,0,0,0,47.488,36.52V15.674A10.755,10.755,0,0,0,36.716,4.961ZM39.2,36.52a2.513,2.513,0,0,1-2.486,2.472H15.756a2.512,2.512,0,0,1-2.486-2.472V15.674A2.512,2.512,0,0,1,15.756,13.2h20.96A2.512,2.512,0,0,1,39.2,15.674V36.52ZM84.252,4.961H63.292A10.755,10.755,0,0,0,52.521,15.674V36.52A10.755,10.755,0,0,0,63.292,47.233h20.96A10.755,10.755,0,0,0,95.023,36.52V15.674A10.755,10.755,0,0,0,84.252,4.961ZM86.738,36.52a2.513,2.513,0,0,1-2.486,2.472H63.292a2.512,2.512,0,0,1-2.486-2.472V15.674A2.512,2.512,0,0,1,63.292,13.2h20.96a2.512,2.512,0,0,1,2.486,2.472V36.52ZM36.716,52.762H15.756A10.755,10.755,0,0,0,4.985,63.475V84.322A10.755,10.755,0,0,0,15.756,95.035h20.96A10.755,10.755,0,0,0,47.488,84.322V63.475A10.755,10.755,0,0,0,36.716,52.762ZM39.2,84.322a2.512,2.512,0,0,1-2.486,2.472H15.756a2.512,2.512,0,0,1-2.486-2.472V63.475A2.512,2.512,0,0,1,15.756,61h20.96A2.513,2.513,0,0,1,39.2,63.475V84.322Zm45.05-31.56H63.292A10.755,10.755,0,0,0,52.521,63.475V84.322A10.755,10.755,0,0,0,63.292,95.035h20.96A10.755,10.755,0,0,0,95.023,84.322V63.475A10.755,10.755,0,0,0,84.252,52.762Zm2.486,31.56a2.512,2.512,0,0,1-2.486,2.472H63.292a2.512,2.512,0,0,1-2.486-2.472V63.475A2.512,2.512,0,0,1,63.292,61h20.96a2.513,2.513,0,0,1,2.486,2.472V84.322Z"/>
</svg>
