<svg xmlns="http://www.w3.org/2000/svg" width="100" height="100" viewBox="0 0 100 100">
  <defs>
    <style>
      .cls-1 {
        fill-rule: evenodd;
      }
    </style>
  </defs>
  <path id="모양_3" data-name="모양 3" class="cls-1" d="M24,4.992H15.818A10.82,10.82,0,0,0,5,15.788v8.167a10.82,10.82,0,0,0,10.82,10.8H24a10.82,10.82,0,0,0,10.82-10.8V15.788A10.82,10.82,0,0,0,24,4.992Zm2.5,18.962A2.528,2.528,0,0,1,24,26.446H15.818a2.528,2.528,0,0,1-2.5-2.491V15.788a2.528,2.528,0,0,1,2.5-2.491H24a2.528,2.528,0,0,1,2.5,2.491v8.167ZM53.872,4.992H45.689a10.82,10.82,0,0,0-10.82,10.8v8.167a10.82,10.82,0,0,0,10.82,10.8h8.183a10.82,10.82,0,0,0,10.82-10.8V15.788A10.82,10.82,0,0,0,53.872,4.992Zm2.5,18.962a2.528,2.528,0,0,1-2.5,2.491H45.689a2.528,2.528,0,0,1-2.5-2.491V15.788a2.528,2.528,0,0,1,2.5-2.491h8.183a2.528,2.528,0,0,1,2.5,2.491v8.167ZM24,35.126H15.818A10.82,10.82,0,0,0,5,45.922v8.165a10.821,10.821,0,0,0,10.82,10.8H24a10.82,10.82,0,0,0,10.82-10.8V45.922A10.82,10.82,0,0,0,24,35.126Zm2.5,18.961A2.528,2.528,0,0,1,24,56.579H15.818a2.528,2.528,0,0,1-2.5-2.491V45.922a2.528,2.528,0,0,1,2.5-2.491H24a2.528,2.528,0,0,1,2.5,2.491v8.165ZM53.872,35.126H45.689a10.82,10.82,0,0,0-10.82,10.8v8.165a10.821,10.821,0,0,0,10.82,10.8h8.183a10.82,10.82,0,0,0,10.82-10.8V45.922A10.82,10.82,0,0,0,53.872,35.126Zm2.5,18.961a2.528,2.528,0,0,1-2.5,2.491H45.689a2.528,2.528,0,0,1-2.5-2.491V45.922a2.528,2.528,0,0,1,2.5-2.491h8.183a2.528,2.528,0,0,1,2.5,2.491v8.165ZM24,65.259H15.818A10.82,10.82,0,0,0,5,76.055V84.22a10.82,10.82,0,0,0,10.82,10.8H24a10.82,10.82,0,0,0,10.82-10.8V76.055A10.82,10.82,0,0,0,24,65.259ZM26.5,84.22A2.528,2.528,0,0,1,24,86.711H15.818a2.528,2.528,0,0,1-2.5-2.491V76.055a2.528,2.528,0,0,1,2.5-2.491H24a2.528,2.528,0,0,1,2.5,2.491V84.22ZM53.872,65.259H45.689a10.82,10.82,0,0,0-10.82,10.8V84.22a10.82,10.82,0,0,0,10.82,10.8h8.183a10.82,10.82,0,0,0,10.82-10.8V76.055A10.82,10.82,0,0,0,53.872,65.259Zm2.5,18.961a2.528,2.528,0,0,1-2.5,2.491H45.689a2.528,2.528,0,0,1-2.5-2.491V76.055a2.528,2.528,0,0,1,2.5-2.491h8.183a2.528,2.528,0,0,1,2.5,2.491V84.22ZM84.186,4.992H76a10.82,10.82,0,0,0-10.82,10.8v8.167A10.82,10.82,0,0,0,76,34.75h8.183a10.82,10.82,0,0,0,10.82-10.8V15.788A10.82,10.82,0,0,0,84.186,4.992Zm2.5,18.962a2.528,2.528,0,0,1-2.5,2.491H76a2.528,2.528,0,0,1-2.5-2.491V15.788A2.527,2.527,0,0,1,76,13.3h8.183a2.528,2.528,0,0,1,2.5,2.491v8.167Zm-2.5,11.172H76a10.82,10.82,0,0,0-10.82,10.8v8.165A10.82,10.82,0,0,0,76,64.883h8.183a10.821,10.821,0,0,0,10.82-10.8V45.922A10.82,10.82,0,0,0,84.186,35.126Zm2.5,18.961a2.528,2.528,0,0,1-2.5,2.491H76a2.528,2.528,0,0,1-2.5-2.491V45.922A2.528,2.528,0,0,1,76,43.431h8.183a2.528,2.528,0,0,1,2.5,2.491v8.165Zm-2.5,11.172H76a10.82,10.82,0,0,0-10.82,10.8V84.22A10.82,10.82,0,0,0,76,95.015h8.183a10.82,10.82,0,0,0,10.82-10.8V76.055A10.82,10.82,0,0,0,84.186,65.259Zm2.5,18.961a2.528,2.528,0,0,1-2.5,2.491H76a2.527,2.527,0,0,1-2.5-2.491V76.055A2.528,2.528,0,0,1,76,73.563h8.183a2.528,2.528,0,0,1,2.5,2.491V84.22Z"/>
</svg>
