<svg xmlns="http://www.w3.org/2000/svg" width="100" height="100" viewBox="0 0 100 100">
  <defs>
    <style>
      .cls-1 {
        fill-rule: evenodd;
      }
    </style>
  </defs>
  <path id="모양_3" data-name="모양 3" class="cls-1" d="M18.629,7.961A13.565,13.565,0,1,0,32.281,21.526,13.626,13.626,0,0,0,18.629,7.961Zm0,18.921a5.356,5.356,0,1,1,5.39-5.356A5.382,5.382,0,0,1,18.629,26.882ZM39.674,25.63H90.9a4.1,4.1,0,1,0,0-8.208H39.674A4.1,4.1,0,1,0,39.674,25.63Zm-21.046,10.3A13.565,13.565,0,1,0,32.281,49.5,13.626,13.626,0,0,0,18.629,35.934Zm0,18.921a5.356,5.356,0,1,1,5.39-5.356A5.382,5.382,0,0,1,18.629,54.854ZM90.9,45.394H39.674a4.1,4.1,0,1,0,0,8.208H90.9A4.1,4.1,0,1,0,90.9,45.394ZM18.629,63.9A13.566,13.566,0,1,0,32.281,77.47,13.626,13.626,0,0,0,18.629,63.9Zm0,18.922a5.357,5.357,0,1,1,5.39-5.356A5.382,5.382,0,0,1,18.629,82.827ZM90.9,73.366H39.674a4.1,4.1,0,1,0,0,8.208H90.9A4.1,4.1,0,1,0,90.9,73.366Z"/>
</svg>
