<svg xmlns="http://www.w3.org/2000/svg" width="100" height="100" viewBox="0 0 100 100">
  <defs>
    <style>
      .cls-1 {
        fill-rule: evenodd;
      }
    </style>
  </defs>
  <path id="모양_3" data-name="모양 3" class="cls-1" d="M76.546,23.807a4.059,4.059,0,0,0-5.8.356,4.238,4.238,0,0,0,.35,5.908,32.631,32.631,0,0,1,10.7,24.208c0,17.833-14.25,32.341-31.767,32.341S18.26,72.111,18.26,54.279A32.629,32.629,0,0,1,28.965,30.07a4.238,4.238,0,0,0,.35-5.908,4.062,4.062,0,0,0-5.8-.356A41.072,41.072,0,0,0,10.039,54.279c0,22.449,17.939,40.711,39.989,40.711S90.016,76.728,90.016,54.279A41.081,41.081,0,0,0,76.546,23.807Zm-26.518,33.1a4.148,4.148,0,0,0,4.111-4.185V9.2a4.111,4.111,0,1,0-8.221,0v43.52A4.148,4.148,0,0,0,50.028,56.908Z"/>
</svg>
