<svg xmlns="http://www.w3.org/2000/svg" width="100" height="100" viewBox="0 0 100 100">
  <defs>
    <style>
      .cls-1 {
        fill-rule: evenodd;
      }
    </style>
  </defs>
  <path id="모양_3" data-name="모양 3" class="cls-1" d="M91.2,58.15A3.841,3.841,0,0,0,87.368,62V82.021a2.335,2.335,0,0,1-2.3,2.31H14.925a2.335,2.335,0,0,1-2.3-2.31V63.155a3.833,3.833,0,1,0-7.666,0V82.021a10,10,0,0,0,9.966,10.01H85.068a10,10,0,0,0,9.966-10.01V62A3.841,3.841,0,0,0,91.2,58.15ZM47.286,73.609A3.83,3.83,0,0,0,50,74.737h0c0.022,0,.043-0.013.065-0.013a3.809,3.809,0,0,0,1.389-.278l0.012,0a3.786,3.786,0,0,0,1.124-.755c0.036-.034.083-0.044,0.118-0.079L72.069,54.16a3.86,3.86,0,0,0,0-5.444,3.819,3.819,0,0,0-5.42,0L53.829,61.593V11.819a3.833,3.833,0,1,0-7.666,0V61.591L33.346,48.716a3.819,3.819,0,0,0-5.42,0,3.86,3.86,0,0,0,0,5.444Z"/>
</svg>
