<svg xmlns="http://www.w3.org/2000/svg" width="100" height="100" viewBox="0 0 100 100">
  <defs>
    <style>
      .cls-1 {
        fill-rule: evenodd;
      }
    </style>
  </defs>
  <path id="모양_3" data-name="모양 3" class="cls-1" d="M9.243,22.755H22.751a13.651,13.651,0,0,0,25.949,0H90.757a4.171,4.171,0,1,0,0-8.341H48.7a13.65,13.65,0,0,0-25.949,0H9.243A4.171,4.171,0,1,0,9.243,22.755Zm26.482-9.409a5.239,5.239,0,1,1-5.286,5.239A5.27,5.27,0,0,1,35.725,13.345ZM90.757,45.831h-8.3a13.65,13.65,0,0,0-25.949,0H9.243a4.171,4.171,0,1,0,0,8.341H56.5a13.65,13.65,0,0,0,25.949,0h8.3A4.171,4.171,0,1,0,90.757,45.831Zm-21.28,9.408A5.239,5.239,0,1,1,74.764,50,5.267,5.267,0,0,1,69.477,55.239Zm21.28,22.009h-45.3a13.65,13.65,0,0,0-25.949,0H9.243a4.171,4.171,0,1,0,0,8.341H19.5a13.65,13.65,0,0,0,25.949,0h45.3A4.171,4.171,0,1,0,90.757,77.248Zm-58.28,9.41a5.239,5.239,0,1,1,5.288-5.239A5.269,5.269,0,0,1,32.477,86.657Z"/>
</svg>
