<svg xmlns="http://www.w3.org/2000/svg" width="100" height="100" viewBox="0 0 100 100">
  <defs>
    <style>
      .cls-1 {
        fill-rule: evenodd;
      }
    </style>
  </defs>
  <path id="모양_3" data-name="모양 3" class="cls-1" d="M94.582,55.8A44.918,44.918,0,1,0,78.3,84.98a3.642,3.642,0,1,0-4.585-5.661A38.5,38.5,0,1,1,87.248,55.564c-1.15,6.172-5.192,7.881-6.933,8.315-2.452.6-4.514-.067-5.205-1.013-1.91-2.608-2.338-9.083-2.16-12.551,0-.01,0-0.017,0-0.027,0-.055.008-0.109,0.008-0.164A22.99,22.99,0,1,0,67.792,64.6a13.425,13.425,0,0,0,1.438,2.569,11.155,11.155,0,0,0,9.181,4.238,15.179,15.179,0,0,0,3.664-.458,16.148,16.148,0,0,0,11.069-9.7,3.558,3.558,0,0,0,.794-1.523c0.2-.908.308-1.838,0.452-2.76,0.062-.326.154-0.633,0.2-0.967C94.6,55.93,94.575,55.867,94.582,55.8ZM50,65.789A15.664,15.664,0,1,1,65.665,50.1c0,0.027,0,.049,0,0.081A15.678,15.678,0,0,1,50,65.789Z"/>
</svg>
