<svg xmlns="http://www.w3.org/2000/svg" width="100" height="100" viewBox="0 0 100 100">
  <defs>
    <style>
      .cls-1 {
        fill-rule: evenodd;
      }
    </style>
  </defs>
  <path id="모양_3" data-name="모양 3" class="cls-1" d="M93.971,50.066a9.016,9.016,0,0,0-2.878-6.985c-2.856-2.587-6.779-2.636-8.069-2.569-1.573-.085-9.873-0.519-15.231-0.536l0.114-.391c2.956-12.055-.384-23.234-9.405-31.475-3.214-2.938-6.221-3.8-8.933-2.557-4.1,1.868-4.262,7.325-4.214,8.953l0.026,0.346c0,0.045.5,4.611-.023,15.955-0.26,5.7-9.832,12.267-17.242,16.161a7.356,7.356,0,0,0-6.525-4H13.4a7.37,7.37,0,0,0-7.375,7.35v37.3a7.37,7.37,0,0,0,7.375,7.35h8.194a7.37,7.37,0,0,0,7.374-7.35v-0.67a21.918,21.918,0,0,1,7.879,1.4c5.515,2.474,17.393,6.623,35,6.623a17.338,17.338,0,0,0,13.309-6.005c8.13-9.18,8.044-25.437,7.69-28.256-0.279-2.225.49-7.2,1.039-9.818ZM20.771,86.8H14.216V51.136h6.555V86.8ZM84.716,61.714c0.344,2.747-.238,15.671-5.7,21.84A9.1,9.1,0,0,1,71.848,86.8c-16.081,0-26.726-3.7-31.641-5.9a29.807,29.807,0,0,0-11.241-2.112V55.678c6.806-3.2,24.03-12.464,24.577-24.5a143.237,143.237,0,0,0,.05-16.456c4.524,4.4,9.009,11.767,6.408,22.71-0.427,1.22-1.33,4.642.642,7.546,0.981,1.444,2.962,3.165,6.835,3.165,5.555,0,15.243.533,15.341,0.538L83.135,48.7l0.315-.032a3.877,3.877,0,0,1,2.13.459,0.983,0.983,0,0,1,.183.581C85.383,51.618,84.236,57.889,84.716,61.714Z"/>
</svg>
