<svg xmlns="http://www.w3.org/2000/svg" width="100" height="100" viewBox="0 0 100 100">
  <defs>
    <style>
      .cls-1 {
        fill-rule: evenodd;
      }
    </style>
  </defs>
  <path id="모양_3" data-name="모양 3" class="cls-1" d="M92.884,49.108c-0.459-2.2-1.313-7.5-1.025-9.822,0.348-2.823.427-19.091-7.607-28.27a17.049,17.049,0,0,0-13.154-6c-17.41,0-29.156,4.149-34.605,6.624a21.543,21.543,0,0,1-7.787,1.394V12.364a7.331,7.331,0,0,0-7.291-7.353h-8.1a7.33,7.33,0,0,0-7.291,7.353v37.31a7.33,7.33,0,0,0,7.291,7.353h8.1a7.266,7.266,0,0,0,6.453-4C35.192,56.911,44.653,63.475,44.91,69.2c0.509,11.349.028,15.919,0.025,15.951L44.91,85.5c-0.051,1.629.111,7.09,4.161,8.96a5.8,5.8,0,0,0,2.452.549c2.006,0,4.142-1.039,6.379-3.109,8.92-8.245,12.221-19.428,9.3-31.487l-0.114-.391c5.294-.018,13.505-0.453,15.062-0.538a11.331,11.331,0,0,0,7.977-2.569A9.058,9.058,0,0,0,92.97,49.93Zm-72.28-.25H14.123V13.181H20.6V48.858Zm64.075,2.011a3.7,3.7,0,0,1-2.108.461L82.259,51.3l-0.313.018c-0.1,0-9.674.54-15.167,0.54-3.829,0-5.787,1.722-6.759,3.166-1.949,2.906-1.057,6.33-.636,7.55,2.572,10.947-1.858,18.316-6.332,22.715A146.394,146.394,0,0,0,53,68.827c-0.544-12.043-17.57-21.308-24.3-24.511V21.2a29.123,29.123,0,0,0,11.11-2.112c4.86-2.205,15.385-5.9,31.283-5.9a8.954,8.954,0,0,1,7.082,3.244c5.4,6.168,5.981,19.1,5.642,21.849-0.475,3.827.658,10.1,1.035,12.016A1.012,1.012,0,0,1,84.679,50.868Z"/>
</svg>
