<svg xmlns="http://www.w3.org/2000/svg" width="100" height="100" viewBox="0 0 100 100">
  <defs>
    <style>
      .cls-1 {
        fill-rule: evenodd;
      }
    </style>
  </defs>
  <path id="모양_3" data-name="모양 3" class="cls-1" d="M84.646,32.053H66.922a2.188,2.188,0,0,1-1.175-.346,1.544,1.544,0,0,0-.2-0.92L59.778,14.013a10.214,10.214,0,0,0-5.232-5.892,10.428,10.428,0,0,0-13.483,3.935,3.942,3.942,0,0,0-.373.811L34.672,30.852c-0.441.922-.87,1.2-0.763,1.245a4.388,4.388,0,0,0-.616-0.045H15.361A10.316,10.316,0,0,0,4.994,42.292a10.167,10.167,0,0,0,2.467,6.63,4.037,4.037,0,0,0,.6.574L22.988,61.028A2.315,2.315,0,0,1,24,62.486c-0.035.092-.068,0.183-0.1,0.276l-5.342,16.91a10.063,10.063,0,0,0,.714,7.8A10.262,10.262,0,0,0,25.364,92.5a10.475,10.475,0,0,0,7.147-.351,4.207,4.207,0,0,0,.73-0.4l16.6-11.315-2.359-3.377,2.7,3.377L66.766,91.748a4.062,4.062,0,0,0,.736.4,10.457,10.457,0,0,0,7.141.349,10.235,10.235,0,0,0,6.809-12.825L76.11,62.762c-0.029-.093-0.065-0.187-0.1-0.279a2.035,2.035,0,0,1,.837-1.316L91.943,49.5a4.054,4.054,0,0,0,.6-0.574,10.167,10.167,0,0,0,2.467-6.63A10.316,10.316,0,0,0,84.646,32.053ZM86.4,43.36L71.553,54.844c-4.463,3.85-4.239,8.283-3.314,10.562L73.52,82.115a2.052,2.052,0,0,1-2.47,2.579L54.893,73.677a8.606,8.606,0,0,0-9.776,0L28.963,84.694a2.079,2.079,0,0,1-1.123-.032,2.053,2.053,0,0,1-1.211-1,2.011,2.011,0,0,1-.14-1.549L31.771,65.4c0.922-2.279,1.136-6.718-3.489-10.7L13.608,43.36a1.99,1.99,0,0,1-.305-1.068,2.047,2.047,0,0,1,2.058-2.033H33.075c2.509,0.2,6.881-.894,9.273-6.252a3.281,3.281,0,0,0,.143-0.37l5.9-17.65A2.017,2.017,0,0,1,49.3,15.38a2.074,2.074,0,0,1,1.571.1,2.04,2.04,0,0,1,1.039,1.17l5.657,16.454c0.51,2.536,2.814,6.617,8.78,7.138,0.123,0.011.243,0.016,0.367,0.016H84.646A2.047,2.047,0,0,1,86.7,42.292,1.99,1.99,0,0,1,86.4,43.36Z"/>
</svg>
