<svg xmlns="http://www.w3.org/2000/svg" width="100" height="100" viewBox="0 0 100 100">
  <defs>
    <style>
      .cls-1 {
        fill-rule: evenodd;
      }
    </style>
  </defs>
  <path id="모양_3" data-name="모양 3" class="cls-1" d="M68.942,9.025c-9.052,0-14.924,5-18.819,9.8-4.829-6.431-11.361-9.8-19.072-9.8A26.223,26.223,0,0,0,5.015,35.448L5.049,36.6c0.035,1.185,1.334,29.3,40.494,52.178a9.565,9.565,0,0,0,4.58,1.2,8.357,8.357,0,0,0,4.352-1.218C93.341,65.453,94.9,37.805,94.943,36.641V36.6l0.038-1.274A26.2,26.2,0,0,0,68.942,9.025ZM86.876,36.3C86.8,37.595,84.939,61.009,50.35,81.752a1.044,1.044,0,0,1-.756-0.028c-35-20.458-36.432-44.393-36.476-45.374l-0.032-1.026A18.075,18.075,0,0,1,31.051,17.18c5.948,0,10.72,3,14.344,9.16a5.83,5.83,0,0,0,4.636,2.593H50.05A5.461,5.461,0,0,0,54.6,26.367c4.482-6.439,8.771-9.187,14.341-9.187A18.052,18.052,0,0,1,86.91,35.2Z"/>
</svg>
