<svg xmlns="http://www.w3.org/2000/svg" width="100" height="100" viewBox="0 0 100 100">
  <defs>
    <style>
      .cls-1 {
        fill-rule: evenodd;
      }
    </style>
  </defs>
  <path id="모양_3" data-name="모양 3" class="cls-1" d="M85.014,16.128A11.226,11.226,0,0,0,73.7,5.015H26.285A11.226,11.226,0,0,0,14.975,16.128V90.714H15a4.19,4.19,0,0,0,1.135,2.909,4.405,4.405,0,0,0,6.148.222L49.994,68.551,77.7,93.845a4.4,4.4,0,0,0,6.148-.222,4.19,4.19,0,0,0,1.135-2.909h0.028V16.128ZM47.034,59.587L23.675,80.91V16.128a2.623,2.623,0,0,1,2.61-2.565H73.7a2.623,2.623,0,0,1,2.61,2.565V80.91L52.955,59.587A4.4,4.4,0,0,0,47.034,59.587Z"/>
</svg>
