<svg xmlns="http://www.w3.org/2000/svg" width="100" height="100" viewBox="0 0 100 100">
  <defs>
    <style>
      .cls-1 {
        fill-rule: evenodd;
      }
    </style>
  </defs>
  <path id="모양_3" data-name="모양 3" class="cls-1" d="M50.293,54.1A24.057,24.057,0,1,0,26.372,30.049,24.017,24.017,0,0,0,50.293,54.1Zm0-40.273A16.217,16.217,0,1,1,34.168,30.049,16.192,16.192,0,0,1,50.293,13.832ZM86.536,69.9c-7.76-8.084-19.868-12.255-36-12.4-0.061,0-.119,0-0.18,0h-0.71c-0.061,0-.119,0-0.18,0-16.131.147-28.239,4.318-36,12.4A30.025,30.025,0,0,0,5,90.226a3.906,3.906,0,0,0,3.895,3.78H91.113a3.907,3.907,0,0,0,3.9-3.78A30.027,30.027,0,0,0,86.536,69.9ZM49.647,86.167H13.274a22.87,22.87,0,0,1,5.807-10.823C25.4,68.756,35.8,65.388,50,65.333c14.112,0.055,24.479,3.384,30.813,9.9a22.768,22.768,0,0,1,5.941,10.938H49.647Z"/>
</svg>
