<svg xmlns="http://www.w3.org/2000/svg" width="100" height="100" viewBox="0 0 100 100">
  <defs>
    <style>
      .cls-1 {
        fill-rule: evenodd;
      }
    </style>
  </defs>
  <path id="모양_3" data-name="모양 3" class="cls-1" d="M84.378,25.248H73.391L67.3,15.338a8.823,8.823,0,0,0-7.675-4.294H40.456a8.763,8.763,0,0,0-7.588,4.151L26.689,25.248H15.7A10.7,10.7,0,0,0,5.043,35.953V77.333A10.7,10.7,0,0,0,15.7,88.038H84.378a10.7,10.7,0,0,0,10.66-10.705V35.953A10.7,10.7,0,0,0,84.378,25.248Zm2.46,52.084a2.5,2.5,0,0,1-2.46,2.47H15.7a2.5,2.5,0,0,1-2.46-2.47V35.953a2.5,2.5,0,0,1,2.46-2.47H28.976a4.093,4.093,0,0,0,3.488-1.956l7.467-12.153a1.776,1.776,0,0,1,.525-0.1H59.624a0.752,0.752,0,0,1,.612.24l7.38,12.01A4.093,4.093,0,0,0,71.1,33.483H84.378a2.5,2.5,0,0,1,2.46,2.47V77.333ZM50.04,33.277A19.352,19.352,0,1,0,69.31,52.628,19.334,19.334,0,0,0,50.04,33.277Zm0,30.468A11.117,11.117,0,1,1,61.11,52.628,11.106,11.106,0,0,1,50.04,63.745Z"/>
</svg>
