<svg xmlns="http://www.w3.org/2000/svg" width="100" height="100" viewBox="0 0 100 100">
  <defs>
    <style>
      .cls-1 {
        fill-rule: evenodd;
      }
    </style>
  </defs>
  <path id="모양_3" data-name="모양 3" class="cls-1" d="M91.012,52.054c0-.175-0.037-0.34-0.051-0.511,0.106-4.013-.062-22.772-11.81-35.332-6.95-7.43-16.539-11.2-28.5-11.2S29.042,8.777,21.967,16.2C9,29.8,9.486,50.7,9.537,52.178v24.4a6.01,6.01,0,0,0,5.98,6.027H26.148a6.01,6.01,0,0,0,5.98-6.027V52.138a6.01,6.01,0,0,0-5.98-6.027H16.479c0.692-6.673,2.953-17.607,10.306-25.3,5.771-6.038,13.8-9.1,23.863-9.1,10.046,0,18,3.051,23.642,9.067,7.194,7.67,9.251,18.579,9.819,25.251H74.4a6.01,6.01,0,0,0-5.98,6.027V76.5a6.01,6.01,0,0,0,5.98,6.027h5.238c-4.792,3.849-12.288,5.344-19.235,5.722a5.3,5.3,0,0,0-.262-1.45A6.088,6.088,0,0,0,55.93,83.01a3.245,3.245,0,0,0-.324-0.067c-4.73-.727-10.819-0.872-12.942,2.531a6.063,6.063,0,0,0,1.149,8.1,3.3,3.3,0,0,0,1.538.674,79.371,79.371,0,0,0,11.409.79c11.1,0,27.073-2.268,32.714-14.448,0.021-.044.015-0.092,0.033-0.137A6,6,0,0,0,91.012,76.5V52.054ZM25.484,75.909h-9.3v-23.1h9.3v23.1ZM75.066,52.724h9.3v23.1h-9.3v-23.1Z"/>
</svg>
