<svg xmlns="http://www.w3.org/2000/svg" width="100" height="100" viewBox="0 0 100 100">
  <defs>
    <style>
      .cls-1 {
        fill-rule: evenodd;
      }
    </style>
  </defs>
  <path id="모양_3" data-name="모양 3" class="cls-1" d="M94.957,58.373c0.117-4.344-.068-24.65-12.962-38.247C74.366,12.083,63.842,8,50.712,8S27,12.079,19.232,20.113C5,34.834,5.533,57.461,5.589,59.06V85.475A6.551,6.551,0,0,0,12.153,92H23.821a6.551,6.551,0,0,0,6.563-6.524V59.017a6.551,6.551,0,0,0-6.563-6.524H13.208c0.759-7.224,3.241-19.06,11.312-27.389,6.334-6.536,15.146-9.851,26.191-9.851,11.026,0,19.755,3.3,25.948,9.816,7.9,8.3,10.154,20.112,10.777,27.334H76.782a6.551,6.551,0,0,0-6.563,6.524V85.384a6.551,6.551,0,0,0,6.563,6.524H88.45a6.551,6.551,0,0,0,6.563-6.524V58.926C95.013,58.737,94.973,58.558,94.957,58.373ZM23.091,84.75H12.882V59.742H23.091V84.75Zm64.629-.091H77.511V59.651H87.721V84.659Z"/>
</svg>
