<svg xmlns="http://www.w3.org/2000/svg" width="100" height="100" viewBox="0 0 100 100">
  <defs>
    <style>
      .cls-1 {
        fill-rule: evenodd;
      }
    </style>
  </defs>
  <path id="모양_3" data-name="모양 3" class="cls-1" d="M91.12,67.7L77.9,56.6a10.7,10.7,0,0,0-15.052,1.316l-3.88,4.623c-1.022.048-5.033-.31-13.473-8.118-7.8-8.436-8.18-12.462-8.12-13.473L42,37.069a10.7,10.7,0,0,0,1.315-15.054L32.219,8.794A10.7,10.7,0,0,0,17.165,7.479L7.407,15.668l-0.6.624c-1.788,2.3-8.977,15.574,25.306,51.659C55.729,90.384,69.56,94.969,76.918,94.969c3.838,0,5.917-1.247,6.7-1.861l8.813-10.36A10.7,10.7,0,0,0,91.12,67.7Zm-4.981,9.77-7.723,9.2c-1.448.335-12.885,1.688-40.494-24.528C11.629,34.459,12.839,23.391,13.379,21.387l9.071-7.612a2.5,2.5,0,0,1,3.474.3L37.017,27.3a2.5,2.5,0,0,1-.3,3.475l-5.3,4.445-0.273.252c-1.755,1.764-6.329,8.76,8.431,24.655l0.215,0.215C55.686,75.1,62.68,70.522,64.446,68.769l4.7-5.57a2.486,2.486,0,0,1,3.472-.3l13.222,11.1A2.5,2.5,0,0,1,86.139,77.465Z"/>
</svg>
