<svg xmlns="http://www.w3.org/2000/svg" width="100" height="100" viewBox="0 0 100 100">
  <defs>
    <style>
      .cls-1 {
        fill-rule: evenodd;
      }
    </style>
  </defs>
  <path id="모양_3" data-name="모양 3" class="cls-1" d="M91.218,67.331L77.98,56.467a10.886,10.886,0,0,0-15.072,1.289l-3.885,4.526c-1.024.047-5.039-.3-13.491-7.948-7.812-8.26-8.191-12.2-8.13-13.192l4.631-3.8A10.317,10.317,0,0,0,43.35,22.6L32.24,9.66A10.7,10.7,0,0,0,24.976,5.97a10.822,10.822,0,0,0-7.809,2.4L7.4,16.389,6.8,17C5,19.248-2.194,32.249,32.135,67.581,55.783,89.546,69.63,94.035,77,94.035c3.843,0,5.925-1.221,6.712-1.822L92.536,82.07A10.321,10.321,0,0,0,91.218,67.331ZM86.232,76.9l-7.624,8.882c-2,.537-13.078,1.726-40.656-23.886-26.33-27.1-25.116-37.942-24.576-39.9l9.085-7.455a2.525,2.525,0,0,1,3.475.3l11.11,12.943a2.411,2.411,0,0,1-.3,3.4l-5.3,4.352-0.273.247c-1.757,1.727-6.338,8.577,8.442,24.141l0.216,0.211C55.736,74.58,62.744,70.1,64.511,68.382l4.7-5.454a2.528,2.528,0,0,1,3.477-.3L85.929,73.5a2.381,2.381,0,0,1,.863,1.639A2.35,2.35,0,0,1,86.232,76.9ZM53.245,49.159a4.151,4.151,0,0,0,2.909-1.179l20.8-20.344v8.206a4.116,4.116,0,0,0,8.23,0V17.923a3.888,3.888,0,0,0-.29-1.4,3.825,3.825,0,0,0-.186-0.384,3.974,3.974,0,0,0-.576-0.836,3.859,3.859,0,0,0-.284-0.308,4.071,4.071,0,0,0-1.092-.72c-0.036-.016-0.063-0.043-0.1-0.058l-0.011-.006a4.135,4.135,0,0,0-1.421-.276c-0.054,0-.1-0.03-0.154-0.03H62.747a4.025,4.025,0,1,0,0,8.047h8.392L50.335,42.29a3.96,3.96,0,0,0,0,5.69A4.15,4.15,0,0,0,53.245,49.159Z"/>
</svg>
