<svg xmlns="http://www.w3.org/2000/svg" width="100" height="100" viewBox="0 0 100 100">
  <defs>
    <style>
      .cls-1 {
        fill-rule: evenodd;
      }
    </style>
  </defs>
  <path id="모양_3" data-name="모양 3" class="cls-1" d="M91.218,67.331L77.979,56.467a10.882,10.882,0,0,0-15.072,1.289l-3.885,4.526c-1.017.08-5.044-.311-13.489-7.95-7.815-8.26-8.193-12.2-8.13-13.19l4.628-3.8A10.316,10.316,0,0,0,43.35,22.6L32.24,9.66A10.7,10.7,0,0,0,24.976,5.97a10.816,10.816,0,0,0-7.81,2.4L7.4,16.389,6.794,17C5,19.248-2.194,32.249,32.134,67.581,55.783,89.546,69.63,94.035,77,94.035c3.843,0,5.925-1.221,6.712-1.822L92.536,82.07A10.321,10.321,0,0,0,91.218,67.331ZM86.232,76.9L78.5,85.909c-1.444.344-12.91,1.645-40.547-24.017-26.328-27.1-25.116-37.942-24.576-39.9l9.083-7.453a2.568,2.568,0,0,1,1.8-.549,2.465,2.465,0,0,1,1.676.846l11.11,12.943a2.409,2.409,0,0,1-.305,3.4l-5.3,4.352-0.273.245c-1.757,1.729-6.34,8.577,8.442,24.142l0.215,0.211C55.742,74.582,62.739,70.1,64.509,68.381l4.7-5.451a2.541,2.541,0,0,1,3.478-.3L85.929,73.5A2.409,2.409,0,0,1,86.232,76.9ZM48.944,50.481a5.055,5.055,0,0,0,.861,1.144,4.064,4.064,0,0,0,1.092.719c0.036,0.016.063,0.044,0.1,0.059l0.011,0.007a4.2,4.2,0,0,0,1.574.306H70.908a4.025,4.025,0,1,0,0-8.047H62.516l20.8-20.343a3.96,3.96,0,0,0,0-5.69,4.18,4.18,0,0,0-5.819,0L56.7,38.978V30.772a4.116,4.116,0,0,0-8.23,0v17.92a3.894,3.894,0,0,0,.29,1.4A3.694,3.694,0,0,0,48.944,50.481Z"/>
</svg>
