<svg xmlns="http://www.w3.org/2000/svg" width="100" height="100" viewBox="0 0 100 100">
  <defs>
    <style>
      .cls-1 {
        fill-rule: evenodd;
      }
    </style>
  </defs>
  <path id="모양_3" data-name="모양 3" class="cls-1" d="M94.894,49.235a3.389,3.389,0,0,0-.038-0.5L85.2,14.618A3.642,3.642,0,0,0,81.7,11.974h-63.2a3.642,3.642,0,0,0-3.5,2.627L5.156,48.719a3.424,3.424,0,0,0-.041.511,3.4,3.4,0,0,0-.1.492V84.383a3.636,3.636,0,0,0,3.643,3.63H91.35a3.636,3.636,0,0,0,3.643-3.63V49.721A3.377,3.377,0,0,0,94.894,49.235Zm-73.657-30h57.7l7.6,26.859H64.122a3.464,3.464,0,0,0-.455.091,3.4,3.4,0,0,0-2.405,1.392,3.471,3.471,0,0,0-.3.442,3.527,3.527,0,0,0-.306.829,3.382,3.382,0,0,0-.12.326,10.664,10.664,0,0,1-21.063,0,3.587,3.587,0,0,0-3.383-3,3.435,3.435,0,0,0-.385-0.077H13.494Zm66.47,61.521H12.3v-27.4H33.043A18.072,18.072,0,0,0,50,65.419,17.815,17.815,0,0,0,66.976,53.351H87.707v27.4Z"/>
</svg>
