<svg xmlns="http://www.w3.org/2000/svg" width="100" height="100" viewBox="0 0 100 100">
  <defs>
    <style>
      .cls-1 {
        fill-rule: evenodd;
      }
    </style>
  </defs>
  <path id="모양_3" data-name="모양 3" class="cls-1" d="M92.063,45.515l-10.51-5.6a3.624,3.624,0,0,0-1.648-.395l12.149-6.427a3.646,3.646,0,0,0,.011-6.451L52.261,5.42a3.717,3.717,0,0,0-3.49,0L8.965,26.641a3.646,3.646,0,0,0-.072,6.406L20.544,39.6a3.627,3.627,0,0,0-1.109.333L8.965,45.517a3.646,3.646,0,0,0-.072,6.406l38.576,21.71a3.706,3.706,0,0,0,3.55.046l41.035-21.71A3.646,3.646,0,0,0,92.063,45.515ZM50.516,12.8L82.506,29.851,49.341,47.4l-31-17.446ZM49.341,66.275l-31-17.448,4.587-2.446a3.607,3.607,0,0,0,1.636-4.518L47.469,54.755a3.706,3.706,0,0,0,3.55.046L76.742,41.193c-0.052.08-.133,0.129-0.179,0.215a3.648,3.648,0,0,0,1.506,4.955l4.437,2.365ZM92.066,66.4l-10.51-5.6a3.7,3.7,0,0,0-4.993,1.492,3.647,3.647,0,0,0,1.5,4.954l4.44,2.367L49.341,87.152l-31-17.448,4.587-2.445a3.647,3.647,0,0,0,1.5-4.953,3.7,3.7,0,0,0-4.993-1.492L8.965,66.4A3.646,3.646,0,0,0,8.893,72.8L47.469,94.51a3.707,3.707,0,0,0,3.55.046L92.055,72.847A3.646,3.646,0,0,0,92.066,66.4Z"/>
</svg>
