<svg xmlns="http://www.w3.org/2000/svg" width="100" height="100" viewBox="0 0 100 100">
  <defs>
    <style>
      .cls-1 {
        fill-rule: evenodd;
      }
    </style>
  </defs>
  <path id="모양_3" data-name="모양 3" class="cls-1" d="M92.8,17.088L65.349,5.616l-0.008,0-0.015-.006a3.611,3.611,0,0,0-1.14-.231C64.1,5.368,64.027,5.324,63.94,5.324a3.44,3.44,0,0,0-1.451.294L35.774,16.5,10.065,5.269c-0.008,0-.017,0-0.025-0.005a3.707,3.707,0,0,0-.664-0.145,3.708,3.708,0,0,0-.751-0.15c-0.006,0-.011,0-0.018,0-0.114,0-.21.054-0.322,0.064a3.635,3.635,0,0,0-1.039.208,3.52,3.52,0,0,0-.522.328,3.53,3.53,0,0,0-.633.424,3.589,3.589,0,0,0-.511.72,3.421,3.421,0,0,0-.282.4c0,0.008,0,.017-0.006.026a3.64,3.64,0,0,0-.144.655A3.653,3.653,0,0,0,5,8.531c0,0.008,0,.015,0,0.023V79.6a3.349,3.349,0,0,0,.083.409,3.572,3.572,0,0,0,.19.935,3.478,3.478,0,0,0,.36.566,3.483,3.483,0,0,0,.4.585,3.606,3.606,0,0,0,.751.525,3.37,3.37,0,0,0,.376.263L7.2,82.906h0L34.265,94.726c0.008,0,.017,0,0.025.006a3.717,3.717,0,0,0,.749.162,3.643,3.643,0,0,0,.666.133c0.006,0,.012,0,0.018,0a3.471,3.471,0,0,0,.742-0.149,3.554,3.554,0,0,0,.63-0.121l0.028-.011,0.011,0,26.771-10.9L90,94.749a3.638,3.638,0,0,0,3.4-.317,3.584,3.584,0,0,0,1.616-2.99V20.395A3.588,3.588,0,0,0,92.8,17.088Zm-80.58-3.035,19.884,8.683V85.943L12.223,77.259V14.053ZM39.338,22.8L60.28,14.274,59.957,77.7l-20.619,8.4V22.8ZM87.784,86.038L67.189,77.432,67.511,14.3l20.273,8.474v63.26Z"/>
</svg>
