<svg xmlns="http://www.w3.org/2000/svg" width="100" height="100" viewBox="0 0 100 100">
  <defs>
    <style>
      .cls-1 {
        fill-rule: evenodd;
      }
    </style>
  </defs>
  <path id="모양_3" data-name="모양 3" class="cls-1" d="M26.894,15H8.6a3.628,3.628,0,0,0-3.611,3.646v17.5a3.611,3.611,0,1,0,7.222,0V22.292H26.894A3.646,3.646,0,0,0,26.894,15Zm64.513,0H73.113a3.646,3.646,0,0,0,0,7.292H87.8V36.146a3.611,3.611,0,1,0,7.222,0v-17.5A3.628,3.628,0,0,0,91.407,15ZM26.894,77.708H12.211V63.854a3.611,3.611,0,1,0-7.222,0v17.5A3.628,3.628,0,0,0,8.6,85H26.894A3.646,3.646,0,0,0,26.894,77.708Zm64.513-17.5A3.628,3.628,0,0,0,87.8,63.854V77.708H73.113a3.646,3.646,0,0,0,0,7.292H91.407a3.628,3.628,0,0,0,3.611-3.646v-17.5A3.628,3.628,0,0,0,91.407,60.208Z"/>
</svg>
