<svg xmlns="http://www.w3.org/2000/svg" width="100" height="100" viewBox="0 0 100 100">
  <defs>
    <style>
      .cls-1 {
        fill-rule: evenodd;
      }
    </style>
  </defs>
  <path id="모양_3" data-name="모양 3" class="cls-1" d="M83.45,28.624H15.61a9.563,9.563,0,0,0-9.6,9.507v47.36A9.563,9.563,0,0,0,15.61,95H83.45a9.562,9.562,0,0,0,9.595-9.507V38.131A9.562,9.562,0,0,0,83.45,28.624ZM85.71,85.491a2.281,2.281,0,0,1-2.261,2.24H15.61a2.281,2.281,0,0,1-2.262-2.24V38.131a2.281,2.281,0,0,1,2.262-2.24H83.45a2.281,2.281,0,0,1,2.261,2.24v47.36ZM16.465,24.082H82.655a3.634,3.634,0,1,0,0-7.267H16.465A3.634,3.634,0,1,0,16.465,24.082Zm5.684-11.809H76.971a3.634,3.634,0,1,0,0-7.267H22.149A3.634,3.634,0,1,0,22.149,12.273Z"/>
</svg>
