<svg xmlns="http://www.w3.org/2000/svg" width="100" height="100" viewBox="0 0 100 100">
  <defs>
    <style>
      .cls-1 {
        fill-rule: evenodd;
      }
    </style>
  </defs>
  <path id="모양_3" data-name="모양 3" class="cls-1" d="M94.673,27.837a3.588,3.588,0,0,0-.8-1.17L72.77,6.029a3.686,3.686,0,0,0-1.2-.778,3.748,3.748,0,0,0-1.4-.277H45.321a9.613,9.613,0,0,0-7.4,3.439,3.538,3.538,0,0,0,.517,5.058,3.733,3.733,0,0,0,5.173-.506,2.225,2.225,0,0,1,1.707-.8H66.492v9.569A11.213,11.213,0,0,0,77.817,32.805H87.6V74.177A2.21,2.21,0,0,1,85.4,76.334H67.535a3.665,3.665,0,0,0-3.309,2.081v-37.7a3.527,3.527,0,0,0-.283-1.374,3.593,3.593,0,0,0-.8-1.17L42.04,17.533a3.681,3.681,0,0,0-1.2-.778,3.75,3.75,0,0,0-1.4-.277H14.591a9.466,9.466,0,0,0-9.559,9.347V85.681a9.466,9.466,0,0,0,9.559,9.347H54.667a9.466,9.466,0,0,0,9.559-9.347V81.443a3.664,3.664,0,0,0,3.309,2.081H85.4a9.466,9.466,0,0,0,9.559-9.347V29.21A3.531,3.531,0,0,0,94.673,27.837Zm-51.557.914,8.558,8.368H47.086a3.932,3.932,0,0,1-3.971-3.883V28.751ZM54.667,87.838H14.591a2.21,2.21,0,0,1-2.206-2.157V25.825a2.21,2.21,0,0,1,2.206-2.157H35.762v9.569A11.213,11.213,0,0,0,47.086,44.309h9.786V85.681A2.21,2.21,0,0,1,54.667,87.838ZM73.846,21.733V17.247L82.4,25.616H77.817A3.931,3.931,0,0,1,73.846,21.733Z"/>
</svg>
