<svg xmlns="http://www.w3.org/2000/svg" width="100" height="100" viewBox="0 0 100 100">
  <defs>
    <style>
      .cls-1 {
        fill-rule: evenodd;
      }
    </style>
  </defs>
  <path id="모양_3" data-name="모양 3" class="cls-1" d="M84.01,32.738a4.135,4.135,0,0,0-1.219-2.9L58.889,6.173a4.242,4.242,0,0,0-2.946-1.21H27.8A10.785,10.785,0,0,0,16.976,15.681V84.317A10.785,10.785,0,0,0,27.8,95.034H73.188A10.785,10.785,0,0,0,84.014,84.317V32.755C84.014,32.749,84.01,32.744,84.01,32.738Zm-23.9-13.7,9.691,9.6H64.6a4.479,4.479,0,0,1-4.5-4.452V19.037ZM73.188,86.79H27.8a2.518,2.518,0,0,1-2.5-2.473V15.681a2.518,2.518,0,0,1,2.5-2.473H51.779V24.18A12.775,12.775,0,0,0,64.6,36.877H75.686V84.317A2.518,2.518,0,0,1,73.188,86.79Z"/>
</svg>
