<svg xmlns="http://www.w3.org/2000/svg" width="100" height="100" viewBox="0 0 100 100">
  <defs>
    <style>
      .cls-1 {
        fill-rule: evenodd;
      }
    </style>
  </defs>
  <path id="모양_3" data-name="모양 3" class="cls-1" d="M86.362,12.272L81.174,6.733a5.63,5.63,0,0,0-8.088,0L68.2,11.949a8.054,8.054,0,0,0-1.44-.153H20.5A8.743,8.743,0,0,0,12,20.741V86.085a8.743,8.743,0,0,0,8.5,8.945H66.76a8.743,8.743,0,0,0,8.5-8.945v-53.7l11.1-11.85A6.133,6.133,0,0,0,86.362,12.272ZM69.644,86.085A3.065,3.065,0,0,1,66.76,89.3H20.5a3.065,3.065,0,0,1-2.884-3.213V20.741A3.065,3.065,0,0,1,20.5,17.528H62.974l-17.231,18.4,0.024,0.023a2.8,2.8,0,0,0-.686,1.142L40.937,51.353a2.92,2.92,0,0,0-.115.8c0,0.005,0,.009,0,0.015h0c0,0.025.011,0.047,0.011,0.071a2.912,2.912,0,0,0,.127.813l0,0.006a2.9,2.9,0,0,0,.407.809A2.824,2.824,0,0,0,42,54.5c0.027,0.02.063,0.028,0.091,0.047a2.781,2.781,0,0,0,.715.355c0.01,0,.017.01,0.027,0.013a2.763,2.763,0,0,0,.77.115c0.009,0,.018,0,0.028,0h0c0.045,0,.087-0.02.132-0.022a2.727,2.727,0,0,0,.734-0.119l0.012,0,0.006,0,13.34-4.418A2.749,2.749,0,0,0,59,49.7l0.024,0.024L69.644,38.382v47.7ZM82.3,16.571L55.446,45.241l-7.6,2.519,2.433-8.374L77.112,10.695,82.3,16.234A0.3,0.3,0,0,1,82.3,16.571Z"/>
</svg>
