<svg xmlns="http://www.w3.org/2000/svg" width="100" height="100" viewBox="0 0 100 100">
  <defs>
    <style>
      .cls-1 {
        fill-rule: evenodd;
      }
    </style>
  </defs>
  <path id="모양_3" data-name="모양 3" class="cls-1" d="M92.4,19.113c-0.034-.04-0.083-0.054-0.119-0.092S92.237,18.933,92.2,18.9L81.115,7.81c-0.036-.037-0.086-0.047-0.123-0.082S80.94,7.644,80.9,7.61c-5.239-4.543-10.739-2.3-13.057.216L57.618,18.166s-0.011.006-.015,0.01-0.006.011-.01,0.016L17.255,58.981a4.09,4.09,0,0,0-.868,1.3l-11,26.127a4.082,4.082,0,0,0-.293,1.1,7.076,7.076,0,0,0,1.762,5.544,6.533,6.533,0,0,0,4.818,1.932c0.222,0,.449-0.01.678-0.027a4.107,4.107,0,0,0,1.269-.311l26.121-11a4.088,4.088,0,0,0,1.3-.869L92.083,32.27C94.7,29.853,96.943,24.355,92.4,19.113ZM35.811,76.349L14.857,85.176,23.68,64.217,60.537,26.945,73.07,39.481ZM86.385,26.306l-7.451,7.373-12.6-12.6,7.385-7.468c0.541-.51.952-0.458,1.717,0.188L86.21,24.572C86.857,25.339,86.907,25.753,86.385,26.306Z"/>
</svg>
