<svg xmlns="http://www.w3.org/2000/svg" width="100" height="100" viewBox="0 0 100 100">
  <defs>
    <style>
      .cls-1 {
        fill-rule: evenodd;
      }
    </style>
  </defs>
  <path id="모양_3" data-name="모양 3" class="cls-1" d="M84.5,21.008H80.95V16.085a4.1,4.1,0,1,0-8.206,0v4.924H63.08V16.085a4.1,4.1,0,1,0-8.206,0v4.924H45.21V16.085a4.1,4.1,0,1,0-8.206,0v4.924H27.34V16.085a4.1,4.1,0,1,0-8.206,0v4.924H15.577A10.542,10.542,0,0,0,5.047,31.54V77.494a10.543,10.543,0,0,0,10.53,10.532H84.5A10.544,10.544,0,0,0,95.037,77.494V31.54A10.544,10.544,0,0,0,84.5,21.008Zm2.327,56.486A2.356,2.356,0,0,1,84.5,79.82H15.577a2.355,2.355,0,0,1-2.324-2.326V31.54a2.355,2.355,0,0,1,2.324-2.326h3.558v4.1a4.1,4.1,0,1,0,8.206,0v-4.1H37v4.1a4.1,4.1,0,1,0,8.206,0v-4.1h9.664v4.1a4.1,4.1,0,1,0,8.206,0v-4.1h9.664v4.1a4.1,4.1,0,1,0,8.206,0v-4.1H84.5a2.356,2.356,0,0,1,2.327,2.326V77.494ZM60.654,45.211l-12.882,13.1-5.048-6.351A4.1,4.1,0,0,0,36.3,57.07l7.933,9.984a4.1,4.1,0,0,0,3,1.543c0.071,0,.144.007,0.215,0.007a4.109,4.109,0,0,0,2.926-1.226L66.506,50.965A4.1,4.1,0,0,0,60.654,45.211Z"/>
</svg>
