<svg xmlns="http://www.w3.org/2000/svg" width="100" height="100" viewBox="0 0 100 100">
  <defs>
    <style>
      .cls-1 {
        fill-rule: evenodd;
      }
    </style>
  </defs>
  <path id="모양_3" data-name="모양 3" class="cls-1" d="M84.508,20.127H73.154V15.139a4.1,4.1,0,1,0-8.206,0v4.988H35.136V15.139a4.1,4.1,0,1,0-8.206,0v4.988H15.58A10.614,10.614,0,0,0,5.047,30.8V77.356A10.614,10.614,0,0,0,15.58,88.026H84.508a10.614,10.614,0,0,0,10.529-10.67V30.8A10.613,10.613,0,0,0,84.508,20.127ZM15.58,28.441H26.93V32.6a4.1,4.1,0,1,0,8.206,0V28.441H64.949V32.6a4.1,4.1,0,1,0,8.206,0V28.441H84.508A2.371,2.371,0,0,1,86.832,30.8V43.406H13.253V30.8A2.371,2.371,0,0,1,15.58,28.441ZM84.508,79.712H15.58a2.371,2.371,0,0,1-2.327-2.356V51.72H86.832V77.356A2.371,2.371,0,0,1,84.508,79.712Z"/>
</svg>
