<svg xmlns="http://www.w3.org/2000/svg" width="100" height="100" viewBox="0 0 100 100">
  <defs>
    <style>
      .cls-1 {
        fill-rule: evenodd;
      }
    </style>
  </defs>
  <path id="모양_3" data-name="모양 3" class="cls-1" d="M85.14,13.166H81.316V12.673a7.862,7.862,0,0,0-15.719,0v0.493h-28.8V12.673a7.864,7.864,0,0,0-15.721,0v0.493H14.9A9.766,9.766,0,0,0,5.014,22.78V85.4A9.766,9.766,0,0,0,14.9,95.014H85.14A9.766,9.766,0,0,0,95.028,85.4V22.78A9.766,9.766,0,0,0,85.14,13.166ZM73.2,12.673a0.253,0.253,0,0,1,.505,0v6.534c0,0.251-.505.251-0.505,0V12.673Zm-44.526,0a0.262,0.262,0,0,1,.252-0.247,0.265,0.265,0,0,1,.256.247v6.534c0,0.251-.508.251-0.508,0V12.673ZM14.9,20.562h6.31a7.883,7.883,0,0,0,15.439,0H65.738a7.881,7.881,0,0,0,15.437,0H85.14a2.281,2.281,0,0,1,2.282,2.219v8.875H12.62V22.78A2.282,2.282,0,0,1,14.9,20.562ZM85.14,87.618H14.9A2.282,2.282,0,0,1,12.62,85.4V39.051h74.8V85.4A2.281,2.281,0,0,1,85.14,87.618Zm-6.656-46.1H23.906a8.262,8.262,0,0,0-8.367,8.135V77.017a8.262,8.262,0,0,0,8.367,8.135H78.484a8.262,8.262,0,0,0,8.367-8.135V49.652A8.262,8.262,0,0,0,78.484,41.517ZM23.145,61.3h7.036v4.992H23.145V61.3Zm14.643,0h8.843v4.992H37.788V61.3Zm8.843-7.4H37.788V48.913h8.843V53.9Zm7.607-4.992H63.08V53.9H54.237V48.913ZM46.631,73.689v4.068H37.788V73.689h8.843Zm7.607,0H63.08v4.068H54.237V73.689Zm0-7.4V61.3H63.08v4.992H54.237ZM70.687,61.3h8.557v4.992H70.687V61.3Zm8.557-11.648V53.9H70.687V48.913h7.8A0.77,0.77,0,0,1,79.244,49.652Zm-55.339-.739h6.276V53.9H23.145V49.652A0.759,0.759,0,0,1,23.906,48.913Zm-0.761,28.1V73.689h7.036v4.068H23.906A0.76,0.76,0,0,1,23.145,77.017Zm55.339,0.74h-7.8V73.689h8.557v3.328A0.759,0.759,0,0,1,78.484,77.756Z"/>
</svg>
