<svg xmlns="http://www.w3.org/2000/svg" width="100" height="100" viewBox="0 0 100 100">
  <defs>
    <style>
      .cls-1 {
        fill-rule: evenodd;
      }
    </style>
  </defs>
  <path id="모양_3" data-name="모양 3" class="cls-1" d="M49.991,4.968l-0.049,0-0.054,0c-0.056,0-.11.008-0.166,0.008H49.7a45.016,45.016,0,0,0,.291,90.031h0A45.023,45.023,0,0,0,49.991,4.968ZM78.619,74.28a29.566,29.566,0,0,0-7.642-5.5,53.461,53.461,0,0,0,3.213-15.064H87.384A37.4,37.4,0,0,1,78.619,74.28ZM12.6,53.712H25.793a53.339,53.339,0,0,0,3.492,15.735,42.608,42.608,0,0,0-7.594,5.194A37.4,37.4,0,0,1,12.6,53.712ZM21.361,25.7a29.366,29.366,0,0,0,7.021,5.169,61.867,61.867,0,0,0-2.613,15.4H12.6A37.4,37.4,0,0,1,21.361,25.7ZM46.27,28.138a41.723,41.723,0,0,1-8.281-1.362A35.832,35.832,0,0,1,46.27,15.746V28.138Zm0,7.447V46.27H33.2a54.649,54.649,0,0,1,2.091-12.552A48.543,48.543,0,0,0,46.27,35.585Zm0,18.127V64.426a43.165,43.165,0,0,0-10.123,2.08,45.892,45.892,0,0,1-2.908-12.795H46.27Zm0,18.2V82.755a54.152,54.152,0,0,1-6.894-9.475A36.151,36.151,0,0,1,46.27,71.917Zm7.442-.073a42.405,42.405,0,0,1,7.074,1.073,54.708,54.708,0,0,1-7.074,9.814V71.844Zm0-7.447V53.712h13.04a45.663,45.663,0,0,1-2.776,12.365A48.832,48.832,0,0,0,53.712,64.4Zm0-18.127V35.556A43.108,43.108,0,0,0,64.563,33.22a54.167,54.167,0,0,1,2.252,13.05h-13.1Zm0-18.2V15.726a35.784,35.784,0,0,1,8.075,10.594A35.99,35.99,0,0,1,53.712,28.067Zm9.4-13.246a37.5,37.5,0,0,1,9.725,5.4,34.69,34.69,0,0,1-4.3,3A45.04,45.04,0,0,0,63.115,14.821ZM31.09,23.91a21.005,21.005,0,0,1-4.4-3.349,37.546,37.546,0,0,1,10.179-5.74A45.044,45.044,0,0,0,31.09,23.91Zm1.34,52.31a60.035,60.035,0,0,0,6.741,9.748,37.458,37.458,0,0,1-12.022-6.2A35.862,35.862,0,0,1,32.43,76.22Zm35.48-.7a21.468,21.468,0,0,1,5.382,3.9,37.478,37.478,0,0,1-12.481,6.546A60.122,60.122,0,0,0,67.91,75.52Zm6.3-29.25a61.45,61.45,0,0,0-2.838-16.124A42.812,42.812,0,0,0,78.29,25.34a37.393,37.393,0,0,1,9.093,20.93H74.213Z"/>
</svg>
