<svg xmlns="http://www.w3.org/2000/svg" width="100" height="100" viewBox="0 0 100 100">
  <defs>
    <style>
      .cls-1 {
        fill-rule: evenodd;
      }
    </style>
  </defs>
  <path id="모양_3" data-name="모양 3" class="cls-1" d="M49.991,4.968A45.023,45.023,0,1,0,95.014,49.991,45.075,45.075,0,0,0,49.991,4.968Zm0,82.6A37.581,37.581,0,1,1,87.572,49.991,37.623,37.623,0,0,1,49.991,87.572Zm3.64-41.632V22.7a3.721,3.721,0,1,0-7.442,0V45.938a5.428,5.428,0,0,0-1.738,3.972c0,0.008,0,.015,0,0.022L32.889,60.8a3.721,3.721,0,0,0,5.1,5.422L49.573,55.333c0.114,0.007.222,0.034,0.337,0.034A5.443,5.443,0,0,0,53.631,45.94Z"/>
</svg>
