<svg xmlns="http://www.w3.org/2000/svg" width="100" height="100" viewBox="0 0 100 100">
  <defs>
    <style>
      .cls-1 {
        fill-rule: evenodd;
      }
    </style>
  </defs>
  <path id="모양_3" data-name="모양 3" class="cls-1" d="M86.733,47.369a37.356,37.356,0,0,0-74.708,0A37.356,37.356,0,0,0,86.733,47.369ZM49.379,77.31A29.943,29.943,0,1,1,79.644,47.369,30.14,30.14,0,0,1,49.379,77.31ZM25.763,11.669a3.488,3.488,0,0,0,1.587-4.7A3.561,3.561,0,0,0,22.6,5.4,37.325,37.325,0,0,0,5.3,23.084a3.492,3.492,0,0,0,1.747,4.648,3.561,3.561,0,0,0,4.7-1.726A30.243,30.243,0,0,1,25.763,11.669ZM21.674,80.363l-8.758,8.664a3.478,3.478,0,0,0,0,4.958,3.57,3.57,0,0,0,5.012,0l8.758-8.664a3.478,3.478,0,0,0,0-4.958A3.57,3.57,0,0,0,21.674,80.363ZM93.685,23.084A37.325,37.325,0,0,0,76.388,5.4a3.557,3.557,0,0,0-4.754,1.57,3.488,3.488,0,0,0,1.586,4.7A30.242,30.242,0,0,1,87.239,26.007a3.561,3.561,0,0,0,4.7,1.726A3.492,3.492,0,0,0,93.685,23.084ZM77.31,80.363a3.57,3.57,0,0,0-5.012,0,3.479,3.479,0,0,0,0,4.958l8.758,8.664a3.57,3.57,0,0,0,5.011,0,3.478,3.478,0,0,0,0-4.958ZM64.773,45.506H52.923V25.494a3.544,3.544,0,0,0-7.088,0V49.012a3.525,3.525,0,0,0,3.544,3.506H64.773A3.506,3.506,0,1,0,64.773,45.506Z"/>
</svg>
