<svg xmlns="http://www.w3.org/2000/svg" width="100" height="100" viewBox="0 0 100 100">
  <defs>
    <style>
      .cls-1 {
        fill-rule: evenodd;
      }
    </style>
  </defs>
  <path id="모양_3" data-name="모양 3" class="cls-1" d="M93.107,75.158l-5.443-3.49a11.042,11.042,0,0,0,2.626-7.108V27.084A11.024,11.024,0,0,0,79.34,16.012H20.663A11.024,11.024,0,0,0,9.713,27.084V64.56a11.041,11.041,0,0,0,2.626,7.108L6.9,75.158a4.281,4.281,0,0,0-1.788,4.784,4.216,4.216,0,0,0,4.044,3.071h81.7A4.219,4.219,0,0,0,94.9,79.943,4.283,4.283,0,0,0,93.107,75.158ZM18.136,27.084a2.574,2.574,0,0,1,2.527-2.555H79.34a2.574,2.574,0,0,1,2.527,2.555V64.56a2.574,2.574,0,0,1-2.527,2.555H20.663a2.574,2.574,0,0,1-2.527-2.555V27.084Z"/>
</svg>
