<svg xmlns="http://www.w3.org/2000/svg" width="100" height="100" viewBox="0 0 100 100">
  <defs>
    <style>
      .cls-1 {
        fill-rule: evenodd;
      }
    </style>
  </defs>
  <path id="모양_3" data-name="모양 3" class="cls-1" d="M84.472,14.036H15.518a10.5,10.5,0,0,0-10.5,10.478V64.275a10.5,10.5,0,0,0,10.5,10.478H45.954v4.231H30.669v8.06H69.186v-8.06H54.035V74.753H84.472a10.5,10.5,0,0,0,10.5-10.478V24.513A10.5,10.5,0,0,0,84.472,14.036ZM86.9,64.275a2.453,2.453,0,0,1-2.424,2.418H15.518a2.453,2.453,0,0,1-2.424-2.418V24.513A2.453,2.453,0,0,1,15.518,22.1H84.472A2.453,2.453,0,0,1,86.9,24.513V64.275Z"/>
</svg>
