<svg xmlns="http://www.w3.org/2000/svg" width="100" height="100" viewBox="0 0 100 100">
  <defs>
    <style>
      .cls-1 {
        fill-rule: evenodd;
      }
    </style>
  </defs>
  <path id="모양_3" data-name="모양 3" class="cls-1" d="M68.421,4.99H32.55a10.706,10.706,0,0,0-10.6,10.787V84.232a10.706,10.706,0,0,0,10.6,10.787H68.421a10.707,10.707,0,0,0,10.6-10.787V15.777A10.706,10.706,0,0,0,68.421,4.99Zm2.446,79.242a2.5,2.5,0,0,1-2.446,2.489H32.55A2.5,2.5,0,0,1,30.1,84.232V15.777a2.5,2.5,0,0,1,2.446-2.489H68.421a2.5,2.5,0,0,1,2.446,2.489V84.232ZM61.22,13.425H39.752a4.149,4.149,0,0,0,0,8.3H61.22A4.149,4.149,0,0,0,61.22,13.425ZM54.7,75.657H46.274a4.149,4.149,0,0,0,0,8.3H54.7A4.149,4.149,0,0,0,54.7,75.657Z"/>
</svg>
