<svg xmlns="http://www.w3.org/2000/svg" width="100" height="100" viewBox="0 0 100 100">
  <defs>
    <style>
      .cls-1 {
        fill-rule: evenodd;
      }
    </style>
  </defs>
  <path id="모양_3" data-name="모양 3" class="cls-1" d="M73.985,4.99H26.076A10.928,10.928,0,0,0,15.037,15.777V84.232A10.928,10.928,0,0,0,26.076,95.018H73.985A10.928,10.928,0,0,0,85.024,84.232V15.777A10.928,10.928,0,0,0,73.985,4.99Zm2.547,79.242a2.552,2.552,0,0,1-2.547,2.489H26.076a2.552,2.552,0,0,1-2.547-2.489V15.777a2.551,2.551,0,0,1,2.547-2.489H73.985a2.552,2.552,0,0,1,2.547,2.489V84.232ZM66.483,13.425H33.578a4.15,4.15,0,1,0,0,8.3H66.483A4.15,4.15,0,1,0,66.483,13.425ZM59.69,75.657H40.371a4.15,4.15,0,1,0,0,8.3H59.69A4.15,4.15,0,1,0,59.69,75.657Z"/>
</svg>
