<svg xmlns="http://www.w3.org/2000/svg" width="100" height="100" viewBox="0 0 100 100">
  <defs>
    <style>
      .cls-1 {
        fill-rule: evenodd;
      }
    </style>
  </defs>
  <path id="모양_3" data-name="모양 3" class="cls-1" d="M86.221,18.031H13.784a8.938,8.938,0,0,0-8.8,9.05v44.9a8.938,8.938,0,0,0,8.8,9.05H86.221a8.938,8.938,0,0,0,8.8-9.05v-44.9A8.938,8.938,0,0,0,86.221,18.031ZM13.784,24.992H86.221a2.087,2.087,0,0,1,2.031,2.089v3.511L50,60.971,11.753,30.592V27.081A2.087,2.087,0,0,1,13.784,24.992ZM86.221,74.072H13.784a2.087,2.087,0,0,1-2.031-2.088V39.389l36.18,28.735a3.311,3.311,0,0,0,4.139,0l36.18-28.735V71.983A2.087,2.087,0,0,1,86.221,74.072Z"/>
</svg>
