<svg xmlns="http://www.w3.org/2000/svg" width="100" height="100" viewBox="0 0 100 100">
  <defs>
    <style>
      .cls-1 {
        fill-rule: evenodd;
      }
    </style>
  </defs>
  <path id="모양_3" data-name="모양 3" class="cls-1" d="M90.19,35.885c-0.04-.035-0.057-0.085-0.1-0.118l-1-.8-0.006,0L52.964,5.88a3.924,3.924,0,0,0-4.938,0L11.07,35.664c-0.043.035-.061,0.087-0.1,0.123A9.336,9.336,0,0,0,6.962,43.4V85.669a9.226,9.226,0,0,0,9.129,9.3H84.905a9.227,9.227,0,0,0,9.129-9.3V43.4A9.273,9.273,0,0,0,90.19,35.885ZM50.5,14.238l33.661,27.1,0,0,1,0.8c0.071,0.056.156,0.076,0.229,0.127,0.048,0.034.073,0.087,0.123,0.119a1.215,1.215,0,0,1,.56,1.01v2.923l-35.572,28-35.57-28V43.4a1.207,1.207,0,0,1,.6-1.032c0.074-.044.115-0.118,0.186-0.166,0.1-.065.207-0.092,0.3-0.167ZM84.905,86.855H16.09a1.191,1.191,0,0,1-1.163-1.186V56.575L48.064,82.656a3.92,3.92,0,0,0,4.866,0L86.069,56.573v29.1A1.19,1.19,0,0,1,84.905,86.855Z"/>
</svg>
