<svg xmlns="http://www.w3.org/2000/svg" width="100" height="100" viewBox="0 0 100 100">
  <defs>
    <style>
      .cls-1 {
        fill-rule: evenodd;
      }
    </style>
  </defs>
  <path id="모양_3" data-name="모양 3" class="cls-1" d="M89.206,35.532c-0.04-.034-0.056-0.084-0.1-0.117l-0.978-.788,0,0-8.1-6.535V19.553a3.975,3.975,0,0,0-3.934-4.016H64.46L52.437,5.84a3.871,3.871,0,0,0-4.878,0l-12.011,9.7H23.9a3.975,3.975,0,0,0-3.934,4.016v8.562l-8.916,7.2c-0.04.033-.057,0.081-0.1,0.115a9.243,9.243,0,0,0-3.965,7.536V84.8A9.123,9.123,0,0,0,16.011,94H83.985A9.122,9.122,0,0,0,93,84.8V42.965A9.182,9.182,0,0,0,89.206,35.532Zm-5.959,5.4,0,0,0.983,0.792c0.07,0.056.154,0.075,0.226,0.125,0.047,0.033.072,0.086,0.121,0.118a1.2,1.2,0,0,1,.553,1v2.893l-5.108,4.027V38.33ZM50,14.111l1.769,1.426H48.233Zm22.159,9.459v32.52L50,73.561,27.837,56.088V23.569H72.159ZM19.969,49.885l-5.108-4.027V42.965a1.2,1.2,0,0,1,.59-1.021c0.072-.042.11-0.114,0.178-0.16,0.1-.066.211-0.093,0.3-0.17l4.036-3.258V49.885ZM83.985,85.971H16.011a1.177,1.177,0,0,1-1.15-1.173V56L47.6,81.815a3.867,3.867,0,0,0,4.807,0l32.732-25.81V84.8A1.177,1.177,0,0,1,83.985,85.971Z"/>
</svg>
