<svg xmlns="http://www.w3.org/2000/svg" width="100" height="100" viewBox="0 0 100 100">
  <defs>
    <style>
      .cls-1 {
        fill-rule: evenodd;
      }
    </style>
  </defs>
  <path id="모양_3" data-name="모양 3" class="cls-1" d="M85.63,26.591h-7.1V8.583a3.606,3.606,0,0,0-3.611-3.6H25.089a3.606,3.606,0,0,0-3.611,3.6V26.591h-7.1a9.387,9.387,0,0,0-9.388,9.365V70.292a9.387,9.387,0,0,0,9.388,9.364h7.1V91.423a3.606,3.606,0,0,0,3.611,3.6h49.83a3.606,3.606,0,0,0,3.611-3.6V79.657h7.1a9.388,9.388,0,0,0,9.388-9.364V35.956A9.387,9.387,0,0,0,85.63,26.591ZM28.7,12.184H71.308V26.591H28.7V12.184ZM71.308,87.821H28.7V58.287H71.308V87.821ZM87.8,70.292a2.193,2.193,0,0,1-2.166,2.161h-7.1V54.685a3.606,3.606,0,0,0-3.611-3.6H25.089a3.606,3.606,0,0,0-3.611,3.6V72.453h-7.1a2.193,2.193,0,0,1-2.167-2.161V35.956a2.193,2.193,0,0,1,2.167-2.161H85.63A2.193,2.193,0,0,1,87.8,35.956V70.292ZM78.769,35.956H74.2a4.682,4.682,0,1,0,0,9.365h4.573A4.682,4.682,0,1,0,78.769,35.956Zm-2.288,5.757a2.529,2.529,0,0,1,0-2.15A2.5,2.5,0,0,1,76.481,41.713Z"/>
</svg>
