<svg xmlns="http://www.w3.org/2000/svg" width="100" height="100" viewBox="0 0 100 100">
  <defs>
    <style>
      .cls-1 {
        fill-rule: evenodd;
      }
    </style>
  </defs>
  <path id="모양_3" data-name="모양 3" class="cls-1" d="M50,29.132A20.87,20.87,0,1,0,70.815,50,20.864,20.864,0,0,0,50,29.132Zm0,33.336A12.466,12.466,0,1,1,62.435,50,12.461,12.461,0,0,1,50,62.468Zm44.983-12.03a8.88,8.88,0,0,0-8.655-8.872c-0.03,0-.054-0.019-0.085-0.02a6.24,6.24,0,0,1-5.152-4.2,6.26,6.26,0,0,1,.786-6.438c0.022-.024.028-0.055,0.05-0.08a8.876,8.876,0,0,0-.132-12.41,9.049,9.049,0,0,0-12.212-.269c-0.038.032-.087,0.039-0.125,0.072a7.225,7.225,0,0,1-7.26.947,7.5,7.5,0,0,1-4.223-6.022c-0.005-.1-0.055-0.175-0.066-0.27a8.845,8.845,0,0,0-17.633,1.047h0a5.622,5.622,0,0,1-3.08,4.9c-4.606,2.155-7.008.235-7.319-.044-0.018-.018-0.043-0.022-0.061-0.04a9.053,9.053,0,0,0-12.443.071,8.849,8.849,0,0,0-.274,12.25c0.022,0.027.026,0.062,0.048,0.089A7.469,7.469,0,0,1,18.526,37.7c-0.707,2.255-4.121,2.111-4.341,2.093-0.052,0-.1.021-0.147,0.02s-0.1-.03-0.148-0.03a8.894,8.894,0,0,0,0,17.789,3.865,3.865,0,0,0,.427-0.086c0.1,0.015.193,0.074,0.3,0.081a4.57,4.57,0,0,1,3.945,3.286A7.161,7.161,0,0,1,17.03,68.3c-0.018.017-.024,0.041-0.042,0.058s-0.035.019-.05,0.034a8.923,8.923,0,0,0,0,12.577,8.762,8.762,0,0,0,11.857.563c0.471-.267,4.911-2.668,8.183-1.077a9.511,9.511,0,0,1,5.395,6.282c0,0.02.016,0.036,0.02,0.056a8.841,8.841,0,0,0,17.657-.619c0-.015.009-0.028,0.01-0.043,0-.164.134-4.03,3.221-5.615,3.646-1.865,5.954.028,6.406,0.453a8.857,8.857,0,0,0,12.54,0,8.926,8.926,0,0,0,0-12.577c-0.012-.013-0.03-0.016-0.043-0.029s-0.016-.03-0.029-0.042a5.783,5.783,0,0,1-.992-6.431c1.257-2.813,3.273-2.792,4.088-2.648a3.886,3.886,0,0,0,.447.006,3.94,3.94,0,0,0,.417.084c0.235,0,.456-0.051.686-0.069,0.043-.007.086,0,0.128-0.013A8.865,8.865,0,0,0,94.986,50.438ZM73.519,58.456a14.126,14.126,0,0,0,2.77,15.856c0.005,0.005.007,0.013,0.012,0.018a0.49,0.49,0,0,1-.691.7c-0.009-.01-0.023-0.013-0.033-0.022A13.8,13.8,0,0,0,59.46,73.036c-6.131,3.148-7.775,9.676-7.781,13.036,0,0,0,0,0,0s0,0,0,0c0,0.539-.979.545-0.979,0,0-.1-0.052-0.193-0.06-0.3s0.032-.2.017-0.3A17.86,17.86,0,0,0,40.644,72.9c-7.637-3.731-15.964,1.3-16.318,1.517a3.9,3.9,0,0,0-.365.341,3.923,3.923,0,0,0-.407.271,0.555,0.555,0,0,1-.691,0,0.493,0.493,0,0,1,0-.7c0.013-.013.016-0.03,0.029-0.043A15.527,15.527,0,0,0,26.483,58.1a12.9,12.9,0,0,0-11.568-8.936H14.8a3.873,3.873,0,0,0-.462.091,3.9,3.9,0,0,0-.451-0.091,0.49,0.49,0,0,1,0-.98h0c0.19,0.009.374,0.022,0.583,0.022,3.744,0,10.046-1.614,12.043-7.989a15.818,15.818,0,0,0-3.034-14.558c-0.033-.038-0.08-0.051-0.114-0.088s-0.044-.084-0.079-0.119a0.465,0.465,0,0,1-.141-0.343,0.474,0.474,0,0,1,.144-0.348,0.554,0.554,0,0,1,.691,0c0.006,0.006.015,0.008,0.021,0.015a13.058,13.058,0,0,0,9.147,3.477,17.817,17.817,0,0,0,7.591-1.809,13.964,13.964,0,0,0,7.908-12.5c0-.007,0-0.012,0-0.02,0-.538.979-0.545,0.979,0,0,0.033.018,0.06,0.019,0.092a15.727,15.727,0,0,0,9.121,12.826,15.024,15.024,0,0,0,6.2,1.352,15.8,15.8,0,0,0,9.993-3.639c0.04-.035.054-0.085,0.092-0.121s0.08-.042.114-0.076a0.551,0.551,0,0,1,.694.005,0.488,0.488,0,0,1,0,.686c-0.007.007-.009,0.016-0.015,0.023s-0.017.009-.024,0.016a14.623,14.623,0,0,0-2.57,15.254,14.536,14.536,0,0,0,12.727,9.6h0.128a0.49,0.49,0,0,1,.488.489,0.478,0.478,0,0,1-.428.466C82.717,50.454,76.622,51.5,73.519,58.456Z"/>
</svg>
