<svg xmlns="http://www.w3.org/2000/svg" width="100" height="100" viewBox="0 0 100 100">
  <defs>
    <style>
      .cls-1 {
        fill-rule: evenodd;
      }
    </style>
  </defs>
  <path id="모양_3" data-name="모양 3" class="cls-1" d="M79.748,64.7a15.208,15.208,0,0,0-10.9,4.609L35.235,52.365a14.924,14.924,0,0,0,.255-2.505,14.941,14.941,0,0,0-.249-2.447L68.809,30.648a15.1,15.1,0,1,0-4.293-10.5,14.954,14.954,0,0,0,.249,2.448L31.2,39.361A15.148,15.148,0,1,0,31.161,60.4L64.77,77.344a14.969,14.969,0,0,0-.254,2.506A15.235,15.235,0,1,0,79.748,64.7Zm0-50.7a6.15,6.15,0,1,1-5.5,8.9v0l0,0a6.043,6.043,0,0,1-.68-2.744A6.174,6.174,0,0,1,79.748,14ZM20.257,56.01a6.151,6.151,0,1,1,6.183-6.151A6.175,6.175,0,0,1,20.257,56.01ZM79.748,86a6.151,6.151,0,1,1,6.186-6.151A6.175,6.175,0,0,1,79.748,86Z"/>
</svg>
