<svg xmlns="http://www.w3.org/2000/svg" width="100" height="100" viewBox="0 0 100 100">
  <defs>
    <style>
      .cls-1 {
        fill-rule: evenodd;
      }
    </style>
  </defs>
  <path id="모양_3" data-name="모양 3" class="cls-1" d="M94.628,10.028a8.265,8.265,0,0,0-4.942-4.84,4.241,4.241,0,0,0-1.371-.228H12.685a4.243,4.243,0,0,0-1.372.228,8.266,8.266,0,0,0-4.941,4.84C5.74,11.8,5.48,14.69,7.828,18.4,11.115,23.6,33.313,48.917,38.881,55.246v35.67a4.116,4.116,0,0,0,2.391,3.725A4.206,4.206,0,0,0,45.7,94.1L60.051,82.426a4.1,4.1,0,0,0,1.521-3.181V55.4c5.677-6.356,28.308-31.793,31.6-37C95.521,14.69,95.26,11.8,94.628,10.028ZM86.1,14.037C83.687,17.853,65.748,38.3,54.279,51.113a3.873,3.873,0,0,0-.3.518,2.695,2.695,0,0,0-.622,1.622,3.826,3.826,0,0,0-.12.589V77.3L47.22,82.19V53.706a3.843,3.843,0,0,0-.119-0.584,2.738,2.738,0,0,0-.614-1.615A3.868,3.868,0,0,0,46.194,51C34.94,38.237,17.321,17.863,14.9,14.038a6.423,6.423,0,0,1-.456-0.84H86.556A6.388,6.388,0,0,1,86.1,14.037Z"/>
</svg>
