<svg xmlns="http://www.w3.org/2000/svg" width="100" height="100" viewBox="0 0 100 100">
  <defs>
    <style>
      .cls-1 {
        fill-rule: evenodd;
      }
    </style>
  </defs>
  <path id="모양_3" data-name="모양 3" class="cls-1" d="M85.473,11.037H14.6a9.477,9.477,0,0,0-9.572,9.357V63.4A9.477,9.477,0,0,0,14.6,72.758h6.259V86.434a3.6,3.6,0,0,0,2.259,3.319,3.744,3.744,0,0,0,4-.755L44,72.758H85.473A9.477,9.477,0,0,0,95.045,63.4V20.394A9.477,9.477,0,0,0,85.473,11.037ZM87.682,63.4a2.213,2.213,0,0,1-2.209,2.159H42.492A3.723,3.723,0,0,0,39.909,66.6L28.226,77.84V69.159a3.641,3.641,0,0,0-3.681-3.6H14.6A2.213,2.213,0,0,1,12.4,63.4V20.394A2.213,2.213,0,0,1,14.6,18.235H85.473a2.213,2.213,0,0,1,2.209,2.159V63.4ZM77.128,26.992H23.746a3.6,3.6,0,1,0,0,7.2H77.128A3.6,3.6,0,1,0,77.128,26.992Zm0,10.8H23.746a3.6,3.6,0,1,0,0,7.2H77.128A3.6,3.6,0,1,0,77.128,37.789Zm-17.917,10.8H23.746a3.6,3.6,0,1,0,0,7.2H59.211A3.6,3.6,0,1,0,59.211,48.585Z"/>
</svg>
