<svg xmlns="http://www.w3.org/2000/svg" width="100" height="100" viewBox="0 0 100 100">
  <defs>
    <style>
      .cls-1 {
        fill-rule: evenodd;
      }
    </style>
  </defs>
  <path id="모양_3" data-name="모양 3" class="cls-1" d="M78.594,37.93c0-15.947-16.5-28.919-36.781-28.919S5.029,21.984,5.029,37.93c0,9.168,5.4,17.644,14.582,23.088a16.3,16.3,0,0,1-5.887,9.695,3.569,3.569,0,0,0-1.508,3.808A3.643,3.643,0,0,0,15.3,77.26a7.379,7.379,0,0,0,.947.052c2.652,0,10.129-1,19.389-10.865a47.156,47.156,0,0,0,6.172.4C62.094,66.851,78.594,53.877,78.594,37.93ZM41.812,59.651a39.326,39.326,0,0,1-6.918-.607,3.694,3.694,0,0,0-3.437,1.191A43.5,43.5,0,0,1,25.918,65.6a25.153,25.153,0,0,0,1.33-6.219A3.594,3.594,0,0,0,25.1,55.791C17.12,51.7,12.361,45.039,12.361,37.93c0-11.975,13.212-21.719,29.451-21.719S71.262,25.955,71.262,37.93,58.051,59.651,41.812,59.651Zm46.254,24.77a11.331,11.331,0,0,1-3.863-6.1C90.978,74.076,94.97,67.648,94.97,60.676c0-6.667-3.668-12.944-10.063-17.221a3.715,3.715,0,0,0-5.094.949,3.559,3.559,0,0,0,.967,5c4.358,2.915,6.858,7.023,6.858,11.27,0,5-3.418,9.712-9.142,12.6l-0.006,0a3.652,3.652,0,0,0-1.13.887c-0.035.04-.045,0.094-0.077,0.136a3.389,3.389,0,0,0-.764,2.46c0,0.006,0,.011,0,0.018,0.056,0.64.139,1.254,0.246,1.848Q75.908,77.786,75,76.75a3.708,3.708,0,0,0-3.437-1.191,28.455,28.455,0,0,1-5,.439c-7.442,0-14.425-2.935-18.221-7.66a3.714,3.714,0,0,0-5.149-.6A3.559,3.559,0,0,0,42.58,72.8c5.234,6.512,14.2,10.4,23.978,10.4a36.336,36.336,0,0,0,4.259-.25C77.831,90.247,83.6,91.01,85.7,91.01a6.372,6.372,0,0,0,.783-0.042,3.643,3.643,0,0,0,3.087-2.739A3.568,3.568,0,0,0,88.066,84.421Z"/>
</svg>
