<svg xmlns="http://www.w3.org/2000/svg" width="100" height="100" viewBox="0 0 100 100">
  <defs>
    <style>
      .cls-1 {
        fill-rule: evenodd;
      }
    </style>
  </defs>
  <path id="모양_3" data-name="모양 3" class="cls-1" d="M91.476,35.429H73.41A3.5,3.5,0,0,0,70.3,37.35V18.444a3.494,3.494,0,0,0-3.52-3.468H8.523A3.494,3.494,0,0,0,5,18.444V57.464a3.494,3.494,0,0,0,3.52,3.468H17.5V72.551a3.47,3.47,0,0,0,2.262,3.239,3.56,3.56,0,0,0,3.879-.924L36.32,60.932h6.236a3.339,3.339,0,0,0-.532,1.723v7.006a3.494,3.494,0,0,0,3.52,3.468H69.228L79,83.874a3.56,3.56,0,0,0,3.879.924,3.469,3.469,0,0,0,2.262-3.24V73.13h6.332A3.494,3.494,0,0,0,95,69.661V38.9A3.494,3.494,0,0,0,91.476,35.429ZM34.748,54a3.541,3.541,0,0,0-2.621,1.153L24.54,63.487V57.464A3.494,3.494,0,0,0,21.02,54H12.044V21.913H63.26V54H34.748Zm53.208,12.2H81.624a3.494,3.494,0,0,0-3.52,3.468v2.832l-4.683-5.147A3.542,3.542,0,0,0,70.8,66.193H49.063V62.655a3.336,3.336,0,0,0-.532-1.723H66.781a3.494,3.494,0,0,0,3.52-3.468V40.444a3.5,3.5,0,0,0,3.109,1.922H87.956V66.193Z"/>
</svg>
