<svg xmlns="http://www.w3.org/2000/svg" width="100" height="100" viewBox="0 0 100 100">
  <defs>
    <style>
      .cls-1 {
        fill-rule: evenodd;
      }
    </style>
  </defs>
  <path id="모양_3" data-name="모양 3" class="cls-1" d="M85.874,76.52a4.044,4.044,0,0,0-.837-1.672c-0.6-.716-5.924-7.059-7.769-8.922A11.533,11.533,0,0,1,75.5,62.6V39.786a4.01,4.01,0,0,0-.276-1.384,26.159,26.159,0,0,0-14.4-21.994c0-.02.005-0.039,0.005-0.059A11.219,11.219,0,1,0,38.392,16.2,26.178,26.178,0,0,0,23.5,39.84V62.654a11.54,11.54,0,0,1-1.768,3.323c-1.845,1.863-7.169,8.208-7.769,8.925a4.03,4.03,0,0,0-.837,1.671A8.007,8.007,0,0,0,14.483,83.1c1.03,1.318,3.033,2.888,6.724,2.888H37.194a12.778,12.778,0,0,0,24.426-.052H77.794c3.691,0,5.7-1.57,6.726-2.888A8.012,8.012,0,0,0,85.874,76.52ZM49.6,13.083a3.142,3.142,0,0,1,1.929.715c-0.706-.059-1.413-0.109-2.133-0.109-0.57,0-1.129.05-1.69,0.086A3.133,3.133,0,0,1,49.6,13.083ZM49.4,86.91a4.835,4.835,0,0,1-2.832-.922H49.4c0.09,0,.166-0.046.255-0.052h2.64A4.833,4.833,0,0,1,49.4,86.91Zm0.2-9.047c-0.09,0-.166.046-0.255,0.052H21.925c1.934-2.281,4.479-5.239,5.461-6.23,2.354-2.376,3.682-6.366,3.924-7.142a4.057,4.057,0,0,0,.186-1.214V39.84a17.9,17.9,0,1,1,35.805,0,3.921,3.921,0,0,0,.2,1.023V63.277a4.053,4.053,0,0,0,.186,1.215c0.242,0.776,1.572,4.764,3.925,7.14,0.982,0.992,3.527,3.951,5.463,6.231H49.6Z"/>
</svg>
