<svg xmlns="http://www.w3.org/2000/svg" width="100" height="100" viewBox="0 0 100 100">
  <defs>
    <style>
      .cls-1 {
        fill-rule: evenodd;
      }
    </style>
  </defs>
  <path id="모양_3" data-name="모양 3" class="cls-1" d="M93.01,22.536A17.338,17.338,0,0,0,75.884,5.03,16.875,16.875,0,0,0,64.37,9.577a3.874,3.874,0,0,0-.247.343,3.787,3.787,0,0,0-.354.241L46.147,28.24c-0.035.036-.046,0.086-0.08,0.123s-0.1.063-.137,0.11a17.3,17.3,0,0,0-3.8,14.4,16.5,16.5,0,0,0-2.061-.213A16.894,16.894,0,0,0,28.552,47.2a3.93,3.93,0,0,0-.252.35,3.77,3.77,0,0,0-.35.239L10.327,65.869c-0.034.036-.045,0.084-0.078,0.121s-0.1.063-.138,0.111a17.741,17.741,0,0,0-4.1,11.369A17.338,17.338,0,0,0,23.133,94.975,17.007,17.007,0,0,0,35.7,89.367c0.028-.031.035-0.072,0.061-0.1L52.764,71.939c0.054-.055.071-0.13,0.122-0.187,0.012-.014.03-0.018,0.042-0.031A17.3,17.3,0,0,0,56.89,57.133a16.452,16.452,0,0,0,2.063.213,17.014,17.014,0,0,0,12.56-5.606c0.028-.031.035-0.072,0.062-0.1L88.582,34.31c0.054-.054.071-0.128,0.121-0.185,0.013-.015.033-0.019,0.046-0.035A17.724,17.724,0,0,0,93.01,22.536ZM14.227,77.469a9.2,9.2,0,0,1,2.078-5.83L33.772,53.721c0.053-.054.069-0.126,0.118-0.182s0.132-.062.189-0.115a8.776,8.776,0,0,1,5.987-2.363,8.659,8.659,0,0,1,1.5.155L30.437,62.572a4.266,4.266,0,0,0-.007,5.941,4.046,4.046,0,0,0,5.812.006l11.9-12.137a9.175,9.175,0,0,1-1.385,9.789c-0.017.019-.02,0.044-0.036,0.064L29.263,84.017a8.683,8.683,0,0,1-6.13,2.555A9.015,9.015,0,0,1,14.227,77.469ZM55.981,48.384L66.806,37.342a4.266,4.266,0,0,0,.007-5.941A4.046,4.046,0,0,0,61,31.394L50.393,42.215a8.958,8.958,0,0,1,1.729-8.2l17.47-17.922c0.053-.054.069-0.127,0.118-0.183s0.133-.063.19-0.116a8.772,8.772,0,0,1,5.984-2.361,9.016,9.016,0,0,1,8.906,9.1,9.212,9.212,0,0,1-2.216,6.008c-0.016.018-.019,0.042-0.034,0.06L65.084,46.388A8.487,8.487,0,0,1,55.981,48.384Z"/>
</svg>
