<svg xmlns="http://www.w3.org/2000/svg" width="100" height="100" viewBox="0 0 100 100">
  <defs>
    <style>
      .cls-1 {
        fill-rule: evenodd;
      }
    </style>
  </defs>
  <path id="모양_3" data-name="모양 3" class="cls-1" d="M95.017,30.841A21.744,21.744,0,0,0,73.438,8.985,21.288,21.288,0,0,0,59.7,14a3.871,3.871,0,0,0-.46.309L8.28,65.928a4.059,4.059,0,0,0-.614.935c-0.05.072-.095,0.146-0.144,0.219-0.051.106-.126,0.2-0.168,0.306a14.837,14.837,0,0,0-2.364,7.949A14.6,14.6,0,0,0,19.478,90.01a14.178,14.178,0,0,0,7.848-2.4,4.1,4.1,0,0,0,1.44-.937L65.339,49.639a4.24,4.24,0,0,0,0-5.944,4.111,4.111,0,0,0-5.868,0L23.389,80.237c-0.044.032-.1,0.036-0.14,0.07a6.08,6.08,0,0,1-3.77,1.3,6.285,6.285,0,0,1-4.254-10.82s0-.008.008-0.011L64.223,21.156h0a13.127,13.127,0,0,1,9.214-3.765A13.485,13.485,0,0,1,82.992,40.18c0,0.005-.006.013-0.011,0.018L41.723,81.987a4.239,4.239,0,0,0,0,5.943,4.111,4.111,0,0,0,5.868,0L89.759,45.221a3.991,3.991,0,0,0,.317-0.483A21.887,21.887,0,0,0,95.017,30.841Z"/>
</svg>
