<svg xmlns="http://www.w3.org/2000/svg" width="100" height="100" viewBox="0 0 100 100">
  <defs>
    <style>
      .cls-1 {
        fill-rule: evenodd;
      }
    </style>
  </defs>
  <path id="모양_3" data-name="모양 3" class="cls-1" d="M94.419,44.365a3.583,3.583,0,0,0,.3-0.517,3.6,3.6,0,0,0,.118-0.607,3.5,3.5,0,0,0,.1-0.758c0-.039.018-0.073,0.016-0.112a3.452,3.452,0,0,0-.145-0.554,2.492,2.492,0,0,0-.7-1.454,3.327,3.327,0,0,0-.192-0.289l-0.11-.11c-0.016-.015-0.029-0.031-0.045-0.045L59.9,6.052a3.357,3.357,0,0,0-.431-0.286,3.434,3.434,0,0,0-.633-0.42,3.425,3.425,0,0,0-.742-0.2A3.39,3.39,0,0,0,57.6,5.016c-0.037,0-.07.016-0.107,0.015a3.5,3.5,0,0,0-.788.109,3.538,3.538,0,0,0-.568.111,3.548,3.548,0,0,0-.592.348,3.529,3.529,0,0,0-.578.384c-0.032.03-.074,0.039-0.105,0.07a3.383,3.383,0,0,0-.312.47,3.454,3.454,0,0,0-.391.588,3.47,3.47,0,0,0-.2.744,3.347,3.347,0,0,0-.134.5c-0.136,2.23-.729,12.388-0.367,17.683L41.018,38.478c-4.455-1.177-14.986-3.307-25.034-.491-0.065.018-.11,0.067-0.174,0.089a3.475,3.475,0,0,0-.631.322,3.468,3.468,0,0,0-.593.394c-0.05.044-.114,0.059-0.162,0.107a3.338,3.338,0,0,0-.25.377,3.48,3.48,0,0,0-.409.616,5.275,5.275,0,0,0-.34,1.3,3.484,3.484,0,0,0,.053.723,3.35,3.35,0,0,0,.034.462c0.018,0.066.068,0.112,0.09,0.177a6.232,6.232,0,0,0,.716,1.222c0.044,0.049.059,0.112,0.106,0.16L32.748,62.257,6.054,88.953A3.561,3.561,0,1,0,11.09,93.99l26.694-26.7L56.1,85.616c0.044,0.044.1,0.057,0.148,0.1a3.506,3.506,0,0,0,.392.26,3.468,3.468,0,0,0,.949.484l0.008,0c0.015,0,.03,0,0.046.007a3.256,3.256,0,0,0,3.493-.854A3.515,3.515,0,0,0,62.146,83.3c2.524-9.838.5-19.989-.646-24.335L73.946,46.515c5.3,0.362,15.451-.23,17.68-0.369a3.344,3.344,0,0,0,.493-0.132,2.364,2.364,0,0,0,1.377-.62,3.347,3.347,0,0,0,.428-0.285c0.027-.027.034-0.063,0.06-0.091A3.512,3.512,0,0,0,94.419,44.365Zm-54.262,1.27L54.341,59.821a49.63,49.63,0,0,1,1.832,15.79L40.307,59.744l0-.006-0.006,0L24.369,43.8A49.668,49.668,0,0,1,40.157,45.635ZM57.49,52.9L47.081,42.486,57.187,32.381,67.6,42.791ZM74.282,39.4L60.574,25.695c-0.154-1.936-.121-5.366-0.007-8.906l22.62,22.62C79.646,39.523,76.217,39.555,74.282,39.4Z"/>
</svg>
