<svg xmlns="http://www.w3.org/2000/svg" width="100" height="100" viewBox="0 0 100 100">
  <defs>
    <style>
      .cls-1 {
        fill-rule: evenodd;
      }
    </style>
  </defs>
  <path id="모양_3" data-name="모양 3" class="cls-1" d="M49.5,4.995a33.583,33.583,0,0,0-33.491,33.6c0,19.875,23.025,50.57,24.006,51.868,0.069,0.089.137,0.175,0.212,0.259A13.536,13.536,0,0,0,49.294,95c0.094,0,.187,0,0.284,0a12.632,12.632,0,0,0,9.051-4.132,3.94,3.94,0,0,0,.359-0.412c0.981-1.3,24.006-31.993,24.006-51.868A33.583,33.583,0,0,0,49.5,4.995Zm3.28,80.39a5.008,5.008,0,0,1-3.24,1.6,5.467,5.467,0,0,1-3.29-1.55C39.934,77.023,24.01,52.768,24.01,38.592a25.493,25.493,0,1,1,50.987,0C75,54.974,54.858,82.584,52.783,85.385ZM49.734,18.771A19.59,19.59,0,1,0,69.264,38.36,19.581,19.581,0,0,0,49.734,18.771Zm0,31.156A11.566,11.566,0,1,1,61.266,38.36,11.562,11.562,0,0,1,49.734,49.927Z"/>
</svg>
