<svg xmlns="http://www.w3.org/2000/svg" width="100" height="100" viewBox="0 0 100 100">
  <defs>
    <style>
      .cls-1 {
        fill-rule: evenodd;
      }
    </style>
  </defs>
  <path id="모양_3" data-name="모양 3" class="cls-1" d="M83.919,46.175C72.328,34.343,55.1,33.151,47.327,33.274V15.686a3.7,3.7,0,0,0-2.154-3.376,3.61,3.61,0,0,0-3.921.6L6.186,44.389a3.741,3.741,0,0,0,0,5.546L41.252,81.412a3.63,3.63,0,0,0,2.423.93,3.588,3.588,0,0,0,1.5-.327,3.7,3.7,0,0,0,2.154-3.376V60.281c27.409-3.752,39.569,25.16,40.088,26.43a3.641,3.641,0,0,0,7.006-.978C96.39,68.606,92.854,55.3,83.919,46.175Zm-41,7.363a3.436,3.436,0,0,0-.321.14,3.79,3.79,0,0,0-1.239.68,3.551,3.551,0,0,0-1.126,1.731,3.621,3.621,0,0,0-.144.72,3.476,3.476,0,0,0-.07.352V70.414L14.12,47.163l25.9-23.252V37.164c0,0.072.037,0.133,0.041,0.2s-0.025.13-.018,0.2a3.465,3.465,0,0,0,.155.493,3.669,3.669,0,0,0,.229.727,3.543,3.543,0,0,0,.358.538,2.532,2.532,0,0,0,.991.927,3.487,3.487,0,0,0,.695.37,3.583,3.583,0,0,0,.656.134,3.418,3.418,0,0,0,.546.112c0.071,0,.129-0.037.2-0.041s0.13,0.026.2,0.019c0.225-.032,22.084-2.291,34.663,10.548,5.085,5.19,8,12.239,8.729,21.041C79.782,61.953,65.288,48.754,42.921,53.537Z"/>
</svg>
