<svg xmlns="http://www.w3.org/2000/svg" width="100" height="100" viewBox="0 0 100 100">
  <defs>
    <style>
      .cls-1 {
        fill-rule: evenodd;
      }
    </style>
  </defs>
  <path id="모양_3" data-name="모양 3" class="cls-1" d="M93.791,43.971L58.726,12.9A3.654,3.654,0,0,0,52.65,15.64V33c-7.768-.121-25,1.056-36.592,12.734-8.935,9-12.47,22.14-10.5,39.045a3.649,3.649,0,0,0,3.125,3.2,3.757,3.757,0,0,0,.5.034,3.657,3.657,0,0,0,3.373-2.259C13.084,84.49,25.221,55.942,52.65,59.656V77.776a3.653,3.653,0,0,0,6.075,2.737L93.791,49.445A3.66,3.66,0,0,0,93.791,43.971ZM59.956,69.658V56.577a3.38,3.38,0,0,0-.07-0.347,3.674,3.674,0,0,0-1.269-2.419,3.81,3.81,0,0,0-1.239-.672A3.429,3.429,0,0,0,57.056,53C34.693,48.276,20.2,61.305,12.514,71.654c0.725-8.672,3.633-15.623,8.7-20.742C33.737,38.266,55.7,40.451,55.909,40.473c0.068,0.007.127-.022,0.194-0.019s0.129,0.04.2,0.04a3.457,3.457,0,0,0,.573-0.116,3.68,3.68,0,0,0,.634-0.128,3.507,3.507,0,0,0,.691-0.364,3.628,3.628,0,0,0,.507-0.342,3.584,3.584,0,0,0,.478-0.566,3.492,3.492,0,0,0,.365-0.542,3.565,3.565,0,0,0,.226-0.715,3.377,3.377,0,0,0,.155-0.49c0.007-.067-0.021-0.126-0.017-0.192s0.041-.129.041-0.2V23.758l25.9,22.95Z"/>
</svg>
