<svg xmlns="http://www.w3.org/2000/svg" width="100" height="100" viewBox="0 0 100 100">
  <defs>
    <style>
      .cls-1 {
        fill-rule: evenodd;
      }
    </style>
  </defs>
  <path id="모양_3" data-name="모양 3" class="cls-1" d="M95.011,51.061a4.059,4.059,0,0,0-1.174-2.832L78.918,33.306a4,4,0,1,0-5.658,5.66l8.091,8.093H54V18.624l8.09,8.092a4,4,0,1,0,5.658-5.659L52.826,6.133a3.957,3.957,0,0,0-1.188-.789A3.806,3.806,0,0,0,51.244,5.2a3.942,3.942,0,0,0-2.656.032c-0.036.013-.073,0.012-0.109,0.027l-0.014,0a3.948,3.948,0,0,0-1.173.785c-0.038.035-.087,0.046-0.124,0.083L32.248,21.057a4,4,0,1,0,5.658,5.659L46,18.624V47.059H18.643l8.091-8.093a4,4,0,1,0-5.658-5.66L6.158,48.229a4.016,4.016,0,0,0,0,5.663L21.076,68.814a4,4,0,0,0,5.658-5.66l-8.09-8.092H46V81.345l-8.09-8.092a4,4,0,1,0-5.658,5.659L47.166,93.835a4.014,4.014,0,0,0,5.662,0L67.746,78.912a4,4,0,1,0-5.658-5.659L54,81.345V55.063H81.35l-8.09,8.092a4,4,0,1,0,5.658,5.66L93.837,53.893A4.054,4.054,0,0,0,95.011,51.061Z"/>
</svg>
