<svg xmlns="http://www.w3.org/2000/svg" width="100" height="100" viewBox="0 0 100 100">
  <defs>
    <style>
      .cls-1 {
        fill-rule: evenodd;
      }
    </style>
  </defs>
  <path id="모양_3" data-name="모양 3" class="cls-1" d="M91.008,45.552H18.624L38.807,25.7a3.888,3.888,0,0,0,0-5.565,4.048,4.048,0,0,0-5.659,0L6.133,46.705c-0.037.036-.048,0.085-0.082,0.122a3.872,3.872,0,0,0-.785,1.154s0,0.009,0,.014c-0.014.035-.013,0.072-0.027,0.106a3.822,3.822,0,0,0-.245,1.236,3.715,3.715,0,0,0,.021.409,3.813,3.813,0,0,0,.191.964,3.639,3.639,0,0,0,.142.394,3.87,3.87,0,0,0,.788,1.167L33.148,78.836a4.048,4.048,0,0,0,5.659,0,3.888,3.888,0,0,0,0-5.565L18.624,53.424H91.008A3.936,3.936,0,1,0,91.008,45.552Z"/>
</svg>
