<svg xmlns="http://www.w3.org/2000/svg" width="100" height="100" viewBox="0 0 100 100">
  <defs>
    <style>
      .cls-1 {
        fill-rule: evenodd;
      }
    </style>
  </defs>
  <path id="모양_3" data-name="모양 3" class="cls-1" d="M94.792,50.711A3.823,3.823,0,0,0,94.76,48.1c-0.013-.035-0.012-0.072-0.027-0.106,0,0,0-.009,0-0.014a3.881,3.881,0,0,0-.785-1.155c-0.035-.037-0.046-0.086-0.082-0.122L66.847,20.109a4.046,4.046,0,0,0-5.659,0,3.9,3.9,0,0,0,0,5.571L81.371,45.548H8.987a3.94,3.94,0,1,0,0,7.88H81.371L61.188,73.3a3.9,3.9,0,0,0,0,5.571,4.046,4.046,0,0,0,5.659,0L93.862,52.273a3.88,3.88,0,0,0,.788-1.168A3.584,3.584,0,0,0,94.792,50.711Z"/>
</svg>
