<svg xmlns="http://www.w3.org/2000/svg" width="100" height="100" viewBox="0 0 100 100">
  <defs>
    <style>
      .cls-1 {
        fill-rule: evenodd;
      }
    </style>
  </defs>
  <path id="모양_3" data-name="모양 3" class="cls-1" d="M80.787,61.172a4.22,4.22,0,0,0-5.838,0L54.129,81.35V8.985a4.131,4.131,0,0,0-8.257,0V81.35L25.052,61.172a4.22,4.22,0,0,0-5.838,0,3.913,3.913,0,0,0,0,5.658L47.082,93.838a4.13,4.13,0,0,0,1.358.874,4.245,4.245,0,0,0,1.561.3h0c0.03,0,.06-0.017.09-0.017a4.236,4.236,0,0,0,1.472-.283c0.005,0,.011,0,0.017,0a4.1,4.1,0,0,0,1.211-.787c0.039-.035.09-0.045,0.127-0.082L80.787,66.83A3.913,3.913,0,0,0,80.787,61.172Z"/>
</svg>
