<svg xmlns="http://www.w3.org/2000/svg" width="100" height="100" viewBox="0 0 100 100">
  <defs>
    <style>
      .cls-1 {
        fill-rule: evenodd;
      }
    </style>
  </defs>
  <path id="모양_3" data-name="모양 3" class="cls-1" d="M79.806,33.148L52.374,6.133A3.881,3.881,0,0,0,50.761,5.2a5.2,5.2,0,0,0-1.422-.211,4.128,4.128,0,0,0-1.295.248c-0.027.01-.056,0.009-0.082,0.02l-0.018,0a4.036,4.036,0,0,0-1.192.787c-0.038.035-.089,0.045-0.126,0.082L19.195,33.148a3.958,3.958,0,0,0,0,5.659,4.107,4.107,0,0,0,5.747,0L45.436,18.624V91.008a4.064,4.064,0,0,0,8.128,0V18.624L74.059,38.807a4.107,4.107,0,0,0,5.747,0A3.958,3.958,0,0,0,79.806,33.148Z"/>
</svg>
