<svg xmlns="http://www.w3.org/2000/svg" width="100" height="100" viewBox="0 0 100 100">
  <defs>
    <style>
      .cls-1 {
        fill-rule: evenodd;
      }
    </style>
  </defs>
  <path id="모양_3" data-name="모양 3" class="cls-1" d="M76.719,20.777H64.547l0-5.093C64.3,11.991,60.953,5.01,50,5.01S35.7,11.991,35.453,15.925v4.852H23.288a9.393,9.393,0,0,0-9.3,9.459v55.3A9.393,9.393,0,0,0,23.288,95h53.43a9.393,9.393,0,0,0,9.3-9.459v-55.3A9.393,9.393,0,0,0,76.719,20.777ZM42.6,16.166c0-.04.337-3.88,7.4-3.88,6.28,0,7.247,3.016,7.394,3.868v4.622H42.6Zm36.264,69.37a2.194,2.194,0,0,1-2.147,2.183H23.288a2.194,2.194,0,0,1-2.147-2.183v-55.3a2.194,2.194,0,0,1,2.147-2.183H35.453v6.3a3.578,3.578,0,1,0,7.156,0l0-6.3H57.4v6.3a3.578,3.578,0,1,0,7.156,0l0-6.3H76.719a2.194,2.194,0,0,1,2.147,2.183v55.3Z"/>
</svg>
