<svg xmlns="http://www.w3.org/2000/svg" width="100" height="100" viewBox="0 0 100 100">
  <defs>
    <style>
      .cls-1 {
        fill-rule: evenodd;
      }
    </style>
  </defs>
  <path id="모양_3" data-name="모양 3" class="cls-1" d="M92.943,84.578l-9-42.893a9.693,9.693,0,0,0-9.681-9.244H67.551v-13.4a3.6,3.6,0,0,0-.022-0.4C67.019,13.925,62.6,5.009,49.553,4.971c-0.006,0-.011,0-0.017,0H49.473c-0.006,0-.011,0-0.017,0-13.05.038-17.466,8.954-17.976,13.677a3.57,3.57,0,0,0-.022.4v13.4H24.748a9.694,9.694,0,0,0-9.681,9.244l-9,42.893a3.71,3.71,0,0,0-.078.762,9.694,9.694,0,0,0,9.691,9.674h33.8c0.011,0,.02-0.006.031-0.007s0.02,0.007.031,0.007H83.33a9.694,9.694,0,0,0,9.691-9.674A3.709,3.709,0,0,0,92.943,84.578ZM38.912,19.293c0.172-1.051,1.537-6.869,10.593-6.882C58.361,12.425,59.861,17.894,60.1,19.3V32.442H49.535c-0.011,0-.02.006-0.031,0.006s-0.02-.006-0.031-0.006H38.912V19.293ZM83.33,87.572H49.535c-0.011,0-.02.006-0.031,0.006s-0.02-.006-0.031-0.006h-33.8a2.27,2.27,0,0,1-2.216-1.942l8.972-42.753a3.71,3.71,0,0,0,.078-0.761,2.265,2.265,0,0,1,2.237-2.233h6.709V52.535a3.727,3.727,0,0,0,7.455,0V39.883H49.473c0.011,0,.02-0.006.031-0.007s0.02,0.007.031,0.007H60.1V52.535a3.727,3.727,0,0,0,7.455,0V39.883h6.709A2.265,2.265,0,0,1,76.5,42.116a3.71,3.71,0,0,0,.078.761L85.546,85.63A2.27,2.27,0,0,1,83.33,87.572Z"/>
</svg>
