<svg xmlns="http://www.w3.org/2000/svg" width="100" height="100" viewBox="0 0 100 100">
  <defs>
    <style>
      .cls-1 {
        fill-rule: evenodd;
      }
    </style>
  </defs>
  <path id="모양_3" data-name="모양 3" class="cls-1" d="M83.015,84.235L78.73,37.942A10.281,10.281,0,0,0,68.586,27.756H66.263L65.654,19.8a4.179,4.179,0,0,0-.075-0.531C64.54,14.327,59.845,4.982,49.517,4.982S34.5,14.327,33.456,19.27a4.179,4.179,0,0,0-.075.531l-0.609,7.955H30.45A10.281,10.281,0,0,0,20.305,37.942L16.021,84.235C16.01,84.36,16,84.488,16,84.613a10.287,10.287,0,0,0,10.146,10.4H72.886a10.286,10.286,0,0,0,10.146-10.4C83.032,84.488,83.026,84.36,83.015,84.235ZM41.138,20.748c0.329-1.263,2.32-7.768,8.38-7.768s8.017,6.327,8.381,7.761l0.537,7.014H40.6ZM72.886,87.013H26.15a2.4,2.4,0,0,1-2.337-2.256l4.279-46.224c0.011-.125.017-0.253,0.017-0.378a2.4,2.4,0,0,1,2.341-2.4h1.71L31.821,40.2a3.968,3.968,0,0,0,3.585,4.3c0.1,0.009.207,0.012,0.31,0.012A3.941,3.941,0,0,0,39.6,40.823l0.388-5.068H59.047l0.388,5.068A3.941,3.941,0,0,0,63.32,44.51c0.1,0,.206,0,0.31-0.012a3.968,3.968,0,0,0,3.585-4.3l-0.34-4.443h1.71a2.4,2.4,0,0,1,2.341,2.4c0,0.125.006,0.253,0.016,0.378l4.279,46.224A2.4,2.4,0,0,1,72.886,87.013Z"/>
</svg>
