<svg xmlns="http://www.w3.org/2000/svg" width="100" height="100" viewBox="0 0 100 100">
  <defs>
    <style>
      .cls-1 {
        fill-rule: evenodd;
      }
    </style>
  </defs>
  <path id="모양_3" data-name="모양 3" class="cls-1" d="M84.415,5.237L54.923,4.989h-0.03A3.713,3.713,0,0,0,52.281,6.08l-0.007,0L7.851,50.933a9.8,9.8,0,0,0,0,13.746L35.077,92.167a9.572,9.572,0,0,0,13.612,0l44-44.424a3.7,3.7,0,0,0,1.322-2.8V14.956A9.677,9.677,0,0,0,84.415,5.237ZM43.455,86.881a2.239,2.239,0,0,1-3.142,0L13.089,59.393a2.292,2.292,0,0,1,0-3.174L56.412,12.477l27.972,0.235a2.262,2.262,0,0,1,2.221,2.243V43.313ZM78.618,16.462a9.66,9.66,0,0,0-7.5-.365,9.784,9.784,0,0,0-5.56,5.1,9.916,9.916,0,0,0-.362,7.572,9.8,9.8,0,0,0,5.047,5.613,9.687,9.687,0,0,0,4.174.946A9.815,9.815,0,0,0,83.3,29.65a9.923,9.923,0,0,0,.363-7.572A9.812,9.812,0,0,0,78.618,16.462Zm-2.011,10a2.4,2.4,0,0,1-4.443-.219,2.434,2.434,0,0,1,.088-1.857,2.406,2.406,0,0,1,2.18-1.393,2.343,2.343,0,0,1,1.025.234A2.4,2.4,0,0,1,76.7,24.6,2.441,2.441,0,0,1,76.607,26.461ZM44.393,39.567a3.676,3.676,0,0,0-5.235,0,3.762,3.762,0,0,0,0,5.285L56.681,62.547a3.676,3.676,0,0,0,5.235,0,3.762,3.762,0,0,0,0-5.285Zm8.762-8.845a3.676,3.676,0,0,0-5.235,0,3.762,3.762,0,0,0,0,5.285L65.443,53.7a3.676,3.676,0,0,0,5.235,0,3.762,3.762,0,0,0,0-5.286Z"/>
</svg>
