<svg xmlns="http://www.w3.org/2000/svg" width="100" height="100" viewBox="0 0 100 100">
  <defs>
    <style>
      .cls-1 {
        fill-rule: evenodd;
      }
    </style>
  </defs>
  <path id="모양_3" data-name="모양 3" class="cls-1" d="M84.414,5.237L54.921,4.989h-0.03A3.713,3.713,0,0,0,52.279,6.08l-0.006,0L7.851,50.933a9.8,9.8,0,0,0,0,13.746L35.077,92.167a9.572,9.572,0,0,0,13.612,0l44-44.424a3.7,3.7,0,0,0,1.322-2.8V14.956A9.677,9.677,0,0,0,84.414,5.237ZM43.455,86.881a2.239,2.239,0,0,1-3.143,0L13.089,59.393a2.292,2.292,0,0,1,0-3.174L56.41,12.477l27.974,0.235a2.262,2.262,0,0,1,2.221,2.243V43.313ZM78.617,16.462a9.685,9.685,0,0,0-7.5-.365,9.782,9.782,0,0,0-5.559,5.1,9.923,9.923,0,0,0-.363,7.572A9.779,9.779,0,0,0,83.3,29.65a9.915,9.915,0,0,0,.362-7.572A9.811,9.811,0,0,0,78.617,16.462Zm-2.01,10a2.4,2.4,0,0,1-4.444-.216,2.441,2.441,0,0,1,.09-1.86,2.406,2.406,0,0,1,2.179-1.393,2.339,2.339,0,0,1,1.024.234A2.4,2.4,0,0,1,76.7,24.6,2.441,2.441,0,0,1,76.607,26.461Z"/>
</svg>
