<svg xmlns="http://www.w3.org/2000/svg" width="100" height="100" viewBox="0 0 100 100">
  <defs>
    <style>
      .cls-1 {
        fill-rule: evenodd;
      }
    </style>
  </defs>
  <path id="모양_3" data-name="모양 3" class="cls-1" d="M91.119,27.585L88.85,25.313a3.837,3.837,0,0,0-5.425,0,6.96,6.96,0,0,1-9.834-9.851,3.847,3.847,0,0,0,0-5.435L71.321,7.762a10.226,10.226,0,0,0-14.109,0L7.885,57.151a10.014,10.014,0,0,0,0,14.124l2.272,2.275a3.947,3.947,0,0,0,5.426,0,7.114,7.114,0,0,1,9.832,0,6.967,6.967,0,0,1,0,9.847,3.844,3.844,0,0,0,0,5.432l2.272,2.278a9.991,9.991,0,0,0,14.109,0l49.328-49.39A10.023,10.023,0,0,0,91.119,27.585Zm-5.422,8.7L36.372,85.67a2.343,2.343,0,0,1-3.177.081,14.688,14.688,0,0,0-2.353-17.633A14.626,14.626,0,0,0,13.23,65.756a2.324,2.324,0,0,1,.081-3.172l49.33-49.39a2.365,2.365,0,0,1,3.165-.081A14.644,14.644,0,0,0,85.778,33.108,2.346,2.346,0,0,1,85.7,36.283ZM60.15,24.713l-1.22-1.222A3.839,3.839,0,1,0,53.5,28.924l1.22,1.222A3.839,3.839,0,0,0,60.15,24.713ZM74.187,38.768a3.839,3.839,0,0,0-5.419,5.439l1.223,1.221A3.839,3.839,0,0,0,75.41,39.99Zm-6.405-6.414-1.22-1.221a3.839,3.839,0,1,0-5.425,5.432l1.22,1.222A3.839,3.839,0,0,0,67.781,32.354Z"/>
</svg>
