<svg xmlns="http://www.w3.org/2000/svg" width="100" height="100" viewBox="0 0 100 100">
  <defs>
    <style>
      .cls-1 {
        fill-rule: evenodd;
      }
    </style>
  </defs>
  <path id="모양_3" data-name="모양 3" class="cls-1" d="M55.282,31.151a3.9,3.9,0,0,0,5.482-.006,3.818,3.818,0,0,0-.006-5.432l-1.236-1.221a3.9,3.9,0,0,0-5.482.006,3.818,3.818,0,0,0,.006,5.432ZM69.466,45.205L70.7,46.427a3.9,3.9,0,0,0,5.482,0,3.815,3.815,0,0,0,0-5.432l-1.233-1.222a3.9,3.9,0,0,0-5.482,0A3.815,3.815,0,0,0,69.466,45.205Zm-7.712-7.638,1.233,1.222a3.9,3.9,0,0,0,5.482,0,3.816,3.816,0,0,0,0-5.432l-1.233-1.221a3.9,3.9,0,0,0-5.482,0A3.815,3.815,0,0,0,61.755,37.567ZM80.966,53.705l11.09-10.988a9.939,9.939,0,0,0,0-14.13l-2.3-2.272a3.9,3.9,0,0,0-5.479,0,7.247,7.247,0,0,1-9.938,0,6.928,6.928,0,0,1,0-9.85,3.815,3.815,0,0,0,0-5.432L72.047,8.764a10.413,10.413,0,0,0-14.257,0L7.946,58.153a9.934,9.934,0,0,0,0,14.124l2.3,2.275a3.9,3.9,0,0,0,5.482,0,7.25,7.25,0,0,1,9.938,0,6.915,6.915,0,0,1,0,9.847,3.815,3.815,0,0,0,0,5.432l2.3,2.275a10.157,10.157,0,0,0,14.254,0L52.775,81.639A21.6,21.6,0,1,0,80.966,53.705ZM36.73,86.67a2.379,2.379,0,0,1-3.208.081,14.574,14.574,0,0,0-2.378-17.633A14.916,14.916,0,0,0,13.35,66.763a2.305,2.305,0,0,1,.079-3.178L63.272,14.2a2.348,2.348,0,0,1,3.208-.081,14.572,14.572,0,0,0,2.378,17.635,14.91,14.91,0,0,0,17.8,2.359,2.3,2.3,0,0,1-.085,3.175l-15.034,14.9A21.549,21.549,0,0,0,51.237,72.3ZM72.822,87.34a13.77,13.77,0,1,1,13.9-13.77A13.849,13.849,0,0,1,72.822,87.34ZM82.409,64.5a3.9,3.9,0,0,0-5.482,0l-3.895,3.86-3.9-3.86a3.9,3.9,0,0,0-5.482,0,3.815,3.815,0,0,0,0,5.432l3.9,3.86-3.88,3.844a3.815,3.815,0,0,0,0,5.432,3.9,3.9,0,0,0,5.482,0l3.88-3.845,3.88,3.845a3.9,3.9,0,0,0,5.482,0,3.815,3.815,0,0,0,0-5.432l-3.88-3.844,3.9-3.86A3.815,3.815,0,0,0,82.409,64.5Z"/>
</svg>
