<svg xmlns="http://www.w3.org/2000/svg" width="100" height="100" viewBox="0 0 100 100">
  <defs>
    <style>
      .cls-1 {
        fill-rule: evenodd;
      }
    </style>
  </defs>
  <path id="모양_3" data-name="모양 3" class="cls-1" d="M55.264,30.866a3.938,3.938,0,0,0,5.487,0,3.741,3.741,0,0,0,0-5.371l-1.234-1.208a3.939,3.939,0,0,0-5.487,0,3.741,3.741,0,0,0,0,5.371Zm14.2,13.9L70.7,45.974a3.938,3.938,0,0,0,5.487,0,3.741,3.741,0,0,0,0-5.371L74.95,39.395a3.938,3.938,0,0,0-5.487,0A3.741,3.741,0,0,0,69.463,44.766Zm-7.715-7.55,1.237,1.208a3.938,3.938,0,0,0,5.487-.006,3.743,3.743,0,0,0-.006-5.371l-1.237-1.208a3.938,3.938,0,0,0-5.487.006A3.744,3.744,0,0,0,61.748,37.216ZM80.976,53.172l11.1-10.866a9.754,9.754,0,0,0-.006-13.971l-2.295-2.247a3.944,3.944,0,0,0-5.487,0,7.152,7.152,0,0,1-9.946,0,6.792,6.792,0,0,1,0-9.74,3.744,3.744,0,0,0,0-5.374l-2.3-2.244a10.51,10.51,0,0,0-14.266,0L7.888,57.568a9.745,9.745,0,0,0,0,13.965l2.3,2.249a3.938,3.938,0,0,0,5.487,0,7.32,7.32,0,0,1,9.946,0,6.78,6.78,0,0,1,0,9.737,3.741,3.741,0,0,0,0,5.371l2.3,2.249a10.261,10.261,0,0,0,14.266,0L52.758,80.793A21.7,21.7,0,0,0,72.825,94.025,21.47,21.47,0,0,0,94.493,72.813,21.245,21.245,0,0,0,80.976,53.172ZM36.7,85.769a2.4,2.4,0,0,1-3.21.077,14.28,14.28,0,0,0-2.38-17.435,15.065,15.065,0,0,0-17.81-2.33,2.279,2.279,0,0,1,.079-3.142L63.27,14.105a2.432,2.432,0,0,1,3.2-.08,14.262,14.262,0,0,0,2.386,17.438,15.059,15.059,0,0,0,17.813,2.332,2.281,2.281,0,0,1-.082,3.14L71.541,51.664a21.441,21.441,0,0,0-20.323,19.9Zm36.126,0.659A13.618,13.618,0,1,1,86.733,72.813,13.782,13.782,0,0,1,72.825,86.428Zm4.084-17.2v-5.4a3.881,3.881,0,0,0-7.76,0v5.4h-5.49a3.8,3.8,0,1,0,0,7.6h5.49V82.2a3.881,3.881,0,0,0,7.76,0V76.828h5.511a3.8,3.8,0,1,0,0-7.6H76.908Z"/>
</svg>
