<svg xmlns="http://www.w3.org/2000/svg" width="100" height="100" viewBox="0 0 100 100">
  <defs>
    <style>
      .cls-1 {
        fill-rule: evenodd;
      }
    </style>
  </defs>
  <path id="모양_3" data-name="모양 3" class="cls-1" d="M93.927,48.053L86.8,41.179l-0.029-.028L75.557,30.333A3.694,3.694,0,0,0,72.991,29.3H66.76A10.057,10.057,0,0,0,57.417,23H15.087A10,10,0,0,0,5.028,32.92V60.483A10,10,0,0,0,15.087,70.4h2.749a11.352,11.352,0,0,0,21.426,0H63.13a11.389,11.389,0,0,0,21.175.769c4.278-.508,7.358-1.863,9.14-4.061a6.889,6.889,0,0,0,1.586-4.872V50.64A3.6,3.6,0,0,0,93.927,48.053Zm-18.708-7.92H67.476V36.539h4.018ZM28.551,70.761a3.977,3.977,0,1,1,4.032-3.978A4.011,4.011,0,0,1,28.551,70.761Zm45.291,0a3.977,3.977,0,1,1,4.032-3.978A4.01,4.01,0,0,1,73.843,70.761Zm10.91-6.969a11.351,11.351,0,0,0-21.623-.629H39.263a11.353,11.353,0,0,0-21.426,0H15.087a2.7,2.7,0,0,1-2.719-2.681V32.92a2.735,2.735,0,0,1,2.719-2.681H57.417a2.7,2.7,0,0,1,2.719,2.681V43.752a3.645,3.645,0,0,0,3.671,3.619H82.724l4.967,4.79V62.454c0,0.051,0,.1,0,0.153A5.568,5.568,0,0,1,84.753,63.792Z"/>
</svg>
