<svg xmlns="http://www.w3.org/2000/svg" width="100" height="100" viewBox="0 0 100 100">
  <defs>
    <style>
      .cls-1 {
        fill-rule: evenodd;
      }
    </style>
  </defs>
  <path id="모양_3" data-name="모양 3" class="cls-1" d="M94.463,43.181A3.934,3.934,0,0,0,94.9,42.1c0.015-.064.049-0.12,0.061-0.185a3.954,3.954,0,0,0,.007-1.358c-0.019-.127-0.066-0.243-0.1-0.368a3.928,3.928,0,0,0-.156-0.586,3.877,3.877,0,0,0-.245-0.4c-0.042-.074-0.046-0.158-0.094-0.23L77.043,12.8a3.915,3.915,0,0,0-.776-0.841c-0.07-.058-0.146-0.1-0.219-0.156a3.91,3.91,0,0,0-1.164-.589c-0.03-.009-0.051-0.033-0.082-0.041-0.01,0-.019,0-0.03,0a3.9,3.9,0,0,0-1.008-.137H26.221a3.908,3.908,0,0,0-1.008.137c-0.01,0-.019,0-0.029,0-0.03.008-.051,0.032-0.082,0.041a3.909,3.909,0,0,0-1.164.589c-0.074.054-.15,0.1-0.22,0.156a3.922,3.922,0,0,0-.775.841L5.608,38.978c-0.048.072-.051,0.156-0.094,0.23a3.893,3.893,0,0,0-.245.4,3.924,3.924,0,0,0-.156.587c-0.032.124-.078,0.24-0.1,0.366a3.957,3.957,0,0,0,.007,1.359c0.012,0.064.045,0.121,0.061,0.184a3.918,3.918,0,0,0,.44,1.079,3.775,3.775,0,0,0,.246.354,3.819,3.819,0,0,0,.251.362L47.127,87.789c0.021,0.022.052,0.03,0.073,0.052,0.083,0.085.183,0.148,0.275,0.225a3.879,3.879,0,0,0,.752.5c0.1,0.05.182,0.119,0.285,0.161,0.028,0.012.046,0.037,0.074,0.047s0.08,0.009.119,0.022a3.6,3.6,0,0,0,2.576,0c0.039-.014.08-0.007,0.119-0.022s0.046-.035.074-0.047c0.1-.042.186-0.11,0.285-0.161a3.875,3.875,0,0,0,.752-0.5c0.091-.078.191-0.14,0.275-0.225,0.021-.022.052-0.029,0.073-0.052L93.966,43.9a3.879,3.879,0,0,0,.251-0.362A3.726,3.726,0,0,0,94.463,43.181ZM24.7,24.452l3.457,12.76H16.247ZM65.2,31.528l-8-12.561H68.606Zm-5.738,5.683H40.52l9.473-14.864ZM34.782,31.528l-3.4-12.561H42.786ZM60.948,45.144L49.993,73.967,39.038,45.144h21.91ZM75.289,24.452l8.45,12.76H71.832ZM30.6,45.144l8.594,22.613L18.015,45.144H30.6ZM60.792,67.757l8.594-22.613H81.971Z"/>
</svg>
