<svg xmlns="http://www.w3.org/2000/svg" width="100" height="100" viewBox="0 0 100 100">
  <defs>
    <style>
      .cls-1 {
        fill-rule: evenodd;
      }
    </style>
  </defs>
  <path id="모양_3" data-name="모양 3" class="cls-1" d="M89.805,52.851C83.547,43.6,72.6,34.312,60.108,30.833a11.306,11.306,0,0,0,1.405-5.378,11.522,11.522,0,0,0-23.043,0,11.3,11.3,0,0,0,1.405,5.379c-12.49,3.479-23.44,12.77-29.7,22.018C0.651,66.927,6.22,79.8,10.5,84.636a4.083,4.083,0,0,0,3.06,1.378H86.425a4.083,4.083,0,0,0,3.06-1.378C93.761,79.8,99.331,66.927,89.805,52.851ZM49.991,22.1a3.353,3.353,0,1,1-3.364,3.353A3.363,3.363,0,0,1,49.991,22.1ZM16.937,57.4c7.926-11.711,21.518-19.887,33.054-19.887S75.12,45.687,83.044,57.4A20.1,20.1,0,0,1,86.88,69.214H13.1A20.1,20.1,0,0,1,16.937,57.4Zm-1.29,20.487c-0.1-.166-0.209-0.351-0.318-0.543H84.656c-0.109.192-.217,0.378-0.319,0.543H15.647Z"/>
</svg>
