<svg xmlns="http://www.w3.org/2000/svg" width="100" height="100" viewBox="0 0 100 100">
  <defs>
    <style>
      .cls-1 {
        fill-rule: evenodd;
      }
    </style>
  </defs>
  <path id="모양_3" data-name="모양 3" class="cls-1" d="M84.8,27.8H79.332A12.58,12.58,0,0,0,81.4,26.056a8.912,8.912,0,0,0,2.446-6.7c-0.456-7.034-5.734-12.34-12.278-12.34A11.957,11.957,0,0,0,65.341,8.8c-0.073.041-.156,0.045-0.227,0.092-0.055.037-.119,0.09-0.175,0.129-0.168.111-.325,0.238-0.487,0.357C59.979,12.7,53,20.914,49.093,25.708c-3.9-4.79-10.874-13-15.347-16.322-0.168-.123-0.329-0.254-0.5-0.368-0.055-.038-0.117-0.09-0.172-0.126C33,8.846,32.922,8.843,32.85,8.8a11.96,11.96,0,0,0-6.232-1.789c-6.544,0-11.822,5.306-12.278,12.34a8.912,8.912,0,0,0,2.446,6.7A12.565,12.565,0,0,0,18.854,27.8H14.192a9.35,9.35,0,0,0-9.226,9.447V48.879a3.591,3.591,0,0,0,3.548,3.634H11V89.395a3.591,3.591,0,0,0,3.548,3.634h69.9A3.591,3.591,0,0,0,88,89.395V52.513h2.484a3.591,3.591,0,0,0,3.548-3.634V37.252A9.35,9.35,0,0,0,84.8,27.8Zm2.129,9.447v7.994H52.642V35.072H84.8A2.184,2.184,0,0,1,86.934,37.252ZM67.74,15.944c0.049-.045.112-0.06,0.159-0.108a5.263,5.263,0,0,1,.511-0.429c0.153-.116.3-0.229,0.446-0.326a5.062,5.062,0,0,1,2.713-.8c3.176,0,5.018,2.793,5.2,5.555a1.539,1.539,0,0,1-.549,1.255C73.624,23.93,65.412,25.663,57.847,26.4A100.871,100.871,0,0,1,67.74,15.944ZM21.42,19.836c0.18-2.762,2.022-5.555,5.2-5.555a5.064,5.064,0,0,1,2.706.8c0.155,0.106.32,0.231,0.487,0.359a5.2,5.2,0,0,1,.478.4c0.043,0.044.1,0.059,0.147,0.1a100.661,100.661,0,0,1,9.9,10.468c-7.566-.741-15.778-2.474-18.372-5.314A1.539,1.539,0,0,1,21.42,19.836ZM14.192,35.072H45.545V45.246H12.063V37.252A2.184,2.184,0,0,1,14.192,35.072Zm3.9,17.441h27.45V85.761H18.095V52.513ZM80.9,85.761H52.642V52.513H80.9V85.761Z"/>
</svg>
