<svg xmlns="http://www.w3.org/2000/svg" width="100" height="100" viewBox="0 0 100 100">
  <defs>
    <style>
      .cls-1 {
        fill-rule: evenodd;
      }
    </style>
  </defs>
  <path id="모양_3" data-name="모양 3" class="cls-1" d="M95.014,38.208a11.346,11.346,0,0,0-22.668,0,10.263,10.263,0,0,0,.351,2.547l-6.541,6.8L58.988,37.329a10.411,10.411,0,0,0,2.338-6.508,11.346,11.346,0,0,0-22.668,0,10.408,10.408,0,0,0,2.337,6.506L33.8,47.6,27.268,40.81a10.258,10.258,0,0,0,.369-2.6A11.1,11.1,0,0,0,16.3,27.387,11.1,11.1,0,0,0,4.968,38.208a10.917,10.917,0,0,0,8.5,10.436L17.5,65.012v10.58a3.461,3.461,0,0,0,3.487,3.435H78.995a3.461,3.461,0,0,0,3.487-3.435V64.939L86.5,48.649A10.919,10.919,0,0,0,95.014,38.208ZM83.679,34.257a4.175,4.175,0,0,1,4.359,3.951,4.162,4.162,0,0,1-4.277,3.943c-0.1,0-.192-0.017-0.286-0.011a4.422,4.422,0,0,1-3.528-1.921c-0.034-.08-0.094-0.146-0.134-0.223a3.614,3.614,0,0,1-.493-1.787A4.175,4.175,0,0,1,83.679,34.257ZM76.234,61.164H23.73L20.541,48.227a11.387,11.387,0,0,0,2.749-1.565l8.4,8.735a3.222,3.222,0,0,0,.289.2,3.238,3.238,0,0,0,.261.267,3.289,3.289,0,0,0,.429.206,3.223,3.223,0,0,0,1.549.4h0.007a3.54,3.54,0,0,0,1.119-.207c0.084-.028.164-0.055,0.247-0.09a3.434,3.434,0,0,0,.984-0.616c0.014-.012.032-0.015,0.045-0.028,0.032-.03.042-0.071,0.073-0.1a3.4,3.4,0,0,0,.4-0.441l9.7-13.836a10.63,10.63,0,0,0,6.4,0l9.7,13.836a3.52,3.52,0,0,0,4.851.875,3.277,3.277,0,0,0,.485-0.494c0.019-.02.046-0.025,0.066-0.045l8.361-8.692a11.38,11.38,0,0,0,2.773,1.593ZM49.992,26.871a4.175,4.175,0,0,1,4.359,3.95,4.38,4.38,0,0,1-8.719,0A4.175,4.175,0,0,1,49.992,26.871ZM16.3,34.257a4.175,4.175,0,0,1,4.359,3.951,4.175,4.175,0,0,1-4.359,3.95,4.175,4.175,0,0,1-4.359-3.95A4.175,4.175,0,0,1,16.3,34.257Zm59.2,37.9H24.475V68.035H75.507v4.122Z"/>
</svg>
