<svg xmlns="http://www.w3.org/2000/svg" width="100" height="100" viewBox="0 0 100 100">
  <defs>
    <style>
      .cls-1 {
        fill-rule: evenodd;
      }
    </style>
  </defs>
  <path id="모양_3" data-name="모양 3" class="cls-1" d="M91.927,42.042l-6.972-6.9V25.386a10.559,10.559,0,0,0-10.6-10.49H64.491L57.517,8A10.693,10.693,0,0,0,42.522,8l-6.974,6.9h-9.86a10.559,10.559,0,0,0-10.6,10.49v9.756l-6.974,6.9a10.43,10.43,0,0,0,0,14.834l6.974,6.9v9.756a10.559,10.559,0,0,0,10.6,10.49h9.86l6.974,6.9a10.7,10.7,0,0,0,14.995,0l6.974-6.9h9.861a10.559,10.559,0,0,0,10.6-10.49V63.777l6.972-6.9A10.427,10.427,0,0,0,91.927,42.042ZM86.16,51.171l-8.167,8.082A4.015,4.015,0,0,0,76.8,62.106V73.533a2.467,2.467,0,0,1-2.447,2.421H62.8a4.1,4.1,0,0,0-2.883,1.182L51.75,85.218a2.5,2.5,0,0,1-3.462,0l-8.167-8.083a4.1,4.1,0,0,0-2.883-1.182H25.688a2.466,2.466,0,0,1-2.447-2.421V62.106a4.016,4.016,0,0,0-1.2-2.853l-8.169-8.082a2.424,2.424,0,0,1,0-3.423l8.169-8.082a4.015,4.015,0,0,0,1.2-2.852V25.386a2.467,2.467,0,0,1,2.447-2.421H37.238a4.1,4.1,0,0,0,2.883-1.182L48.289,13.7a2.5,2.5,0,0,1,3.462,0l8.167,8.082A4.1,4.1,0,0,0,62.8,22.965H74.352A2.467,2.467,0,0,1,76.8,25.386V36.813a4.015,4.015,0,0,0,1.195,2.852l8.167,8.082A2.421,2.421,0,0,1,86.16,51.171Zm-25.669-4.94a12.328,12.328,0,0,0-3.315.5L68.335,35.694a4,4,0,0,0,0-5.706,4.107,4.107,0,0,0-5.767,0L51.411,41.027a11.959,11.959,0,0,0,.508-3.278,12.591,12.591,0,1,0-9.058,11.737L31.167,61.056a4,4,0,0,0,0,5.706,4.108,4.108,0,0,0,5.767,0L48.628,55.191a11.957,11.957,0,0,0-.509,3.28A12.371,12.371,0,1,0,60.491,46.231ZM39.548,41.919a4.169,4.169,0,1,1,4.215-4.17A4.2,4.2,0,0,1,39.548,41.919ZM60.491,62.639A4.169,4.169,0,1,1,64.7,58.471,4.2,4.2,0,0,1,60.491,62.639Z"/>
</svg>
