<svg xmlns="http://www.w3.org/2000/svg" width="100" height="100" viewBox="0 0 100 100">
  <defs>
    <style>
      .cls-1 {
        fill-rule: evenodd;
      }
    </style>
  </defs>
  <path id="모양_3" data-name="모양 3" class="cls-1" d="M94.1,70.389L77.417,50.33a29.414,29.414,0,0,0,2.692-12.271c0-16.554-13.682-30.02-30.5-30.02s-30.5,13.466-30.5,30.02A29.4,29.4,0,0,0,22.09,50.923L5.9,70.389a3.941,3.941,0,0,0-.527,4.231A4.057,4.057,0,0,0,9.028,76.9H21.58l4.5,12.463A4.041,4.041,0,0,0,29.524,92c0.123,0.009.247,0.015,0.37,0.015a4.063,4.063,0,0,0,3.5-1.993L46.368,67.908a28.863,28.863,0,0,0,7.2-.108L66.6,90.023a4.063,4.063,0,0,0,3.5,1.993c0.123,0,.246-0.006.37-0.015a4.041,4.041,0,0,0,3.446-2.637L78.42,76.9H90.971a4.056,4.056,0,0,0,3.659-2.279A3.94,3.94,0,0,0,94.1,70.389Zm-63.332,8.17-2.519-6.977a4.042,4.042,0,0,0-3.815-2.653H17.577l9.187-11.043a30.588,30.588,0,0,0,11.441,8ZM27.2,38.059a22.407,22.407,0,0,1,44.808,0A22.407,22.407,0,0,1,27.2,38.059Zm48.358,30.87a4.042,4.042,0,0,0-3.815,2.653l-2.519,6.977-7.58-12.925A30.608,30.608,0,0,0,72.864,57.44l9.559,11.49H75.562Z"/>
</svg>
