<svg xmlns="http://www.w3.org/2000/svg" width="100" height="100" viewBox="0 0 100 100">
  <defs>
    <style>
      .cls-1 {
        fill-rule: evenodd;
      }
    </style>
  </defs>
  <path id="모양_3" data-name="모양 3" class="cls-1" d="M85.9,39.033H82.752q-0.23,0-.451.008A31.1,31.1,0,0,0,77.249,33.5L77.5,22.59a3.537,3.537,0,0,0-2.019-3.28c-0.813-.381-4.6-1.778-10.906,1.555a15.931,15.931,0,0,0-30.661,6.208c0,0.4.049,0.8,0.079,1.2A33.187,33.187,0,0,0,20.017,40.386c-3.343.563-4.984-.647-5.006-0.664-1.989-1.742-3-3.515-3-5.27,0-2.594,2.152-5.064,2.986-5.8a3.548,3.548,0,0,0,.38-4.962,3.478,3.478,0,0,0-4.937-.4c-0.553.474-5.4,4.813-5.434,11.09-0.02,3.911,1.8,7.5,5.376,10.637a11.676,11.676,0,0,0,6.446,2.5,25.31,25.31,0,0,0-.965,6.857,26.313,26.313,0,0,0,4.711,14.906,17.274,17.274,0,0,0-.878,5.407c0,8.432,6.022,15.291,13.422,15.291a13.007,13.007,0,0,0,10.873-6.371,40.376,40.376,0,0,0,15.312.054A13,13,0,0,0,70.148,90c7.4,0,13.425-6.858,13.425-15.291a17.285,17.285,0,0,0-.91-5.521c0.464-.687.9-1.388,1.3-2.1H85.9a9.15,9.15,0,0,0,9.105-9.174v-9.7A9.15,9.15,0,0,0,85.9,39.033ZM49.864,18.058a8.973,8.973,0,0,1,5.154,16.3H44.71A8.973,8.973,0,0,1,49.864,18.058ZM88,57.91a2.139,2.139,0,0,1-2.1,2.117H82.752A2.123,2.123,0,0,1,82.426,60a3.519,3.519,0,0,0-3.773,2.032,21.513,21.513,0,0,1-2.741,4.51,3.538,3.538,0,0,0-.279,3.944,9.888,9.888,0,0,1,.936,4.221c0,4.54-2.881,8.234-6.421,8.234-2.391,0-4.64-1.786-5.735-4.554a3.319,3.319,0,0,0-.23-0.356,3.465,3.465,0,0,0-.448-0.692,5.18,5.18,0,0,0-1.1-.829c-0.095-.045-0.192-0.069-0.29-0.105a3.326,3.326,0,0,0-1.01-.221c-0.1-.005-0.2.012-0.307,0.016a3.308,3.308,0,0,0-.735.038,35.889,35.889,0,0,1-17.329.019,3.342,3.342,0,0,0-.467-0.021,2.616,2.616,0,0,0-1.337.11,2.654,2.654,0,0,0-1.172.6,3.365,3.365,0,0,0-.493.447,3.448,3.448,0,0,0-.384.594,3.3,3.3,0,0,0-.25.386c-1.094,2.765-3.346,4.551-5.737,4.551-3.54,0-6.418-3.694-6.418-8.234a9.879,9.879,0,0,1,.979-4.347,3.4,3.4,0,0,0,.125-0.471,3.517,3.517,0,0,0,.212-0.8,13.068,13.068,0,0,0-.142-1.338,3.508,3.508,0,0,0-.364-0.716,3.359,3.359,0,0,0-.229-0.449,19.568,19.568,0,0,1-4.416-12.195c0-6.587,3.641-12.816,9.668-17.121a3.37,3.37,0,0,0-.126.626,3.515,3.515,0,0,0,3.5,3.528h7.6c0.014,0,.028.005,0.042,0.005s0.028-.005.043-0.005H65.417a3.528,3.528,0,0,0,0-7.057H64.036a16.14,16.14,0,0,0,1.69-5.955,17.423,17.423,0,0,1,4.687-2.386L70.205,35.06a3.542,3.542,0,0,0,1.365,2.878,23.919,23.919,0,0,1,6.065,6.811,3.483,3.483,0,0,0,4.386,1.458,1.658,1.658,0,0,1,.73-0.119H85.9A2.139,2.139,0,0,1,88,48.206v9.7ZM66.118,43.179a4.234,4.234,0,1,0,4.2,4.234A4.223,4.223,0,0,0,66.118,43.179Zm0,7.057a2.823,2.823,0,1,1,2.8-2.823A2.814,2.814,0,0,1,66.118,50.235Z"/>
</svg>
