<svg xmlns="http://www.w3.org/2000/svg" width="100" height="100" viewBox="0 0 100 100">
  <defs>
    <style>
      .cls-1 {
        fill-rule: evenodd;
      }
    </style>
  </defs>
  <path id="모양_3" data-name="모양 3" class="cls-1" d="M92.435,67.154a4.037,4.037,0,0,0-.732-0.5l-37.24-19.84V40.3a3.925,3.925,0,0,0-3.971-3.878,3.34,3.34,0,1,1,3.419-3.339,3.972,3.972,0,0,0,7.943,0,11.367,11.367,0,0,0-22.727,0,11.131,11.131,0,0,0,7.394,10.4v3.3L8.315,66.633a4.029,4.029,0,0,0-.785.533C5.9,68.6,4.443,71.051,5.265,73.656c0.757,2.394,2.966,3.848,6.575,4.318a4.271,4.271,0,0,0,.524.034h75.29a4.449,4.449,0,0,0,.521-0.033c3.608-.469,5.818-1.924,6.565-4.32C95.556,71.042,94.086,68.584,92.435,67.154ZM50.466,53.52L81.871,70.251H18.262Z"/>
</svg>
