<svg xmlns="http://www.w3.org/2000/svg" width="100" height="100" viewBox="0 0 100 100">
  <defs>
    <style>
      .cls-1 {
        fill-rule: evenodd;
      }
    </style>
  </defs>
  <path id="모양_5" data-name="모양 5" class="cls-1" d="M92.891,42.46l-7.049-6.978V25.616A10.677,10.677,0,0,0,75.122,15.007H65.149L58.1,8.026a10.824,10.824,0,0,0-15.163,0L35.89,15.007H25.917A10.677,10.677,0,0,0,15.2,25.616v9.866L8.148,42.457a10.546,10.546,0,0,0,0,15L15.2,64.439v9.866A10.677,10.677,0,0,0,25.917,84.914H35.89l7.048,6.981a10.828,10.828,0,0,0,15.163,0l7.048-6.978h9.973A10.677,10.677,0,0,0,85.843,74.305V64.439l7.049-6.975A10.546,10.546,0,0,0,92.891,42.46Zm-5.831,9.232L78.8,59.865A4.061,4.061,0,0,0,77.6,62.75V74.305a2.5,2.5,0,0,1-2.474,2.448H63.442a4.144,4.144,0,0,0-2.915,1.2l-8.256,8.17a2.526,2.526,0,0,1-3.5,0l-8.256-8.174a4.144,4.144,0,0,0-2.915-1.2H25.917a2.5,2.5,0,0,1-2.474-2.448V62.75a4.062,4.062,0,0,0-1.208-2.885l-8.256-8.176a2.44,2.44,0,0,1,0-3.459l8.256-8.174a4.061,4.061,0,0,0,1.208-2.885V25.616a2.5,2.5,0,0,1,2.474-2.448H37.6a4.143,4.143,0,0,0,2.915-1.2l8.256-8.17a2.526,2.526,0,0,1,3.5,0l8.256,8.173a4.143,4.143,0,0,0,2.915,1.2h11.68A2.5,2.5,0,0,1,77.6,25.616V37.172A4.061,4.061,0,0,0,78.8,40.056l8.256,8.176A2.441,2.441,0,0,1,87.061,51.691ZM34.354,54.573a8.063,8.063,0,0,0-.52-1.545c-0.218-.47-0.419-0.866-0.593-1.185L27.284,41.377H23.729V58.646h2.9V45.5a8.14,8.14,0,0,0,.459,1.413,11.152,11.152,0,0,0,.629,1.244L33.7,58.646h3.559V41.377h-2.9v13.2Zm9.894-3.52H51.9v-2.49H44.248V43.916h8.158V41.377H41.177V58.646h11.4V56.107H44.248V51.053ZM71.02,54.166L67.508,41.377H64.531L61,54.191,57.8,41.377H54.586l4.741,17.268h3l3.679-13.293,3.534,13.293H72.5l4.814-17.268H74.335Z"/>
</svg>
