<?xml version="1.0" encoding="UTF-8"?>
<svg id="_레이어_2" data-name="레이어 2" xmlns="http://www.w3.org/2000/svg" viewBox="0 0 1447.05 379.23">
  <defs>
    <style>
      .cls-1 {
        fill: #f7e9c0;
      }
    </style>
  </defs>
  <g id="_레이어_1-2" data-name="레이어 1">
    <path class="cls-1" d="m1.26,290.82s34.12,27,96.63,51.17c20.84,8.06,44.83,15.8,71.76,22.12,87.41,21.26,177.41,18.26,264.96,2.35,22.7-4.03,44.87-8.78,66.55-14.07,108.41-26.45,204.75-66.28,295.81-95.33,9.11-2.91,18.16-5.7,27.16-8.38,92.93-29.3,189.93-43.3,287.01-47.65,9.99-.59,19.98-.98,29.98-1.13,29.99-.44,60.01,1.32,90.05,6.39,9.59,1.13,19.17,2.45,28.73,3.96,38.24,6,76.16,14.85,113.49,25.34,8.19,2.06,16.37,4.12,24.55,6.16,16.36,4.07,32.72,8.03,49.12,11.63,0-9,0-17-.46-26.23V0H0l1.26,290.82Z"/>
  </g>
</svg>