<?xml version="1.0" encoding="UTF-8"?>
<svg id="_레이어_2" data-name="레이어 2" xmlns="http://www.w3.org/2000/svg" viewBox="0 0 1448.05 413.46">
  <defs>
    <style>
      .cls-1 {
        fill: #9fa0a0;
      }
    </style>
  </defs>
  <g id="_레이어_1-2" data-name="레이어 1">
    <path class="cls-1" d="m.9,308.75c14.52,11.63,29.62,22.09,45.22,31.47,17.09,10.68,34.65,19.99,52.57,28,17.93,8.02,36.23,14.75,54.81,20.38,18.35,6.04,36.79,10.87,55.28,14.56s37.02,6.25,55.56,7.78c199.71,20.11,378.71-83.89,549.79-171.45,13.59-6.54,27.2-13.04,40.85-19.46s27.33-12.77,41.07-18.98c30-13,60-28,91.73-36.49,18.86-5.87,37.78-10.96,56.72-14.96,75.76-16.01,151.91-14.58,226.81,24.07,12.08,6.04,24.02,12.54,35.93,19.23,23.81,13.37,47.48,27.48,71.81,40.15,23,12,45,24,69,33-.5-12-.81-23.94-1.01-35.84-.58-35.7-.11-71.06-.44-106.74,0-18.81,0-37.07,0-53.04V15.67h-39.33c-14.87.4-29.68.45-44.46.28-43.88.55-87.31-2.43-130.78-6.04-14.49-1.2-28.98-2.48-43.5-3.72C1153.05,3.05,1117.05.05,1082.05.05c-51.5-.5-102.75,3-154.03,6.38-17.09,1.13-34.19,2.24-51.3,3.18-66.44,1.63-133.48,4.39-200.34,5.65-16.71.32-33.42.54-50.1.63-64.23.16-127.23.16-191.54-.21-15.22,0-30.23,0-45,0H0s.18,40.9.4,92.02c.07,17.04.15,35.23.21,53.55.44,41.81.44,83.81.24,125.74.03,13.63.05,21.77.05,21.77Z"/>
  </g>
</svg>